<?xml version="1.0" encoding="utf-8"?>
<!-- Generator: Adobe Illustrator 25.3.0, SVG Export Plug-In . SVG Version: 6.00 Build 0)  -->
<svg version="1.1" id="Layer_1" xmlns="http://www.w3.org/2000/svg" xmlns:xlink="http://www.w3.org/1999/xlink" x="0px" y="0px"
	 viewBox="0 0 595.28 841.89" style="enable-background:new 0 0 595.28 841.89;" xml:space="preserve">
<style type="text/css">
	.st0{fill:#F5A88D;}
	.st1{fill:#31333F;}
	.st2{fill:#EF7A5D;}
	.st3{fill:#392924;}
	.st4{fill:#373535;}
	.st5{fill:#FFFFFF;}
	.st6{fill:#3E4B61;}
	.st7{fill:#333D4D;}
	.st8{fill:#03605C;}
	.st9{fill:#004243;}
	.st10{fill:#BDBEC0;}
	.st11{fill:#353B49;}
</style>
<g id="XMLID_657_">
	<path id="XMLID_562_" class="st0" d="M322.02,239.69c-0.14,11.33-3.89,19.73,16.94,29.53c-12.4,17.06-24.62,23.37-24.62,23.37
		s-26.13-11.76-35.11-19.54c11.05-8.04,19.07-9,18.87-19.78c-0.05-2.59,0.07-13.16,0.14-13.37L322.02,239.69z"/>
	<path id="XMLID_560_" class="st0" d="M325.87,201.01c-10.09-14.11-33.89-10.54-36.67,11.1c-2.75,21.47,7.64,38.38,13.68,40.04
		c5.47,1.5,10.87,2.16,15.44-0.93C330.34,243.09,334.97,213.73,325.87,201.01z"/>
	<path id="XMLID_757_" class="st1" d="M294.85,187.2c-1.76,6.66-10.97,4.86-9.2,13.38l3.41,26.63c0.47-5.4,1.28-17.34,3.78-18.53
		c8.58-4.09,25.07-3.29,32.25,0.15c2.12,1.02,4.83,19.55,4.83,19.55c12.7-30.85,0.62-32.42,1.24-38.47
		c0.74-7.24-9.13,1.38-13.28-4.53c-1.16-1.65-6.26,2-7.43-0.07c-2.21-3.9-8.95,0.46-9.33,2.11
		C299.87,185.77,295.48,184.78,294.85,187.2z"/>
	<path id="XMLID_558_" class="st1" d="M304.31,214.24c-4.64-1.02-12.6,3.97-10.01,4.49c0.85,0.17,3.21-1.25,4.12-1.51
		c1.82-0.51,5.34-0.26,6.33-1.45C305.16,215.28,304.9,214.37,304.31,214.24z"/>
	<path id="XMLID_556_" class="st1" d="M314.6,215.86c1,1.19,4.52,0.94,6.34,1.44c0.91,0.25,3.28,1.67,4.12,1.5
		c2.58-0.53-5.39-5.55-10.02-4.47C314.38,214.48,314.19,215.37,314.6,215.86z"/>
	<g id="XMLID_547_">
		<g id="XMLID_554_">
			<path id="XMLID_555_" class="st0" d="M286.75,221.71c4.1-1.21,4.36,7.38,4.37,11.65C291.14,241.76,280.29,223.61,286.75,221.71z"
				/>
		</g>
		<g id="XMLID_552_">
			<path id="XMLID_553_" class="st2" d="M287.63,225.91c0.12-0.39,0.71-0.21,0.59,0.18c-0.72,2.36,0,3.75,0.97,4.28
				c0.15,0.08,0.2,0.27,0.12,0.42C288.76,231.78,286.59,229.28,287.63,225.91z"/>
		</g>
		<g id="XMLID_550_">
			<path id="XMLID_551_" class="st0" d="M332.54,221.59c-4.1-1.21-4.36,7.38-4.37,11.65C328.15,241.64,339,223.49,332.54,221.59z"/>
		</g>
		<g id="XMLID_548_">
			<path id="XMLID_549_" class="st2" d="M331.67,225.79c-0.12-0.39-0.71-0.21-0.59,0.18c0.72,2.36,0,3.75-0.97,4.28
				c-0.15,0.08-0.2,0.27-0.12,0.42C330.53,231.66,332.7,229.17,331.67,225.79z"/>
		</g>
	</g>
	<g id="XMLID_544_">
		<path id="XMLID_546_" class="st3" d="M300.16,225.34c-1.34,0-2.39-5.11,0.86-5.11C302.76,220.23,302.35,225.34,300.16,225.34z"/>
		<path id="XMLID_545_" class="st3" d="M320.12,225.54c1.34,0,2.39-5.11-0.86-5.11C317.51,220.43,317.92,225.54,320.12,225.54z"/>
	</g>
	<g id="XMLID_542_">
		<path id="XMLID_543_" class="st2" d="M298.39,248.82c0.17-0.13,0.41-0.1,0.54,0.07c3.53,4.57,15.96,6.12,21.94-0.4
			c0.34-0.38,0.91,0.14,0.57,0.52C312.62,258.64,296.18,250.53,298.39,248.82z"/>
	</g>
	<g id="XMLID_540_">
		<path id="XMLID_541_" class="st2" d="M307.89,233.65c-0.14-0.57,0.83-0.62,1.43-0.75c2.22-0.49,2.32,0.59,1.29-8.72
			c-0.2-1.82-0.51-2.79,0.14-2.84c0.61-0.04,0.45,0.68,0.68,2.75c1.12,10.11,1.14,8.87-3.04,9.86
			C308.17,234.01,307.95,233.88,307.89,233.65z"/>
	</g>
	<path id="XMLID_539_" class="st2" d="M305.14,241.65c-0.55-1,0.89-0.73,9.67-1.66C317.45,239.72,309.71,249.95,305.14,241.65z"/>
	<g id="XMLID_582_">
		<path id="XMLID_611_" class="st0" d="M344.61,640.45c3.76,2.9,7.87,3.63,13.17,0.57l-0.75-26.05l-16.81,0.47L344.61,640.45z"/>
		<polygon id="XMLID_610_" class="st0" points="254.84,640.21 268.15,641.48 270.53,616.75 254.25,617.21 		"/>
		<g id="XMLID_597_">
			<path id="XMLID_608_" class="st4" d="M360.01,656.92c-1.75,1.28-1.5,0.92-39.57,2.73c-7.62,0.36-7.96-3.57-4.01-6.02
				c6.01-3.74,27.71-15.75,29.09-14.94c3.9,2.29,5.88,2.67,11.99,1.82C358.51,640.38,365.26,653.1,360.01,656.92z"/>
			<path id="XMLID_606_" class="st5" d="M361.82,649.85c0.31,1.12,0.54,2.28,0.49,3.49c-0.05,1.18-0.4,2.48-1.32,3.41
				c-0.9,0.95-2.16,1.39-3.33,1.65c-1.24,0.25-2.34,0.31-3.51,0.45c-4.61,0.48-9.24,0.77-13.86,1.1c-4.63,0.18-9.27,0.41-13.91,0.37
				c-2.32-0.04-4.65-0.08-6.98-0.26c-1.16-0.12-2.33-0.23-3.49-0.55l-0.44-0.15c-0.15-0.06-0.31-0.18-0.44-0.27
				c-0.21-0.2-0.42-0.42-0.6-0.66c-0.36-0.49-0.58-1.12-0.48-1.71l0.1,0.01c-0.06,0.57,0.19,1.12,0.56,1.55
				c0.18,0.22,0.39,0.41,0.61,0.6c0.12,0.07,0.23,0.14,0.36,0.19l0.41,0.12c1.12,0.24,2.29,0.29,3.44,0.34
				c2.31,0.09,4.63,0.06,6.94,0.01c4.63-0.11,9.25-0.33,13.87-0.59c4.62-0.25,9.24-0.54,13.86-0.88c1.15-0.1,2.32-0.13,3.45-0.32
				c1.12-0.21,2.26-0.58,3.09-1.39c0.85-0.78,1.24-1.93,1.36-3.06c0.11-1.15-0.04-2.3-0.26-3.43L361.82,649.85z"/>
			<g id="XMLID_604_">
				<path class="st5" d="M341.8,647.76c-0.06,0-0.12-0.01-0.19-0.04c-2.12-0.85-3.96-2.26-5.33-4.08c-0.17-0.22-0.12-0.53,0.1-0.7
					c0.22-0.17,0.53-0.12,0.7,0.1c1.26,1.67,2.96,2.97,4.9,3.75c0.26,0.1,0.38,0.39,0.28,0.65
					C342.18,647.64,342,647.76,341.8,647.76z"/>
			</g>
			<g id="XMLID_602_">
				<path class="st5" d="M337.36,650.19c-0.07,0-0.14-0.01-0.2-0.04c-0.05-0.02-4.87-2.25-4.73-4.57c0.02-0.27,0.27-0.48,0.53-0.47
					c0.28,0.02,0.49,0.25,0.47,0.53c-0.06,1.05,2.37,2.8,4.14,3.6c0.25,0.11,0.36,0.41,0.25,0.66
					C337.74,650.08,337.55,650.19,337.36,650.19z"/>
			</g>
			<g id="XMLID_600_">
				<path class="st5" d="M333.61,652.12c-1.82-0.77-4.21-1.78-5.13-4.05c-0.1-0.26,0.02-0.55,0.28-0.65
					c0.26-0.1,0.55,0.02,0.65,0.28c0.76,1.89,2.93,2.8,4.51,3.47l-0.12,0.49L333.61,652.12z"/>
			</g>
			<g id="XMLID_598_">
				<path class="st5" d="M324.71,657.25c-3.12,0-6.45-0.34-7.11-3.32c-0.06-0.27,0.11-0.54,0.38-0.59c0.27-0.06,0.54,0.11,0.6,0.38
					c0.57,2.63,4.25,2.57,7.49,2.52c0.44-0.01,0.86,0,1.29-0.01c0.28,0,0.5,0.22,0.5,0.5c0,0.28-0.22,0.5-0.5,0.5
					c-0.39-0.01-0.83,0.01-1.27,0.01C325.64,657.24,325.17,657.25,324.71,657.25z"/>
			</g>
		</g>
		<g id="XMLID_584_">
			<path id="XMLID_596_" class="st4" d="M270.49,656.82c-1.75,1.28-1.5,0.92-39.57,2.73c-7.62,0.36-7.96-3.57-4.01-6.02
				c6.01-3.74,27.71-15.75,29.09-14.94c3.9,2.29,5.88,2.67,11.99,1.82C268.99,640.27,275.74,653,270.49,656.82z"/>
			<path id="XMLID_594_" class="st5" d="M272.29,649.74c0.31,1.12,0.54,2.28,0.49,3.49c-0.05,1.18-0.4,2.48-1.32,3.41
				c-0.9,0.95-2.16,1.39-3.33,1.65c-1.24,0.25-2.34,0.31-3.51,0.45c-4.61,0.48-9.24,0.77-13.86,1.1c-4.63,0.18-9.27,0.41-13.91,0.37
				c-2.32-0.04-4.65-0.08-6.98-0.26c-1.16-0.12-2.33-0.23-3.49-0.55l-0.44-0.15c-0.15-0.06-0.31-0.18-0.44-0.27
				c-0.21-0.2-0.43-0.42-0.6-0.66c-0.36-0.49-0.58-1.12-0.48-1.71l0.1,0.01c-0.06,0.57,0.19,1.12,0.56,1.55
				c0.18,0.22,0.39,0.41,0.61,0.6c0.12,0.07,0.23,0.14,0.36,0.19l0.41,0.12c1.12,0.24,2.29,0.29,3.44,0.34
				c2.31,0.09,4.63,0.06,6.94,0.01c4.63-0.11,9.25-0.33,13.87-0.59c4.62-0.25,9.24-0.54,13.86-0.88c1.15-0.1,2.32-0.13,3.45-0.32
				c1.12-0.21,2.26-0.58,3.09-1.39c0.85-0.78,1.24-1.93,1.36-3.06c0.11-1.15-0.04-2.3-0.26-3.43L272.29,649.74z"/>
			<g id="XMLID_592_">
				<path class="st5" d="M252.27,647.66c-0.06,0-0.12-0.01-0.19-0.04c-2.12-0.85-3.96-2.26-5.33-4.08c-0.17-0.22-0.12-0.53,0.1-0.7
					c0.22-0.17,0.54-0.12,0.7,0.1c1.26,1.67,2.95,2.97,4.9,3.75c0.26,0.1,0.38,0.39,0.28,0.65
					C252.66,647.54,252.47,647.66,252.27,647.66z"/>
			</g>
			<g id="XMLID_589_">
				<path class="st5" d="M247.84,650.09c-0.07,0-0.14-0.01-0.2-0.04c-0.05-0.02-4.87-2.25-4.73-4.57c0.02-0.27,0.26-0.49,0.53-0.47
					c0.28,0.02,0.49,0.25,0.47,0.53c-0.06,1.05,2.37,2.8,4.14,3.6c0.25,0.11,0.36,0.41,0.25,0.66
					C248.21,649.98,248.03,650.09,247.84,650.09z"/>
			</g>
			<g id="XMLID_587_">
				<path class="st5" d="M244.08,652.02c-1.82-0.77-4.21-1.78-5.13-4.05c-0.1-0.26,0.02-0.55,0.28-0.65
					c0.26-0.1,0.55,0.02,0.65,0.28c0.76,1.89,2.93,2.8,4.51,3.47l-0.12,0.49L244.08,652.02z"/>
			</g>
			<g id="XMLID_585_">
				<path class="st5" d="M235.18,657.15c-3.12,0-6.45-0.34-7.11-3.32c-0.06-0.27,0.11-0.54,0.38-0.59c0.27-0.06,0.54,0.11,0.6,0.38
					c0.57,2.63,4.25,2.58,7.49,2.52c0.44-0.01,0.86-0.03,1.29-0.01c0.28,0,0.5,0.22,0.5,0.5c0,0.28-0.22,0.5-0.5,0.5
					c-0.39,0.01-0.84,0.01-1.27,0.01C236.11,657.14,235.65,657.15,235.18,657.15z"/>
			</g>
		</g>
	</g>
	<g id="XMLID_581_">
		<path class="st6" d="M271.31,634.97c0.59,0.1,1.16-0.28,1.31-0.86c22.3-87.38-0.63-46.36,32.48-180.4
			c35.39,189.44,32.8,178.02,34.2,178.04l20.69,0.31c2.17,0.03-4.15-241.71-12.42-262.67l-79.45,0.25
			c-13.35,40.62-17.21,244.9-17.5,260.85C250.61,631.73,250.05,631.49,271.31,634.97z"/>
		<path class="st7" d="M271.5,635.48c-0.09,0-0.17-0.01-0.26-0.02l-6.13-1c-15.01-2.44-15.01-2.44-14.97-3.88
			c0.4-22.55,4.27-220.75,17.52-261.09l0.11-0.34l80.15-0.26l0.13,0.32c4.93,12.5,8.72,100.8,10.11,138.18
			c2.1,56.26,3.56,123.09,2.29,124.93l-0.15,0.22l-0.31,0.02l-20.69-0.31c-0.06,0.06-0.33,0.21-0.63,0.06
			c-0.89-0.42-0.89-0.42-13.95-70.64c-4.68-25.17-11.03-59.31-19.68-105.6c-17.61,71.58-18.9,92.11-20.05,110.25
			c-0.96,15.22-1.79,28.36-11.89,67.91C272.92,634.97,272.24,635.48,271.5,635.48z M268.49,370.14
			c-13.35,41.71-17.2,251.43-17.36,260.36c0,0.17-0.01,0.27,0,0.3c0.31,0.42,4.07,1.03,14.12,2.67l6.13,1
			c0.34,0.06,0.66-0.16,0.74-0.49c10.07-39.46,10.9-52.56,11.86-67.73c1.16-18.37,2.48-39.18,20.63-112.67l0.55-2.24l0.42,2.27
			c8.86,47.44,15.34,82.29,20.1,107.87c10.37,55.73,12.65,68.02,13.38,69.79c0.07-0.02,0.15-0.03,0.23-0.03l20.35,0.31
			c0.81-4.74-0.16-61.85-2.53-125c-2.91-77.48-6.51-127.15-9.89-136.66L268.49,370.14z"/>
	</g>
	<g id="XMLID_642_">
		<g id="XMLID_628_">
			<path class="st7" d="M305.02,449.37c-0.25,0-0.47-0.19-0.5-0.44c-2.22-18.81-1.46-30.75-0.9-39.47
				c0.48-7.5,0.77-12.03-1.29-15.76c-0.13-0.24-0.05-0.55,0.2-0.68c0.24-0.13,0.55-0.05,0.68,0.2c2.21,3.99,1.91,8.62,1.42,16.3
				c-0.56,8.68-1.32,20.57,0.89,39.29c0.03,0.27-0.16,0.52-0.44,0.55C305.06,449.37,305.04,449.37,305.02,449.37z"/>
		</g>
		<g id="XMLID_629_">
			<path class="st7" d="M300.1,421.2c-0.68,0-1.32-0.13-1.91-0.64c-1.77-1.54-2.88-6.15-4.01-27.06c-0.01-0.28,0.2-0.51,0.47-0.53
				c0.27-0.03,0.51,0.2,0.53,0.47c0.97,17.95,1.93,24.85,3.67,26.36c0.53,0.46,1.14,0.43,2.16,0.34c0.75-0.06,1.6-0.14,2.58,0.06
				c0.27,0.05,0.45,0.32,0.39,0.59c-0.05,0.27-0.32,0.45-0.59,0.39c-0.84-0.17-1.58-0.1-2.3-0.04
				C300.75,421.17,300.42,421.2,300.1,421.2z"/>
		</g>
		<g id="XMLID_631_">
			<path class="st7" d="M269.52,630.64c-0.02,0-0.05,0-0.07,0c-0.27-0.04-0.46-0.29-0.43-0.56c3.24-23.56,5.95-43.54,8.27-60.57
				c11.66-85.8,13.16-96.82,20.01-116.14c0.09-0.26,0.38-0.4,0.64-0.3c0.26,0.09,0.4,0.38,0.3,0.64
				c-6.82,19.22-8.32,30.23-19.96,115.94c-2.31,17.04-5.03,37.01-8.27,60.58C269.98,630.46,269.76,630.64,269.52,630.64z"/>
		</g>
		<g id="XMLID_632_">
			<path class="st7" d="M351.07,415.75c-0.17,0-0.33-0.08-0.42-0.23c-5.42-8.48-12.44-18.82-18.32-26.98
				c-0.16-0.22-0.11-0.54,0.11-0.7c0.23-0.16,0.54-0.11,0.7,0.11c5.89,8.18,12.92,18.54,18.35,27.03c0.15,0.23,0.08,0.54-0.15,0.69
				C351.26,415.73,351.16,415.75,351.07,415.75z"/>
		</g>
	</g>
	<g id="XMLID_564_">
		<path class="st8" d="M294.22,263.22c4.77,13.24,27.77,11.41,35.24,0.52c8.95,3.1,22,10.4,26.01,13.61
			c6.79,16.93,6.19,118.79-3.92,118.36c-27.09-1.13-96.24,17.83-90.02-18.22c5.83-33.81-5.53-91.82,4.73-105.31
			C268.89,268.73,294.22,263.22,294.22,263.22z"/>
		<path class="st9" d="M293.32,400.21c-12.51,0-23.24-1.79-28.78-7.72c-3.42-3.66-4.6-8.74-3.51-15.09
			c2.62-15.17,1.77-34.91,0.95-54.01c-1.01-23.59-1.88-43.96,3.87-51.52c2.67-3.5,25.64-8.58,28.25-9.15l0.43-0.09l0.15,0.41
			c1.75,4.86,6.18,7.98,12.46,8.79c8.59,1.1,17.8-2.42,21.89-8.38l0.22-0.31l0.36,0.12c9.1,3.15,22.14,10.48,26.15,13.69l0.1,0.08
			l0.05,0.12c6.37,15.88,6.35,105.71-2.06,117.59c-0.71,1-1.5,1.51-2.34,1.46c-6.74-0.28-16.24,0.7-26.3,1.74
			C314.63,399.05,303.4,400.21,293.32,400.21z M293.91,263.8c-7.29,1.6-25.22,6.02-27.25,8.68c-5.53,7.27-4.63,28.45-3.67,50.87
			c0.82,19.15,1.66,38.95-0.97,54.22c-1.05,6.11,0.01,10.77,3.25,14.23c9.67,10.34,36.33,7.58,59.85,5.15
			c10.1-1.04,19.63-2.03,26.45-1.75c0.48,0.02,0.98-0.33,1.48-1.04c8.3-11.74,8.27-100.42,2-116.52
			c-4.02-3.17-16.49-10.16-25.4-13.32c-4.39,6.06-13.83,9.62-22.62,8.5C300.62,272.01,295.87,268.73,293.91,263.8z"/>
	</g>
	<g id="XMLID_656_">
		<path id="XMLID_538_" class="st10" d="M326.29,337.7c-6.42,0.25-41.15,0.4-41.44-6.01c-0.29-6.39-0.86-31.55,5.49-30.39
			c55.62,10.11,38.38-12.59,39.24,33.91C329.62,336.73,328,337.63,326.29,337.7z"/>
		<g id="XMLID_655_">
			<g id="XMLID_645_">
				<path class="st9" d="M287.42,319.48c-0.06,0-0.12-0.01-0.18-0.03c-0.26-0.1-0.38-0.39-0.28-0.65c0.77-1.96,2.49-2.58,4.67-3.36
					c1.71-0.62,3.84-1.38,6.19-3.03c0.77-0.54,1.54-1.16,2.27-1.75c1.93-1.55,3.93-3.16,6.4-3.79c0.27-0.07,0.54,0.09,0.61,0.36
					c0.07,0.27-0.09,0.54-0.36,0.61c-2.26,0.58-4.09,2.05-6.02,3.61c-0.75,0.6-1.53,1.23-2.32,1.79c-2.46,1.73-4.66,2.52-6.43,3.16
					c-2.09,0.75-3.47,1.25-4.08,2.78C287.81,319.36,287.62,319.48,287.42,319.48z"/>
			</g>
			<g id="XMLID_648_">
				<path class="st9" d="M294.78,324.52c-0.15,0-0.3-0.07-0.4-0.2c-0.16-0.22-0.12-0.54,0.1-0.7c3.23-2.4,6.58-4.88,10.26-6.71
					c3.98-1.99,6.13-3.61,7.86-4.91c2.29-1.72,3.8-2.86,7.61-3.17c0.28-0.02,0.52,0.18,0.54,0.46c0.02,0.28-0.18,0.52-0.46,0.54
					c-3.53,0.29-4.8,1.24-7.09,2.97c-1.76,1.33-3.95,2.98-8.01,5c-3.61,1.8-6.91,4.25-10.11,6.62
					C294.98,324.49,294.88,324.52,294.78,324.52z"/>
			</g>
			<g id="XMLID_649_">
				<path class="st9" d="M297.33,331.52c-0.07,0-0.13-0.01-0.2-0.04c-0.25-0.11-0.37-0.4-0.26-0.66c1.24-2.91,2.89-3.2,4.97-3.57
					c1.55-0.27,3.47-0.61,5.96-2.1l6.66-3.98c0.23-0.14,0.54-0.07,0.69,0.17c0.14,0.24,0.06,0.54-0.17,0.69l-6.66,3.98
					c-2.65,1.58-4.68,1.94-6.3,2.23c-2.06,0.36-3.2,0.56-4.23,2.98C297.71,331.41,297.52,331.52,297.33,331.52z"/>
			</g>
			<g id="XMLID_650_">
				<path class="st9" d="M317.56,328.21c-0.05,0-0.1-0.01-0.15-0.02c-0.26-0.08-0.41-0.36-0.33-0.63c0.55-1.75,2.35-1.97,3.94-2.16
					c0.9-0.11,1.75-0.21,2.31-0.55c0.44-0.27,0.8-0.69,1.18-1.13c0.48-0.55,0.97-1.12,1.68-1.46c0.25-0.12,0.55-0.01,0.67,0.24
					c0.12,0.25,0.01,0.55-0.24,0.67c-0.52,0.25-0.93,0.72-1.36,1.21c-0.42,0.48-0.84,0.97-1.42,1.32c-0.75,0.46-1.75,0.58-2.71,0.69
					c-1.71,0.2-2.77,0.4-3.1,1.46C317.97,328.07,317.77,328.21,317.56,328.21z"/>
			</g>
			<g id="XMLID_652_">
				<path class="st9" d="M290.25,309.77c-0.06,0-0.11-0.01-0.17-0.03c-0.26-0.09-0.4-0.38-0.3-0.64c0.73-2.06,1.43-2.21,2.51-2.28
					c0.92-0.06,2.19-0.14,4.57-2.47c0.2-0.19,0.51-0.19,0.71,0.01c0.19,0.2,0.19,0.51-0.01,0.71c-2.64,2.59-4.18,2.69-5.2,2.75
					c-0.79,0.05-1.08,0.07-1.63,1.62C290.65,309.64,290.45,309.77,290.25,309.77z"/>
			</g>
		</g>
	</g>
	<g id="XMLID_616_">
		<path id="XMLID_574_" class="st2" d="M344.42,347.99c0.42,0.8,2.04,1.31,2.52,1.19c1.01-0.25,0.62-1.99,0.44-3.76
			c-0.4-3.83-1.01-4.97-4.86-7.13c-0.55-0.31-0.77,0.02-0.68,0.6C342.04,340.3,344.4,347.95,344.42,347.99z"/>
		<path id="XMLID_573_" class="st0" d="M340.74,334.02c2.74,1.23,2.72,1.77,4.11,4.24c1.95,3.46,4.03,4.16,4.86,5.42
			c1.84,2.75-2.78,4.42-5.26-0.78c-4.61,2.38-8.13-7.59-15.23-3.12c-1.68,1.06,0.94,3.04,3.88,3.74c1.09,0.26,5.14,0.92,5.51,2.5
			c0.23,0.98-0.69,2.02-3.27,1.42c-10.16-2.38-12.48,0.2-15.15,0.61c-3.92,0.59-13.96-3.13-11.15-8.76
			c1.07-2.15,3.91-2.42,5.93-3.17C334.43,328.84,324.31,326.62,340.74,334.02z"/>
	</g>
	<g id="XMLID_565_">
		<path class="st8" d="M252.46,358.28c23.25,4.76,58.08,2.32,70.65-9.44c1.75-1.64-2.18-11.16-2.51-12.16
			c-17.9-0.19-39.52-4.24-57.32-4.45l8.64-8.34c9.26-45.11-5.93-51.28-5.93-51.28C266.26,272.18,220.26,351.68,252.46,358.28z"/>
		<path class="st9" d="M276.66,361.04c-8.52,0-16.96-0.77-24.3-2.28c-4.77-0.98-8.14-3.58-10.03-7.74
			c-9.09-20.04,18.67-70.59,22.95-78.17c-0.01-0.01,0.54-0.92,0.54-0.92l0.41,0.24c1.14,0.5,15.25,7.68,6.18,51.82l-0.03,0.15
			l-7.88,7.61c8.57,0.18,18.1,1.21,27.32,2.2c9.74,1.05,19.81,2.14,28.78,2.23l0.36,0l0.11,0.34c0.04,0.13,0.14,0.39,0.28,0.76
			c2.71,7.2,3.33,10.76,2.09,11.92C314.86,357.24,295.56,361.04,276.66,361.04z M252.56,357.79c23.38,4.79,57.97,2.14,70.21-9.31
			c0.48-0.45,0.81-2.45-2.35-10.84c-0.07-0.18-0.12-0.33-0.17-0.46c-8.93-0.12-18.89-1.19-28.53-2.23
			c-9.64-1.04-19.6-2.11-28.44-2.22l-1.22-0.01l9.4-9.08c8.14-39.82-3.02-48.95-5.28-50.35c-4.13,7.3-31.86,57.67-22.95,77.33
			C244.99,354.46,248.13,356.88,252.56,357.79L252.56,357.79z"/>
	</g>
	<g id="XMLID_630_">
		<path id="XMLID_641_" class="st0" d="M307.86,347.76c-1.23-4.41-0.73-11.55-0.52-11.47c-4.65-1.68-8.54,5.35-11.8-2.55
			c-1.27-3.42-13.74-15.57-11.89-10.45c0.69,1.9,2.74,5.27,1.69,4.42c-7.38-5.95-15.14-14.45-14.59-10.78
			c0.24,1.6,10.23,11.96,9.23,11.12c-0.23-0.2-12.08-10.67-12.38-10.68c-4.19-0.19,3.29,6.18,9.55,12.68
			c0.8,0.83-11.53-8.45-11.54-8.45c-2.85,0.85,1.11,3.41,11.26,12.44c1.37,1.22-12.16-9.17-10.48-4.17
			c12.25,11.39,20.06,14.86,22.96,15.85C290.55,346.62,307.86,347.76,307.86,347.76z"/>
		<g id="XMLID_639_">
			<path id="XMLID_640_" class="st2" d="M277.6,334.05c1.55,1.23,3.26,2.24,5.08,3.01c1,0.43-0.06,1.92-5.55-2.42
				C276.74,334.33,277.21,333.74,277.6,334.05z"/>
		</g>
		<g id="XMLID_637_">
			<path id="XMLID_638_" class="st2" d="M278.73,330.58c1.85,1.69,3.95,3.06,6.25,4.06c0.45,0.2,0.15,0.89-0.3,0.69
				C277.33,332.12,277.73,329.67,278.73,330.58z"/>
		</g>
		<g id="XMLID_635_">
			<path id="XMLID_636_" class="st2" d="M281.34,328.64c1.12,1.54,2.83,2.66,4.69,3.07c0.49,0.11,0.32,0.84-0.16,0.73
				c-2.04-0.45-3.91-1.67-5.14-3.36C280.44,328.67,281.05,328.23,281.34,328.64z"/>
		</g>
		<g id="XMLID_633_">
			<path id="XMLID_634_" class="st2" d="M285.94,328.98c-0.22-0.45,0.46-0.78,0.67-0.33c0.8,1.6,2.72,3.14,4.67,3.72
				c0.48,0.15,0.26,0.86-0.21,0.72C288.89,332.43,286.8,330.72,285.94,328.98z"/>
		</g>
	</g>
	<g id="XMLID_566_">
		<path class="st8" d="M371.61,359.26c-3.13,16.01-60.03,5.33-78.45-10.43c-1.1-0.94,5.48-13.91,6.52-13.94
			c7.01-0.19,33.17-0.61,45.51,4.81c-0.31-1.03-3.63-63.19,10.28-62.35C370.35,278.25,374.48,344.61,371.61,359.26z"/>
		<path class="st9" d="M352.41,367.71c-19.28,0-47.4-8.08-59.58-18.5c-0.39-0.33-0.49-0.98,0.26-3.1
			c0.97-2.73,5.17-11.68,6.57-11.72c9.61-0.26,32.93-0.33,44.97,4.53c-0.42-6.78-2.24-49.12,6.09-59.62
			c1.37-1.73,2.97-2.56,4.76-2.45c1.98,0.12,3.85,1.3,5.57,3.52c10.63,13.73,13.72,65.31,11.04,78.99c-0.59,3-2.93,5.24-6.96,6.64
			C361.77,367.18,357.39,367.71,352.41,367.71z M293.54,348.5c14.85,12.64,55.44,22.08,71.28,16.56c3.67-1.28,5.79-3.26,6.31-5.89
			l0.49,0.1l-0.49-0.1c2.58-13.19-0.6-64.94-10.85-78.19c-1.53-1.98-3.16-3.03-4.84-3.13c-1.36-0.08-2.56,0.5-3.67,1.77
			c-8.72,10.01-6.47,58.04-6.09,59.96l0.19,0.94l-0.87-0.36c-11.59-5.08-35.41-5.03-45.21-4.77
			C298.41,336.37,293.27,347.16,293.54,348.5z"/>
	</g>
	<g id="XMLID_719_">
		<g id="XMLID_743_">
			<path id="XMLID_760_" class="st11" d="M300.75,193.83c0.33-1.58,0.19-3.27-0.4-4.77c-0.25-0.63,0.7-1.01,0.95-0.37
				c0.66,1.68,0.82,3.58,0.45,5.35C301.62,194.7,300.62,194.49,300.75,193.83z"/>
		</g>
		<g id="XMLID_741_">
			<path id="XMLID_759_" class="st11" d="M308.39,192.93c-1.74-8.02,1.04-7.13,0.76-6.12c-0.54,1.96-0.16,4.07,0.24,5.9
				c0.25,1.16,2.39-5.9,3.47-5.39c0.91,0.43-0.56,1.71-2.24,5.81C310.18,194.19,308.63,194.05,308.39,192.93z"/>
		</g>
		<g id="XMLID_739_">
			<path id="XMLID_756_" class="st11" d="M325.17,196.74c2.2-0.86,3.83-3.02,4.05-5.37c0.06-0.68,1.08-0.58,1.02,0.1
				c-0.26,2.73-2.15,5.24-4.7,6.23C324.91,197.94,324.54,196.98,325.17,196.74z"/>
		</g>
		<g id="XMLID_732_">
			<path id="XMLID_755_" class="st11" d="M318.42,194.71c-1.6-6.79,2.08-6.36,1.32-5.12c-1.1,1.79-0.85,2.64-0.32,4.88
				C319.57,195.14,318.58,195.37,318.42,194.71z"/>
		</g>
		<g id="XMLID_730_">
			<path id="XMLID_754_" class="st11" d="M327.73,209.02c1.86-1.24,3.43-4.02,3.24-5.72c-0.08-0.67,0.94-0.8,1.02-0.12
				c0.24,2.09-1.48,5.22-3.69,6.69C327.73,210.25,327.16,209.4,327.73,209.02z"/>
		</g>
		<g id="XMLID_728_">
			<path id="XMLID_753_" class="st11" d="M291,206.57c-1.62-1.96-2.32-5.76-1.04-5.51c0.28,0.05,0.46,0.32,0.41,0.6
				c-0.33,1.73,1.39,4.9,2.31,4.9C293.83,206.55,292.93,208.89,291,206.57z"/>
		</g>
		<g id="XMLID_726_">
			<path id="XMLID_752_" class="st11" d="M310.62,204.59c0.13,0.66-0.87,0.86-1,0.2c-0.36-1.82-0.83-3.15-1.22-4.09
				c-0.78,3.22,0.34,4.37-0.63,4.51C305.88,205.48,307.98,191.4,310.62,204.59z"/>
		</g>
		<g id="XMLID_722_">
			<path id="XMLID_718_" class="st11" d="M287.62,196.6c2.8-4.23,5.96-0.77,8.17-7.93c0.2-0.65,1.18-0.34,0.98,0.3
				c-2.35,7.6-5.85,4.5-8.3,8.2C288.1,197.73,287.25,197.17,287.62,196.6z"/>
		</g>
	</g>
</g>
</svg>
