<?xml version="1.0" encoding="utf-8"?>
<!-- Generator: Adobe Illustrator 25.3.0, SVG Export Plug-In . SVG Version: 6.00 Build 0)  -->
<svg version="1.1" id="Layer_1" xmlns="http://www.w3.org/2000/svg" xmlns:xlink="http://www.w3.org/1999/xlink" x="0px" y="0px"
	 viewBox="0 0 595.28 841.89" style="enable-background:new 0 0 595.28 841.89;" xml:space="preserve">
<style type="text/css">
	.st0{fill:#30333E;}
	.st1{fill:#F39A8E;}
	.st2{fill:#353B49;}
	.st3{fill:#392924;}
	.st4{fill:#353B4A;}
	.st5{fill:#EF7A5D;}
	.st6{fill:#F3998B;}
	.st7{fill:#FFFFFC;}
	.st8{fill:#F2E8DE;}
	.st9{fill:#F7BB7E;}
	.st10{fill:#CF8C37;}
</style>
<g id="XMLID_198_">
	<path id="XMLID_859_" class="st0" d="M268.22,234.47c-8.1,10.21-11.16,15.82-8.43,21.93c2.76,6.18,76.29,15.89,69.75-3.18
		c-1.42-4.16-5.08-7.57-5.33-10.67c-0.16-2.03,1.97-3.77,1.79-5.79c-0.19-2.23-4.77-3.85-6.43-5.42c-2.28-2.15-1.06-4.98-2.57-7.65
		c-2.36-4.18-1.68-6.99-2.24-8.2c-7.05-15.13-38.5-10.61-44.01-1.15C267.21,220.41,273.81,227.43,268.22,234.47z"/>
	<path id="XMLID_279_" class="st1" d="M325.81,283.04c-13.46-9.45-25.99-9.23-20.87-33.75l-23.17-1.41
		c-0.94,18.2,0.28,19.49-7.54,26.21c-1.72,1.48-12.7,7.61-12.7,7.61C278.95,296.79,310.79,295.55,325.81,283.04z"/>
	<path id="XMLID_277_" class="st1" d="M272.29,215.35c-5.95,35.77,24.27,57.05,36.32,28.62
		C330.35,192.67,277.13,186.23,272.29,215.35z"/>
	<path id="XMLID_823_" class="st0" d="M294.85,204.27c15,2.64,15.73,22.63,17.09,30.26c1.42-5.88,10.5-12.8,6.03-22.57
		c-3.74-8.18-7.01-22.66-23.4-20.39c-9.98,1.38-20.75,6.22-22.52,15.5c-1.5,7.85-1.95,19.37,0.58,27.75
		c1.4-6.53,0.28-11.36,3.27-17.31C279.63,210.07,287.15,202.92,294.85,204.27z"/>
	<g id="XMLID_390_">
		<g id="XMLID_813_">
			<path id="XMLID_435_" class="st2" d="M282.56,196.82c0.19-0.6,1.1-0.32,0.91,0.28c-0.88,2.85-0.48,6.06,1.08,8.6
				c0.14,0.22,0.07,0.52-0.16,0.66C283.59,206.86,280.99,201.9,282.56,196.82z"/>
		</g>
		<g id="XMLID_811_">
			<path id="XMLID_434_" class="st2" d="M305.58,208.56c2.49-0.92,4.31-3.41,4.42-6.06c0.03-0.63,0.98-0.59,0.95,0.04
				c-0.13,3.02-2.2,5.86-5.04,6.91C305.31,209.68,304.98,208.78,305.58,208.56z"/>
		</g>
		<g id="XMLID_809_">
			<path id="XMLID_433_" class="st2" d="M310.36,215.54c1.15-0.01,2.26-0.84,2.58-1.94c0.18-0.6,1.1-0.34,0.92,0.27
				c-0.45,1.51-1.92,2.62-3.49,2.63C309.73,216.5,309.73,215.55,310.36,215.54z"/>
		</g>
		<g id="XMLID_807_">
			<path id="XMLID_432_" class="st2" d="M292,202.23c-2.25-3.91,0.93-8.99,1.89-7.96c0.18,0.19,0.17,0.49-0.02,0.68
				c-1.81,1.7-2.27,4.69-1.05,6.81C293.14,202.3,292.31,202.78,292,202.23z"/>
		</g>
		<g id="XMLID_805_">
			<path id="XMLID_431_" class="st2" d="M300.02,204.33c0.91-2.16,1.73-4.66,0.87-6.8c-0.61-1.52,3.35-0.75,0.01,7.17
				C300.65,205.28,299.77,204.91,300.02,204.33z"/>
		</g>
		<g id="XMLID_803_">
			<path id="XMLID_430_" class="st2" d="M277.25,212.27c-3.07-3.59-1.79-7.45-0.76-6.93c0.23,0.12,0.33,0.41,0.21,0.64
				c-0.84,1.62-0.36,3.74,1.28,5.66C278.38,212.13,277.65,212.75,277.25,212.27z"/>
		</g>
	</g>
	<g id="XMLID_274_">
		<path id="XMLID_275_" class="st1" d="M314.14,227.93c-3.48-1.17-3.99,6.2-4.13,9.86C309.72,245,319.63,229.77,314.14,227.93z"/>
	</g>
	<g id="XMLID_255_">
		<path id="XMLID_273_" class="st1" d="M270.39,225.9c3.56-0.9,3.5,6.48,3.37,10.14C273.51,243.27,264.78,227.32,270.39,225.9z"/>
	</g>
	<g id="XMLID_166_">
		<path id="XMLID_254_" class="st3" d="M281.62,229.96c-1.22-0.05-2-4.72,0.96-4.61C284.16,225.42,283.61,230.04,281.62,229.96z"/>
		<path id="XMLID_253_" class="st3" d="M302.53,230.76c1.22,0.05,2.35-4.56-0.61-4.67C300.34,226.03,300.53,230.68,302.53,230.76z"
			/>
		<path id="XMLID_252_" class="st4" d="M284.34,219.77c1.93,0.36,1.65,1.91,0.17,2.11c-1.98,0.27-2.51-1.09-6.6,0.45
			C273.43,224.01,278.3,218.65,284.34,219.77z"/>
		<path id="XMLID_251_" class="st4" d="M300.44,220.57c-1.97,0-1.97,1.57-0.56,2.04c1.9,0.63,2.67-0.61,6.41,1.65
			C310.4,226.74,306.59,220.58,300.44,220.57z"/>
		<path id="XMLID_248_" class="st5" d="M289.27,237.78c4.13,1.87,3.92-0.14,2.67-0.1c-4.15,0.13,0.06-1.51,0.45-8.38
			c0.04-0.72-0.8-0.76-0.91-0.17c-0.08,0.41-0.18,1.92-0.29,2.34C289.83,236.79,287.95,237.19,289.27,237.78z"/>
		<path id="XMLID_230_" class="st5" d="M297.52,244.18c0.23-0.08,0.42,0.19,0.27,0.38c-8.47,10.39-13.68-1.07-12.13-0.46
			C288.11,245.06,292.59,245.79,297.52,244.18z"/>
	</g>
	<g id="XMLID_164_">
		<path id="XMLID_165_" class="st5" d="M271.01,229.54c0.12-0.33,0.62-0.15,0.5,0.17c-0.7,2-0.13,3.22,0.69,3.71
			c0.13,0.08,0.17,0.24,0.09,0.36C271.79,234.62,270.01,232.41,271.01,229.54z"/>
	</g>
	<g id="XMLID_160_">
		<path id="XMLID_162_" class="st5" d="M312.54,235.34c0.8-0.86,0.71-2.25,0.57-3.49c-0.04-0.35,0.49-0.41,0.53-0.06
			C314.17,236.44,311.8,236.13,312.54,235.34z"/>
	</g>
	<g id="XMLID_145_">
		<path id="XMLID_159_" class="st5" d="M283.04,252.99c7.85,7,18.33,3.08,20.84-1.63c0.99-1.84,0.54,4.15-8.34,5.73
			C285.74,258.84,280.78,250.97,283.04,252.99z"/>
	</g>
	<g id="XMLID_312_">
		<g id="XMLID_311_">
			<path id="XMLID_313_" class="st5" d="M221.68,445.31c1.7-0.31,1.73,2.85-0.49,2.44c-0.73-0.13-1.31-0.75-1.55-1.45
				c-1.17,1.17,1.08,3.24,0.07,4.5c-1.91,2.37-13.16-7.89-6.87-14.41c1.35-1.39,2,0.39,2.87,1.43
				C221.53,444.8,228.62,442.93,221.68,445.31z"/>
		</g>
		<path id="XMLID_294_" class="st6" d="M230.25,427.98c29.85-66.28,30.62-80.92,30.57-109.71c-5.57-0.88-11.07-2.65-16.61-3.43
			c-2.84,7.89-4.35,34.06-4.18,35.05c-2.28,20.49-14.3,73.66-14.3,73.66c-2.06,0.44-5.33,2.88-14.52,8.44
			c-1.44,0.87-1.59,1.24-1.98,2.92c-1.34,5.83-3.44,5.13-1.43,9.41c3.56,7.56,7.3,11.01,7.92,8.29c0.68-3.01-8.94-9.86-0.99-16.24
			c5.64-4.53,7.75,3.06,5.22,5.89c-0.69,0.77-3.09,2.18-2.63,5.36c8.31-1.89,8.42-9.82,10.47-13.9
			C228.25,432.75,230.02,430.32,230.25,427.98z"/>
	</g>
	<g id="XMLID_293_">
		<path class="st7" d="M259.95,279.68c-13.41,2.84-12.18,2.12-24.73,49.08c-1.01,3.79,10.28,9.72,26.75,9.46
			c10.2-22.29,19.81-39.68,13.98-51.81C273.84,282.02,262.6,279.12,259.95,279.68z"/>
		<path class="st8" d="M260.94,338.73c-12.8,0-22.61-3.74-25.43-7.36c-0.73-0.94-1-1.89-0.77-2.74c0.95-3.56,1.83-6.85,2.63-9.89
			c9.79-36.87,9.79-36.87,22.07-39.46l0.41-0.09c3-0.63,14.35,2.43,16.55,7c5.26,10.95-1.69,25.86-10.5,44.74
			c-1.13,2.43-2.3,4.93-3.47,7.49l-0.13,0.29l-0.32,0C261.63,338.72,261.28,338.73,260.94,338.73z M260.05,280.17l-0.41,0.09
			c-11.68,2.47-11.68,2.47-21.31,38.74c-0.81,3.04-1.68,6.33-2.63,9.89c-0.15,0.55,0.05,1.18,0.59,1.87
			c2.34,3,11.71,7.12,25.35,6.97c1.13-2.46,2.25-4.87,3.34-7.21c8.7-18.64,15.56-33.37,10.51-43.89
			C273.56,282.6,262.7,279.61,260.05,280.17L260.05,280.17z"/>
	</g>
	<g id="XMLID_316_">
		<path id="XMLID_314_" class="st5" d="M375.09,432.37c3.55,1.3,5.36,2.53,7.94,5.3c3.47,3.73,5.51,1.82,4.35,0.7
			c-6.97-6.78-14.45-9.51-15.23-8.24C373.05,430.97,374.04,431.73,375.09,432.37L375.09,432.37z"/>
		<g id="XMLID_307_">
			<path id="XMLID_310_" class="st6" d="M363.5,424.58c20.1,3.42,25.76,11.86,25.53,12.77c-0.61,2.4-5.22-1.57-10.95-4
				c-10.09-4.29-14.04,0.66-9.69,2.36c1.53,0.6,4.88,0.29,5.67,3.62c0.14,0.6-0.01,2.06-1.36,1.37c-3.04-1.55-2.88,1.06-11.9-5.6
				c-3.17-2.34-8.09-3.75-8.86-6.71c-3.69-11.5-22.85-69.52-29.71-106.46c-1.44-7.74,19.96-12.68,19.63-14.21
				c4.83,22.5,18.06,115.95,18.06,115.95S363.19,424.53,363.5,424.58z"/>
		</g>
	</g>
	<g id="XMLID_292_">
		<path class="st7" d="M319.63,277.3c13.66,0.86,13.25-0.58,32.4,43.87c1.86,4.33-14.54,12.37-25.93,14.35
			c-13.32-20.58-25.34-36.39-21.33-49.24C306.23,281.63,316.93,277.13,319.63,277.3z"/>
		<path class="st8" d="M325.87,336.06l-0.18-0.28c-1.53-2.37-3.05-4.67-4.52-6.91c-11.45-17.41-20.49-31.15-16.87-42.75
			c1.52-4.85,12.28-9.52,15.36-9.33l1.25,0.08c12.79,0.76,13.08,1.18,31.58,44.09c0.32,0.73,0.23,1.56-0.25,2.45
			c-2.6,4.8-16.5,10.93-26.05,12.59L325.87,336.06z M319.44,277.79c-2.92,0-12.88,4.44-14.19,8.63
			c-3.48,11.14,5.44,24.72,16.75,41.9c1.42,2.16,2.87,4.37,4.34,6.64c10.04-1.82,22.81-7.95,25.02-12.02
			c0.33-0.62,0.4-1.13,0.21-1.58c-18.43-42.75-18.66-42.77-30.72-43.49l-1.26-0.08C319.55,277.8,319.5,277.79,319.44,277.79z"/>
	</g>
	<g id="XMLID_290_">
		<path class="st7" d="M277.35,271.63c3.74,7.85,25.04,11.76,29.45-1.7c13.91,4.39,19.02,8.02,19.02,8.02
			c1.46,19.84,15.58,76.3,0.99,86.36c-26.01,3.45-44.98,4.97-66.63,0.38c-11.26-4.98-4.04-83.22-3.85-84.22
			C256.32,280.47,263.9,278.13,277.35,271.63z"/>
		<path class="st8" d="M288.01,368.06c-9.53,0-18.44-0.87-27.93-2.88l-0.1-0.03c-11.79-5.21-4.29-84.01-4.14-84.77l0.06-0.29
			l0.29-0.09c0.08-0.02,7.7-2.41,20.96-8.82l0.45-0.22l0.22,0.45c1.98,4.15,9.46,7.27,16.33,6.83c3.59-0.23,9.95-1.64,12.19-8.47
			l0.15-0.47l0.47,0.15c13.83,4.36,18.95,7.94,19.16,8.09l0.19,0.14l0.02,0.23c0.35,4.8,1.45,11.72,2.71,19.73
			c3.95,25.02,9.37,59.28-1.94,67.07l-0.1,0.07l-0.12,0.02C311.65,366.82,299.38,368.06,288.01,368.06z M260.33,364.21
			c20.62,4.36,38.52,3.29,66.29-0.38c10.66-7.57,5.32-41.34,1.42-66.03c-1.25-7.9-2.33-14.74-2.7-19.57
			c-1.03-0.67-6.34-3.89-18.22-7.68c-1.88,5.13-6.56,8.28-12.91,8.69c-7.12,0.46-14.62-2.63-17.06-6.96
			c-11.6,5.58-18.84,8.06-20.36,8.57C255.94,287.21,250.03,359.44,260.33,364.21z"/>
	</g>
	<path id="XMLID_411_" class="st6" d="M268.18,630.85c2.67,7.73,12.15,7.68,13.5-1.16l-0.11-21.38l-16.86-0.11L268.18,630.85z"/>
	<path id="XMLID_408_" class="st6" d="M314.06,630.81c2.46,7.8,11.93,8.01,13.52-0.79l0.47-21.37l-16.85-0.57L314.06,630.81z"/>
	<g id="XMLID_402_">
		<g id="XMLID_407_">
			<path class="st8" d="M242.54,652.23c-0.5-0.79-0.6-1.8-0.27-2.67c0.97-2.54,26.9-19.38,25.91-18.71
				c4.77,2.96,11.12,1.42,13.5-1.16c1.66,3.41,6.47,15.68,1.73,16.95C280.57,647.4,244.67,655.55,242.54,652.23z"/>
			<path class="st7" d="M246.33,653.46c-2.24,0-3.78-0.28-4.21-0.96c-0.59-0.92-0.71-2.08-0.31-3.12
				c0.92-2.42,20.92-15.59,25.5-18.49l-0.05-0.03l0.64-0.43l0.04,0.06c0.17-0.11,0.27-0.16,0.29-0.16l0.36,0.02l0.06,0.2
				c4.58,2.69,10.53,1.12,12.66-1.2l0.5-0.54l0.32,0.66c1.43,2.92,5.1,12.12,3.34,15.97c-0.4,0.88-1.05,1.45-1.94,1.68
				C283.21,647.21,256.91,653.46,246.33,653.46z M242.96,651.96c1.74,2.71,34.42-4.23,40.31-5.8c0.59-0.16,1.01-0.53,1.29-1.13
				c1.38-3.03-1.34-10.78-3.04-14.5c-2.72,2.32-8.6,3.67-13.34,0.91c-3.26,2.06-24.65,16.23-25.44,18.3
				C242.46,650.47,242.55,651.32,242.96,651.96L242.96,651.96z"/>
		</g>
		<g id="XMLID_403_">
			<g id="XMLID_406_">
				<path class="st7" d="M256.29,646c-1.04,0-2.23-0.34-3.16-0.78c-0.83-0.39-1.87-1.07-2.13-2.05c-0.14-0.53,0.17-1.08,0.7-1.23
					c0.52-0.15,1.08,0.17,1.23,0.7c0.05,0.13,0.44,0.52,1.33,0.89c1.16,0.48,2.21,0.54,2.52,0.4c0.51-0.22,1.1,0,1.32,0.51
					c0.22,0.5,0,1.1-0.51,1.32C257.21,645.93,256.77,646,256.29,646z"/>
			</g>
			<g id="XMLID_405_">
				<path class="st7" d="M261.6,642.23c-2.07,0-4.1-1.09-5.21-2.85c-0.29-0.47-0.16-1.08,0.31-1.38c0.47-0.29,1.08-0.15,1.38,0.31
					c0.82,1.3,2.46,2.07,3.99,1.89c0.54-0.08,1.05,0.32,1.12,0.87c0.07,0.55-0.32,1.05-0.87,1.12
					C262.08,642.22,261.84,642.23,261.6,642.23z"/>
			</g>
			<g id="XMLID_404_">
				<path class="st7" d="M266.27,638.58c-1.86,0-3.72-0.7-5.1-1.95c-0.41-0.37-0.44-1-0.07-1.41c0.37-0.41,1-0.44,1.41-0.07
					c1.16,1.05,2.77,1.57,4.33,1.41c0.55-0.06,1.04,0.34,1.1,0.89c0.06,0.55-0.34,1.04-0.89,1.1
					C266.8,638.57,266.53,638.58,266.27,638.58z"/>
			</g>
		</g>
	</g>
	<g id="XMLID_389_">
		<g id="XMLID_401_">
			<path class="st8" d="M287.85,651.48c-1.44-2.38,0.78-4.44,3.1-5.93c10.82-6.96,23.11-14.74,23.11-14.74
				c4.69,3.09,11.08,1.72,13.52-0.79c1.38,3.04,6.18,15.83,1.19,17.01C325.9,647.7,289.91,654.89,287.85,651.48z"/>
			<path class="st7" d="M292.5,652.84c-2.72,0-4.6-0.32-5.07-1.1c-1.3-2.16-0.21-4.38,3.26-6.61c10.69-6.89,22.99-14.67,23.11-14.74
				l0.27-0.17l0.27,0.18c4.53,2.99,10.66,1.57,12.89-0.73l0.51-0.52l0.3,0.67c1.34,2.95,4.76,12.23,2.9,16.03
				c-0.44,0.89-1.13,1.46-2.05,1.68C328.58,647.58,303.58,652.84,292.5,652.84z M314.06,631.4c-1.86,1.18-13.02,8.25-22.84,14.57
				c-3.95,2.54-3.57,4.22-2.94,5.25c1.68,2.79,34.23-3.23,40.38-4.69c0.63-0.15,1.08-0.52,1.38-1.14c1.48-3.02-0.99-10.7-2.63-14.54
				C324.63,633.09,318.73,634.28,314.06,631.4z"/>
		</g>
		<g id="XMLID_392_">
			<g id="XMLID_400_">
				<path class="st7" d="M301.13,646.69c-0.05,0-0.1,0-0.15-0.01c-1.18-0.18-4.76-0.72-5.01-3.72c-0.05-0.55,0.36-1.03,0.91-1.08
					c0.55-0.05,1.03,0.36,1.08,0.91c0.06,0.66,0.48,1.48,3.32,1.91c0.55,0.08,0.92,0.59,0.84,1.14
					C302.04,646.34,301.62,646.69,301.13,646.69z"/>
			</g>
			<g id="XMLID_398_">
				<path class="st7" d="M306.25,642.84c-2.11-0.09-4.13-1.2-5.3-2.91c-0.31-0.46-0.2-1.08,0.26-1.39c0.45-0.31,1.08-0.2,1.39,0.26
					c0.83,1.2,2.24,1.98,3.7,2.04c0.55,0.02,0.98,0.49,0.96,1.04C307.22,642.42,306.78,642.84,306.25,642.84z"/>
			</g>
			<g id="XMLID_394_">
				<path class="st7" d="M310.58,639.38c-1.67,0-3.69-1.07-4.43-2.07c-0.33-0.44-0.24-1.07,0.21-1.4c0.44-0.33,1.07-0.24,1.4,0.21
					c0.5,0.67,2.41,1.49,3.17,1.21c0.52-0.19,1.09,0.08,1.28,0.6c0.19,0.52-0.08,1.09-0.6,1.28
					C311.3,639.33,310.95,639.38,310.58,639.38z"/>
			</g>
		</g>
	</g>
	<g id="XMLID_323_">
		<path class="st9" d="M289.34,620.08c-0.03,1.18-0.99,2.12-2.17,2.12c-28.57,0.14-29.42,0.93-29.53-1.96
			c-8.07-205.88-12.72-223.08,2.54-255.55c20,0.13,46.41,0.37,66.63-0.38c7.65,14.04,13.29,38.2,13.12,48.54l-5.28,206.92
			c-0.03,1.18-0.99,2.12-2.16,2.13c-28.38,0.29-29.27,1.07-29.39-1.82l-7.87-191.66C294.51,422.66,289.32,621.1,289.34,620.08z"/>
		<path class="st10" d="M265.16,622.91c-7.56,0-7.94-0.45-8.02-2.65c-1.53-39.01-2.96-71.77-4.11-98.09
			c-4.96-113.77-5.73-131.26,6.69-157.69l0.14-0.29l4.35,0.03c19.47,0.13,43.7,0.29,62.58-0.41l0.31-0.01l0.15,0.27
			c7.52,13.79,13.36,37.97,13.18,48.79l-5.28,206.92c-0.04,1.45-1.21,2.6-2.66,2.62c-5.98,0.06-10.73,0.14-14.52,0.21
			c-14.68,0.25-15.25,0.26-15.37-2.51l-7.46-181.75c-1.53,39.05-5.25,180.12-5.28,181.75c0,0-0.06,0.48-0.06,0.48
			c-0.25,1.22-1.32,2.12-2.61,2.13c-6.03,0.03-10.82,0.09-14.63,0.14C269.53,622.88,267.1,622.91,265.16,622.91z M260.49,365.19
			c-12.17,26.05-11.4,43.79-6.46,156.93c1.15,26.32,2.58,59.09,4.11,98.1c0.07,1.74,0.47,1.79,14.4,1.62
			c3.81-0.05,8.61-0.11,14.64-0.14c0.91,0,1.65-0.72,1.68-1.64c0.04-1.61,1.3-49.63,2.61-95.88c0.79-27.83,1.45-50,1.97-65.92
			c0.99-30.41,1.07-30.42,1.72-30.47c0.08-0.01,0.5-0.02,0.57,0.56l7.87,191.7c0.07,1.75,0.47,1.79,14.35,1.55
			c3.79-0.07,8.55-0.15,14.53-0.21c0.91-0.01,1.64-0.73,1.67-1.64l5.28-206.92c0.18-10.63-5.53-34.32-12.91-48.02
			c-18.86,0.69-42.94,0.53-62.31,0.4L260.49,365.19z"/>
	</g>
	<g id="XMLID_322_">
		<path class="st9" d="M326.8,364.31c-19.51,3.99-44.45,4.15-66.63,0.38c-10.79-8.48,9.17-31.12,10.54-50.62
			c0.04-0.53,0.47-0.94,1-0.94c45.84,0,44.07-0.44,44.15,0.96C317.05,334.33,339.27,355.09,326.8,364.31z"/>
		<path class="st10" d="M293.29,367.91c-11.1,0-22.47-0.91-33.2-2.73l-0.12-0.02l-0.1-0.08c-6.65-5.23-2.32-15.2,2.69-26.74
			c3.33-7.67,7.1-16.37,7.66-24.31c0.06-0.8,0.7-1.41,1.5-1.41c11.01,0,19.28-0.03,25.48-0.04c19.16-0.06,19.15-0.06,19.17,1.35
			l0,0.12c0.49,8.34,4.67,16.93,8.36,24.52c5.35,11,9.98,20.51,2.38,26.13l-0.2,0.09C316.75,366.87,305.17,367.91,293.29,367.91z
			 M260.39,364.22c22.02,3.72,46.75,3.58,66.21-0.38c6.81-5.14,2.37-14.27-2.77-24.82c-3.73-7.67-7.96-16.36-8.46-24.89l0-0.17
			c0-0.05,0-0.09,0-0.13c-0.45-0.29-4.91-0.27-18.16-0.23c-6.2,0.02-14.47,0.04-25.48,0.04c-0.26,0-0.48,0.21-0.5,0.48
			c-0.57,8.11-4.38,16.89-7.74,24.64C258.65,349.84,254.49,359.44,260.39,364.22z"/>
	</g>
	<g id="XMLID_353_">
		<path class="st10" d="M327.98,366.55c-23.58,2.67-56.32,2.76-68.8,0.09l0.99-1.95c-0.45-0.18-1.55-1.02-2.02-1.93
			c24.28,0.99,55.19,0.33,71.03-0.92c-1.06,1.46-1.81,2.38-2.38,2.46L327.98,366.55z"/>
		<path class="st10" d="M288.85,369.09c-12.54,0-23.66-0.65-29.78-1.96l-0.64-0.14l1.07-2.1c-0.59-0.39-1.39-1.11-1.8-1.9
			l-0.39-0.76l0.86,0.04c24.44,0.99,55.27,0.31,70.97-0.92l1.08-0.08l-0.63,0.88c-0.91,1.25-1.54,2.03-2.1,2.41l1.27,2.42
			l-0.73,0.08C316.04,368.4,301.7,369.09,288.85,369.09z M259.93,366.28c12.63,2.47,44.11,2.4,67.27-0.15l-1.17-2.22l0.71-0.1
			c0.3-0.04,0.89-0.73,1.4-1.39c-15.8,1.16-45.22,1.79-68.96,0.88c0.45,0.47,0.97,0.84,1.19,0.92l0.5,0.2L259.93,366.28z"/>
	</g>
	<g id="XMLID_300_">
		<g id="XMLID_358_">
			<path class="st10" d="M274.5,315.03l-1.66,0.25c-0.39-11.89-4.81-25.54-5.73-38.97l1.39-0.59
				C269.68,289.11,274.58,307.58,274.5,315.03z"/>
			<path class="st10" d="M272.35,315.85l-0.02-0.56c-0.2-6.1-1.46-12.6-2.78-19.48c-1.23-6.36-2.5-12.95-2.95-19.47l-0.02-0.35
				l2.35-1l0.06,0.69c0.58,6.5,2.06,14.36,3.37,21.29c1.44,7.63,2.68,14.22,2.64,18.08l0,0.43L272.35,315.85z M267.63,276.62
				c0.47,6.35,1.71,12.77,2.91,18.99c1.3,6.71,2.52,13.06,2.78,19.08l0.69-0.1c-0.05-3.84-1.3-10.47-2.62-17.46
				c-1.27-6.71-2.7-14.29-3.32-20.7L267.63,276.62z"/>
		</g>
		<g id="XMLID_362_">
			<path class="st10" d="M311.83,315.51l1.66,0.25c0.39-11.89,4.9-27.76,5.83-41.19l-1.21-0.53
				C316.92,287.43,311.75,308.07,311.83,315.51z"/>
			<path class="st10" d="M313.97,316.33l-2.64-0.39l0-0.43c-0.04-3.89,1.34-11.39,2.81-19.33c1.36-7.37,2.9-15.73,3.48-22.19
				l0.06-0.7l2.17,0.96l-0.02,0.35c-0.45,6.48-1.73,13.56-2.97,20.4c-1.37,7.52-2.65,14.63-2.86,20.77L313.97,316.33z
				 M312.33,315.08l0.68,0.1c0.26-6.08,1.52-13.02,2.85-20.36c1.21-6.69,2.47-13.6,2.93-19.94l-0.25-0.11
				c-0.62,6.41-2.11,14.46-3.43,21.59C313.72,303.97,312.39,311.17,312.33,315.08z"/>
		</g>
	</g>
	<g id="XMLID_416_">
		<path id="XMLID_364_" class="st7" d="M275.68,315.27c1.66-3.26-3.12-3.09-3.92-1.61C270.63,315.77,274.15,318.27,275.68,315.27z"
			/>
		<path id="XMLID_370_" class="st7" d="M310.42,315.27c-1.66-3.26,3.12-3.09,3.92-1.61C315.47,315.77,311.95,318.27,310.42,315.27z"
			/>
	</g>
	<g id="XMLID_418_">
		<g id="XMLID_371_">
			<path class="st10" d="M292.26,348.25c-3,0-6-0.05-8.98-0.16c-1.05-0.04-1.47-0.5-1.46-1.61c0.07-6.38,0.62-9.61,0.64-9.74
				l0.05-0.29l0.28-0.1c4.84-1.66,19.25-1.73,20.78-0.74c0.25,0.16,0.32,0.36,0.33,0.5c0.01,0.09,0.79,9.15-1.17,11.4
				c-0.39,0.45-0.81,0.55-1.1,0.56C298.52,348.2,295.39,348.25,292.26,348.25z M283.4,337.21c-0.13,0.93-0.53,4.07-0.58,9.28
				c-0.01,0.58,0.02,0.58,0.5,0.6c6.07,0.21,12.22,0.21,18.28-0.01c0.08,0,0.22-0.03,0.38-0.22c1.3-1.49,1.16-8.07,0.95-10.46
				C301.25,335.74,288.29,335.71,283.4,337.21z"/>
		</g>
		<g id="XMLID_372_">
			<path class="st7" d="M282.94,336.34l-0.05-2.69c-0.01-0.57,20.53-1.01,20.52-0.01l-0.01,2.05
				C303.4,336.23,282.96,337.34,282.94,336.34z"/>
			<path class="st7" d="M287.06,337.25c-4.38,0-4.61-0.33-4.62-0.89l-0.06-2.98l0.29-0.19c1.04-0.62,19.24-1.04,20.9-0.08
				c0.31,0.18,0.34,0.44,0.34,0.55l-0.01,2.05c0,0.54,0,0.74-6.05,1.14c-3.45,0.23-7.33,0.38-10.14,0.4
				C287.48,337.25,287.27,337.25,287.06,337.25z M283.44,336.07c2.13,0.56,17.12-0.2,19.47-0.71l0.01-1.45
				c-2.08-0.59-17.16-0.32-19.52,0.09L283.44,336.07z"/>
		</g>
	</g>
	<g id="XMLID_386_">
		<g id="XMLID_409_">
			<path id="XMLID_425_" class="st2" d="M271.2,215.66c0.05-0.63,1-0.56,0.95,0.07c-0.13,1.71,0.15,3.46,0.79,5.05
				C273.39,221.89,270.72,222.16,271.2,215.66z"/>
		</g>
		<g id="XMLID_410_">
			<path id="XMLID_424_" class="st2" d="M312.86,223.13c1.69-1.32,2.89-3.28,3.3-5.38c0.12-0.62,1.06-0.44,0.94,0.18
				c-0.45,2.32-1.78,4.49-3.65,5.95C312.95,224.27,312.36,223.52,312.86,223.13z"/>
		</g>
		<g id="XMLID_417_">
			<path id="XMLID_376_" class="st2" d="M313.58,255.88c-6.9-10.23-2.47-12.06-2.75-10.31c-0.59,3.71,1.81,7.2,3.54,9.78
				C314.73,255.87,313.94,256.4,313.58,255.88z"/>
		</g>
		<g id="XMLID_420_">
			<path id="XMLID_375_" class="st2" d="M324.24,255.63c-1.88-3.91-3.89-4.83-5.04-6.96c-2.71-5.01,2.36-7.71,2.12-10.98
				c-0.06-0.87-0.69-1.86-1.6-1.96c-0.64-0.07-0.53-1.02,0.09-0.95c1.35,0.14,4.03,1.9,1.01,7.04c-3.96,6.75,1.09,6.76,4.28,13.39
				c0.11,0.24,0.01,0.52-0.22,0.64C324.64,255.96,324.35,255.87,324.24,255.63z"/>
		</g>
		<g id="XMLID_421_">
			<path id="XMLID_281_" class="st2" d="M316.76,251.51c-0.32-0.54,0.49-1.03,0.82-0.49c3.41,5.68,4.12,6.28,3.45,6.68
				C320.36,258.1,320.17,257.19,316.76,251.51z"/>
		</g>
		<g id="XMLID_117_">
			<path id="XMLID_384_" class="st2" d="M262.24,255.52c-4.03-7.68,7.36-20.33,8.48-18.72c0.16,0.23,0.1,0.54-0.12,0.7
				c-4.81,3.36-10.18,12.42-7.48,17.56C263.43,255.64,262.54,256.11,262.24,255.52z"/>
		</g>
		<g id="XMLID_129_">
			<path id="XMLID_377_" class="st2" d="M266.42,256.72c0.41-1.55,0.21-2.64,0.01-3.7c-0.87-4.69,3-9.07,3.76-8.4
				c0.21,0.18,0.23,0.5,0.05,0.71c-5.49,6.26-1.56,6.77-2.84,11.65C267.22,257.61,266.25,257.36,266.42,256.72z"/>
		</g>
		<g id="XMLID_130_">
			<path id="XMLID_285_" class="st2" d="M272.23,255.51c-0.77-0.25,0.06-1.63,0.41-2.37c0.85-1.83,1.82-3.9,1.01-6.12
				c-0.52-1.43,3.39-0.96-0.1,6.54C272.9,254.95,272.87,255.71,272.23,255.51z"/>
		</g>
		<g id="XMLID_131_">
			<path id="XMLID_284_" class="st2" d="M276.75,259.37c-0.58-0.19-0.26-0.8-0.05-1.37c0.47-1.29,1.26-3.44,1-4.72
				c-0.18-0.9,2.35-2.35-0.32,5.78C277.29,259.31,277.01,259.45,276.75,259.37z"/>
		</g>
		<g id="XMLID_137_">
			<path id="XMLID_282_" class="st2" d="M306.52,251.57c0.28-0.02,0.51,0.19,0.53,0.47c0.17,2.94,1.25,5.45,2.8,6.56
				c0.23,0.16,0.28,0.47,0.12,0.7C308.64,261.16,304.54,251.66,306.52,251.57z"/>
		</g>
	</g>
	<g id="XMLID_439_">
		<g id="XMLID_419_">
			<path class="st10" d="M295.36,426.04c-0.2,0-0.38-0.12-0.46-0.31c-3.41-8.2-4.99-17.22-4.57-26.09c0.01-0.28,0.25-0.49,0.52-0.48
				c0.28,0.01,0.49,0.25,0.48,0.52c-0.41,8.72,1.15,17.6,4.5,25.66c0.11,0.25-0.01,0.55-0.27,0.65
				C295.48,426.03,295.42,426.04,295.36,426.04z"/>
		</g>
		<g id="XMLID_422_">
			<path class="st10" d="M251.45,406.33c-0.14,0-0.29-0.06-0.39-0.18c-0.18-0.21-0.15-0.53,0.07-0.7l0.74-0.61
				c6.52-5.35,9.22-7.57,13.34-34.56c0.04-0.27,0.31-0.46,0.57-0.42c0.27,0.04,0.46,0.3,0.42,0.57
				c-4.18,27.37-6.96,29.65-13.69,35.18l-0.74,0.61C251.68,406.29,251.57,406.33,251.45,406.33z"/>
		</g>
		<g id="XMLID_423_">
			<path class="st10" d="M335.79,406.19c-0.08,0-0.16-0.02-0.23-0.06c-8.56-4.4-9.87-5.07-18.79-36.44
				c-0.08-0.27,0.08-0.54,0.34-0.62c0.27-0.08,0.54,0.08,0.62,0.34c8.8,30.95,10.07,31.6,18.29,35.83c0.25,0.13,0.34,0.43,0.22,0.67
				C336.15,406.09,335.97,406.19,335.79,406.19z"/>
		</g>
	</g>
	<g id="XMLID_426_">
		<path class="st9" d="M285.15,366.95c-8.46,0-16.21-0.5-24.87-1.73c-0.27-0.04-0.46-0.29-0.42-0.57c0.04-0.27,0.3-0.47,0.57-0.42
			c19.85,2.83,34.94,1.78,65-0.31l0.86-0.06c0.29-0.02,0.51,0.19,0.53,0.46c0.02,0.28-0.19,0.51-0.46,0.53l-0.86,0.06
			C308.44,366.09,296.18,366.95,285.15,366.95z"/>
	</g>
	<g id="XMLID_436_">
		<path class="st5" d="M228.87,426.98c-0.05,0-0.11-0.01-0.16-0.03c-1.21-0.41-2.27-1.28-2.9-2.4c-0.14-0.24-0.05-0.54,0.19-0.68
			c0.24-0.13,0.55-0.05,0.68,0.19c0.51,0.9,1.36,1.61,2.34,1.94c0.26,0.09,0.4,0.37,0.31,0.63
			C229.27,426.85,229.07,426.98,228.87,426.98z"/>
	</g>
	<g id="XMLID_437_">
		<path class="st5" d="M355.23,426.73c-0.04,0-0.08,0-0.13,0c-0.28-0.01-0.49-0.24-0.49-0.51c0.01-0.28,0.23-0.49,0.51-0.49
			c1.15,0.04,2.33-0.53,3.03-1.48c0.16-0.22,0.48-0.27,0.7-0.11c0.22,0.16,0.27,0.48,0.11,0.7
			C358.11,426.01,356.69,426.73,355.23,426.73z"/>
	</g>
</g>
</svg>
