<?xml version="1.0" encoding="utf-8"?>
<!-- Generator: Adobe Illustrator 25.3.0, SVG Export Plug-In . SVG Version: 6.00 Build 0)  -->
<svg version="1.1" id="Layer_1" xmlns="http://www.w3.org/2000/svg" xmlns:xlink="http://www.w3.org/1999/xlink" x="0px" y="0px"
	 viewBox="0 0 595.28 841.89" style="enable-background:new 0 0 595.28 841.89;" xml:space="preserve">
<style type="text/css">
	.st0{fill:#F0BFAA;}
	.st1{fill:#F5A88D;}
	.st2{fill:#7C3C24;}
	.st3{fill:#692C1C;}
	.st4{fill:#EF7A5D;}
	.st5{fill:#392924;}
	.st6{fill:#FFF5ED;}
	.st7{fill:#F2E8DE;}
	.st8{fill:#FFFFFC;}
	.st9{fill:#FFFFFF;}
	.st10{fill:#748999;}
	.st11{fill:#3E4B61;}
	.st12{fill:#FDE6DA;}
	.st13{fill:#FACAB3;}
	.st14{fill:#F5A789;}
</style>
<g id="XMLID_729_">
	<path class="st0" d="M326.3,251.44c1.57,4.43-12.23,10.12-27.74,10.12c-15.51,0-30.51-6.14-28.04-10.14
		c2.25-3.65,12.45-1.01,27.95-1.01C313.97,250.41,324.17,245.45,326.3,251.44z"/>
	<path class="st0" d="M298.55,262.02c-13.35,0-26.24-4.52-28.41-8.41c-0.47-0.85-0.48-1.68-0.03-2.42c1.63-2.64,6.46-2.32,14.46-1.8
		c4.03,0.27,8.61,0.57,13.88,0.57c5.62,0,10.63-0.67,14.65-1.2c7.31-0.98,12.14-1.62,13.61,2.54c0.31,0.88,0.13,1.83-0.53,2.77
		C323.49,257.89,312.15,262.02,298.55,262.02z M277.05,249.94c-3.21,0-5.34,0.4-6.15,1.72c-0.28,0.45-0.26,0.94,0.05,1.5
		c2.01,3.6,14.77,7.94,27.61,7.94c12.89,0,24.31-3.92,26.89-7.58c0.49-0.69,0.63-1.34,0.42-1.93c-1.23-3.46-5.52-2.89-12.63-1.94
		c-4.05,0.54-9.09,1.21-14.77,1.21c-5.31,0-9.89-0.3-13.94-0.57C281.63,250.11,279.12,249.94,277.05,249.94z"/>
</g>
<path id="XMLID_673_" class="st1" d="M308.77,239.1c-0.14,11.33-3.89,19.73,16.94,29.53C313.32,285.69,301.1,292,301.1,292
	s-26.13-11.76-35.11-19.54c4.67-3.4,9.55-5.94,13.86-8.97c8.51-5.98,3.49-19.27,5.15-24.18L308.77,239.1z"/>
<path id="XMLID_671_" class="st1" d="M312.62,200.41c-10.09-14.11-33.89-10.54-36.67,11.1c-2.75,21.47,7.64,38.38,13.68,40.04
	c5.47,1.5,10.87,2.16,15.44-0.93C317.09,242.5,321.72,213.14,312.62,200.41z"/>
<path id="XMLID_1059_" class="st2" d="M283.16,186.03c-16.02,12.76-11.13,21.06-7.01,41.03c-1.67-10.82,10.98-28.12,8.87-23.73
	c-6.67,13.92,3.07,0.87,17.27,6.79c1,0.42,1.8,0.23,5.79-0.93c4.12-1.2,9.05,15.05,9.05,15.05c4.23-7.06,4.73-19.14,4.73-19.14
	c-1.31-23.67-30.71-27.65-32.72-18.87C287.91,186.19,285.03,184.54,283.16,186.03z"/>
<g id="XMLID_1012_">
	<g id="XMLID_1045_">
		<path id="XMLID_797_" class="st3" d="M289.44,186.58c0.28,0.01,0.49,0.25,0.47,0.52c-0.06,1.23,0.03,5.52,3.72,9.22
			c0.19,0.19,0.19,0.51,0,0.71C292.02,198.64,286.88,186.48,289.44,186.58z"/>
	</g>
	<g id="XMLID_1036_">
		<path id="XMLID_796_" class="st3" d="M277.96,202.13c-1.22-0.19,0.88-8.65,7.78-12.87c0.56-0.35,1.08,0.51,0.52,0.85
			c-4.1,2.51-6.99,6.85-7.73,11.6C278.49,201.98,278.24,202.17,277.96,202.13z"/>
	</g>
	<g id="XMLID_1034_">
		<path id="XMLID_795_" class="st3" d="M285.66,201.39c0.45-0.26,1.97-2.14,1.28-4.58c-0.18-0.64,0.78-0.9,0.96-0.27
			c0.81,2.89-0.9,5.23-1.75,5.72C285.59,202.58,285.09,201.72,285.66,201.39z"/>
	</g>
	<g id="XMLID_1032_">
		<path id="XMLID_794_" class="st3" d="M275.8,213.19c-1.43-5.92-1.85-6.15-1.14-6.35c0.79-0.22,0.88,1.04,2.11,6.11
			C276.93,213.6,275.96,213.84,275.8,213.19z"/>
	</g>
	<g id="XMLID_1030_">
		<path id="XMLID_793_" class="st3" d="M304.82,188.11c-2.69-2.64-8.65-4.09-12.01-1.93c-0.23,0.15-0.54,0.08-0.69-0.15
			c-1.01-1.56,8.12-3.81,13.4,1.36C305.99,187.86,305.29,188.57,304.82,188.11z"/>
	</g>
	<g id="XMLID_1028_">
		<path id="XMLID_792_" class="st3" d="M307.02,196.45c-3.39-3.54-8.19-2.43-10.59-0.82c-0.23,0.15-0.54,0.09-0.69-0.14
			c-0.75-1.12,7.09-4.86,12,0.27C308.2,196.23,307.48,196.92,307.02,196.45z"/>
	</g>
	<g id="XMLID_1025_">
		<path id="XMLID_791_" class="st3" d="M296.17,188.99c4.2-1.1,3.86,1.79,2.76,1.12c-1.07-0.66-3.63-0.24-4.36,1.06
			C293.94,192.29,292.33,189.99,296.17,188.99z"/>
	</g>
	<g id="XMLID_1023_">
		<path id="XMLID_790_" class="st3" d="M302.26,208.48c0.68-2.21-0.42-5.06-2.35-6.09c-0.58-0.31-0.12-1.19,0.47-0.88
			c2.37,1.25,3.67,4.58,2.84,7.26C303.02,209.4,302.07,209.11,302.26,208.48z"/>
	</g>
	<g id="XMLID_1021_">
		<path id="XMLID_789_" class="st3" d="M287.96,207.57c0-3.47,5.44-7.87,5.81-6.13c0.06,0.27-0.12,0.53-0.39,0.59
			c-1.64,0.35-4.43,3.55-4.43,5.54C288.96,208.23,287.96,208.23,287.96,207.57z"/>
	</g>
	<g id="XMLID_1019_">
		<path id="XMLID_788_" class="st3" d="M309.2,207.73c1.47-1.94,2.64-4.25,1.31-7.96c-0.22-0.62,0.72-0.96,0.94-0.34
			c1.49,4.16,0.1,6.83-1.46,8.9C309.6,208.86,308.81,208.26,309.2,207.73z"/>
	</g>
	<g id="XMLID_1015_">
		<path id="XMLID_787_" class="st3" d="M317.09,213.3c-1-0.38-0.04-0.25,1.34-5.95c0.16-0.64,1.13-0.41,0.97,0.23
			C319.18,208.49,317.97,213.63,317.09,213.3z"/>
	</g>
	<g id="XMLID_1013_">
		<path id="XMLID_786_" class="st3" d="M318.61,200.78c-0.51-3.09-2.95-7.35-6.02-8.83c-0.25-0.12-0.35-0.42-0.23-0.67
			c1.3-2.69,9.22,9.51,6.83,9.91C318.91,201.24,318.66,201.05,318.61,200.78z"/>
	</g>
</g>
<g id="XMLID_661_">
	<g id="XMLID_668_">
		<path id="XMLID_669_" class="st1" d="M273.5,221.11c4.1-1.21,4.36,7.38,4.37,11.65C277.89,241.17,267.04,223.01,273.5,221.11z"/>
	</g>
	<g id="XMLID_666_">
		<path id="XMLID_667_" class="st4" d="M274.38,225.31c0.12-0.39,0.71-0.21,0.59,0.18c-0.72,2.36,0,3.75,0.97,4.28
			c0.15,0.08,0.2,0.27,0.12,0.42C275.51,231.19,273.34,228.69,274.38,225.31z"/>
	</g>
	<g id="XMLID_664_">
		<path id="XMLID_665_" class="st1" d="M319.29,221c-4.1-1.21-4.36,7.38-4.37,11.65C314.9,241.05,325.75,222.9,319.29,221z"/>
	</g>
	<g id="XMLID_662_">
		<path id="XMLID_663_" class="st4" d="M318.42,225.2c-0.12-0.39-0.71-0.21-0.59,0.18c0.72,2.36,0,3.75-0.97,4.28
			c-0.15,0.08-0.2,0.27-0.12,0.42C317.29,231.07,319.45,228.57,318.42,225.2z"/>
	</g>
</g>
<g id="XMLID_654_">
	<path id="XMLID_660_" class="st5" d="M286.91,224.74c-1.34,0-2.39-5.11,0.86-5.11C289.51,219.64,289.11,224.74,286.91,224.74z"/>
	<path id="XMLID_659_" class="st5" d="M306.87,224.95c1.34,0,2.39-5.11-0.86-5.11C304.26,219.84,304.67,224.95,306.87,224.95z"/>
</g>
<g id="XMLID_651_">
	<path id="XMLID_653_" class="st4" d="M285.14,248.23c0.17-0.13,0.41-0.1,0.54,0.07c3.53,4.57,15.96,6.12,21.94-0.4
		c0.34-0.38,0.91,0.14,0.57,0.52C299.37,258.05,282.93,249.94,285.14,248.23z"/>
</g>
<g id="XMLID_624_">
	<path id="XMLID_646_" class="st2" d="M291.32,214.49c-4.41-1.76-13.07,1.88-10.6,2.82c0.81,0.31,3.37-0.72,4.31-0.82
		c1.88-0.2,5.31,0.61,6.49-0.41C291.99,215.65,291.88,214.71,291.32,214.49z"/>
	<path id="XMLID_643_" class="st2" d="M301.31,215.94c1.14,1.06,4.6,0.37,6.47,0.64c0.93,0.13,3.46,1.25,4.28,0.97
		c2.5-0.85-6.04-4.83-10.5-3.19C300.92,214.6,300.84,215.5,301.31,215.94z"/>
	<g id="XMLID_626_">
		<path id="XMLID_627_" class="st4" d="M294.64,233.06c-0.14-0.57,0.83-0.62,1.43-0.75c2.22-0.49,2.32,0.59,1.29-8.72
			c-0.2-1.82-0.51-2.79,0.14-2.84c0.61-0.04,0.45,0.68,0.68,2.75c1.12,10.11,1.14,8.87-3.04,9.86
			C294.92,233.42,294.7,233.29,294.64,233.06z"/>
	</g>
	<path id="XMLID_625_" class="st6" d="M290.87,240.98c-0.62-0.93,1.21-0.7,12.09-1.83C305.75,238.86,296.1,248.75,290.87,240.98z"/>
</g>
<g id="XMLID_178_">
	<path id="XMLID_775_" class="st1" d="M333.74,643.78c3.76,2.9,7.87,3.63,13.17,0.57l-0.75-26.05l-16.81,0.47L333.74,643.78z"/>
	<g id="XMLID_762_">
		<g id="XMLID_773_">
			<path class="st7" d="M349.15,660.26c-1.75,1.28-1.5,0.92-39.57,2.73c-7.62,0.36-7.96-3.57-4.01-6.02
				c6.01-3.74,27.71-15.75,29.09-14.94c1.16,0.68,3.93,2.18,6.04,2.22c2.85,0.05,6.38-0.51,6.63-0.06
				C349.9,648.89,353.48,657.1,349.15,660.26z"/>
			<path class="st8" d="M308.66,663.52c-3.31,0-5.47-0.9-5.97-2.52c-0.45-1.46,0.55-3.16,2.62-4.45c3.1-1.93,27.64-16.1,29.61-14.95
				c1.08,0.63,3.8,2.11,5.79,2.15c1.17,0.02,2.45-0.06,3.58-0.13c2.42-0.16,3.2-0.18,3.48,0.33c2.63,4.79,6.34,13.33,1.68,16.72
				c-1.49,1.08-1.49,1.08-19.79,1.91c-5.1,0.23-11.64,0.52-20.05,0.92C309.28,663.51,308.97,663.52,308.66,663.52z M334.35,642.46
				c-2,0-21.59,10.62-28.52,14.94c-1.64,1.02-2.5,2.32-2.19,3.3c0.4,1.28,2.61,1.95,5.92,1.8c8.41-0.4,14.95-0.69,20.05-0.92
				c17.83-0.8,18.01-0.82,19.24-1.72c4-2.91,0.56-10.79-1.91-15.31c-0.38-0.08-1.6,0-2.6,0.07c-1.15,0.07-2.46,0.16-3.66,0.14
				c-2.15-0.04-4.86-1.45-6.28-2.29C334.39,642.46,334.37,642.46,334.35,642.46z"/>
		</g>
		<g id="XMLID_771_">
			<path class="st7" d="M350.91,653.19c1.41,6.7-2.35,7.7-4.74,8.05c-1,0.15-39.55,3.08-41.86,1.03c-0.37-0.32-1.3-1.08-1.2-2.21
				L350.91,653.19z"/>
			<path class="st8" d="M350.96,653.18c0.31,1.12,0.54,2.28,0.49,3.49c-0.05,1.18-0.4,2.48-1.32,3.41c-0.9,0.95-2.16,1.39-3.33,1.65
				c-1.24,0.25-2.34,0.31-3.51,0.45c-4.61,0.48-9.24,0.77-13.86,1.1c-4.63,0.18-9.27,0.41-13.91,0.37
				c-2.32-0.04-4.65-0.08-6.98-0.26c-1.16-0.12-2.33-0.23-3.49-0.55l-0.44-0.15c-0.15-0.06-0.31-0.18-0.44-0.27
				c-0.21-0.2-0.42-0.42-0.6-0.66c-0.36-0.49-0.58-1.12-0.48-1.71l0.1,0.01c-0.06,0.57,0.19,1.12,0.56,1.55
				c0.18,0.22,0.39,0.41,0.61,0.6c0.12,0.07,0.23,0.14,0.36,0.19l0.41,0.12c1.12,0.24,2.29,0.29,3.44,0.34
				c2.31,0.09,4.63,0.06,6.94,0.01c4.63-0.11,9.25-0.33,13.87-0.59c4.62-0.25,9.24-0.54,13.86-0.88c1.15-0.1,2.32-0.13,3.45-0.32
				c1.12-0.21,2.26-0.58,3.09-1.39c0.85-0.78,1.24-1.93,1.36-3.06c0.11-1.15-0.04-2.3-0.26-3.43L350.96,653.18z"/>
		</g>
		<g id="XMLID_769_">
			<path class="st7" d="M325.82,646.68c1.31,1.74,3.1,3.11,5.12,3.91L325.82,646.68z"/>
			<g>
				<path class="st8" d="M330.75,651.06c-2.12-0.85-3.96-2.26-5.33-4.08l0.8-0.6c1.26,1.67,2.95,2.97,4.9,3.75L330.75,651.06z"/>
			</g>
		</g>
		<g id="XMLID_767_">
			<path class="st7" d="M322.07,648.94c-0.1,1.54,2.99,3.44,4.43,4.08L322.07,648.94z"/>
			<g>
				<path class="st8" d="M326.3,653.48c-0.05-0.02-4.87-2.25-4.73-4.57l1,0.06c-0.07,1.05,2.37,2.8,4.14,3.6L326.3,653.48z"/>
			</g>
		</g>
		<g id="XMLID_765_">
			<path class="st7" d="M318.08,651.22c0.85,2.11,3.19,3.07,4.86,3.78L318.08,651.22z"/>
			<g>
				<path class="st8" d="M322.75,655.46c-1.82-0.77-4.21-1.78-5.13-4.05l0.93-0.38c0.76,1.89,2.93,2.8,4.51,3.47l-0.12,0.49
					L322.75,655.46z"/>
			</g>
		</g>
		<g id="XMLID_763_">
			<path class="st7" d="M307.23,657.16c0.75,3.43,5.76,2.9,9.27,2.9L307.23,657.16z"/>
			<g>
				<path class="st8" d="M313.84,660.59c-3.12,0-6.45-0.34-7.11-3.32l0.98-0.21c0.57,2.63,4.25,2.57,7.49,2.52
					c0.44-0.01,0.9-0.03,1.29-0.01v1c-0.41-0.01-0.83,0.01-1.27,0.01C314.78,660.58,314.31,660.59,313.84,660.59z"/>
			</g>
		</g>
	</g>
</g>
<path id="XMLID_751_" class="st9" d="M271.56,652.98c0.31,1.12,0.54,2.28,0.49,3.49c-0.05,1.18-0.4,2.48-1.32,3.41
	c-0.9,0.95-2.16,1.39-3.33,1.65c-1.24,0.25-2.34,0.31-3.51,0.45c-4.61,0.48-9.24,0.77-13.86,1.1c-4.63,0.18-9.27,0.41-13.91,0.37
	c-2.32-0.04-4.65-0.08-6.98-0.26c-1.16-0.12-2.33-0.23-3.49-0.55l-0.44-0.15c-0.15-0.06-0.31-0.18-0.44-0.27
	c-0.21-0.2-0.42-0.42-0.6-0.66c-0.36-0.49-0.58-1.12-0.48-1.71l0.1,0.01c-0.06,0.57,0.19,1.12,0.56,1.55
	c0.18,0.22,0.39,0.41,0.61,0.6c0.12,0.07,0.23,0.14,0.37,0.19l0.41,0.12c1.12,0.24,2.29,0.29,3.44,0.34
	c2.31,0.09,4.63,0.06,6.94,0.01c4.63-0.11,9.25-0.33,13.87-0.59c4.62-0.25,9.24-0.54,13.86-0.88c1.15-0.1,2.32-0.13,3.45-0.32
	c1.12-0.21,2.26-0.58,3.09-1.39c0.85-0.78,1.24-1.93,1.36-3.06c0.11-1.15-0.04-2.3-0.26-3.43L271.56,652.98z"/>
<g id="XMLID_58_">
	<polygon id="XMLID_774_" class="st1" points="254.11,643.44 267.42,644.71 269.8,619.98 253.52,620.44 	"/>
	<g id="XMLID_761_">
		<path class="st7" d="M269.75,660.06c-1.75,1.28-1.5,0.92-39.57,2.73c-7.62,0.36-7.96-3.57-4.01-6.02
			c6.01-3.74,27.71-15.75,29.09-14.94c3.9,2.29,5.88,2.67,11.99,1.82C268.26,643.51,275,656.23,269.75,660.06z"/>
		<path class="st8" d="M229.27,663.31c-3.31,0-5.47-0.9-5.97-2.52c-0.45-1.46,0.55-3.16,2.62-4.45c3.1-1.93,27.64-16.1,29.61-14.95
			c3.65,2.15,5.52,2.61,11.67,1.75c1.28-0.19,3.36,4.93,3.45,5.14c1.1,2.73,3.25,9.38-0.58,12.16c-1.49,1.08-1.49,1.08-19.79,1.91
			c-5.1,0.23-11.64,0.52-20.05,0.92C229.89,663.3,229.57,663.31,229.27,663.31z M254.96,642.26c-2,0-21.59,10.62-28.52,14.94
			c-1.64,1.02-2.5,2.32-2.19,3.3c0.4,1.28,2.61,1.95,5.92,1.8c8.41-0.4,14.95-0.69,20.05-0.92c17.83-0.8,18.01-0.82,19.25-1.72
			l0.29,0.4l-0.29-0.4c1.29-0.94,1.88-2.59,1.75-4.9c-0.25-4.61-3.21-9.96-4.01-10.6c-5.97,0.83-8.16,0.48-12.19-1.9
			C254.99,642.26,254.98,642.26,254.96,642.26z"/>
	</g>
	<g id="XMLID_749_">
		<path class="st9" d="M251.54,650.89c-0.06,0-0.12-0.01-0.19-0.04c-2.12-0.85-3.96-2.26-5.33-4.08c-0.17-0.22-0.12-0.53,0.1-0.7
			c0.22-0.17,0.53-0.12,0.7,0.1c1.26,1.67,2.96,2.97,4.9,3.75c0.26,0.1,0.38,0.39,0.28,0.65
			C251.92,650.77,251.74,650.89,251.54,650.89z"/>
	</g>
</g>
<g id="XMLID_747_">
	<path class="st9" d="M247.1,653.32c-0.07,0-0.14-0.01-0.2-0.04c-0.05-0.02-4.87-2.25-4.73-4.57c0.02-0.28,0.26-0.5,0.53-0.47
		c0.28,0.02,0.49,0.25,0.47,0.53c-0.06,1.05,2.37,2.8,4.14,3.6c0.25,0.11,0.37,0.41,0.25,0.66
		C247.48,653.21,247.29,653.32,247.1,653.32z"/>
</g>
<g id="XMLID_745_">
	<path class="st9" d="M243.35,655.26c-1.82-0.77-4.21-1.78-5.13-4.05c-0.1-0.26,0.02-0.55,0.28-0.65c0.25-0.1,0.55,0.02,0.65,0.28
		c0.76,1.89,2.93,2.8,4.51,3.47l-0.12,0.49L243.35,655.26z"/>
</g>
<g id="XMLID_742_">
	<path class="st9" d="M234.45,660.38c-3.12,0-6.45-0.34-7.11-3.32c-0.06-0.27,0.11-0.54,0.38-0.59c0.27-0.06,0.54,0.11,0.59,0.38
		c0.58,2.63,4.25,2.57,7.49,2.52c0.44-0.01,0.91-0.03,1.29-0.01c0.28,0,0.5,0.22,0.5,0.5c0,0.28-0.22,0.5-0.5,0.5
		c-0.41-0.02-0.84,0.01-1.27,0.01C235.38,660.38,234.92,660.38,234.45,660.38z"/>
</g>
<g id="XMLID_703_">
	<path class="st10" d="M346.78,372.68c0.11,4.52,6.55,266.12,3.04,266.46c-2.57,0.25-19.74,1.53-20.31-1.06
		c-20.42-93.05-29.95-183.94-29.95-183.94c-11.3,71.74,1.32,70.67-27.71,182.34c-0.59,2.26-21.04,3.58-21.03,0.21
		c0.09-20.98,1.15-275.81-0.01-257.72C264.2,378.06,346.78,372.68,346.78,372.68z"/>
	<path class="st11" d="M338.62,640.21c-4.74,0-9.25-0.43-9.6-2.02c-17.87-81.43-27.5-162.12-29.54-180.24
		c-3.58,23.61-4.49,39.02-5.38,53.95c-1.62,27.31-3.15,53.1-21.77,124.7c-0.59,2.26-12.55,3.05-17.76,2.38
		c-2.87-0.37-4.26-1.12-4.25-2.3c0.11-25.1,0.97-238.37,0.23-257.2l-0.27,0.02l0.04-0.57c0.06-0.96,0.06-1.42,0.63-1.39
		c0.28,0.01,0.44,0.01,0.54,0.87c15.17-1.03,94.44-6.19,95.26-6.24l0.52-0.03l0.04,1.54c0.43,17.7,1.91,80.07,2.95,139.48
		c2.22,126.22,0.58,126.38-0.39,126.47C349.44,639.69,343.89,640.21,338.62,640.21z M299.67,450.3l0.4,3.79
		c0.1,0.91,9.75,91.93,29.94,183.88c0.34,1.53,11.72,1.43,19.55,0.69c2.19-6.29-0.36-146.21-3.24-264.96l-0.01-0.5
		c-6.92,0.45-80.19,5.23-94.73,6.21c0.07,1.48,0.1,4.14,0.15,8.92c0.06,6.23,0.11,15.42,0.13,27.29
		c0.04,20.19,0.02,48.51-0.06,84.16c-0.13,58.82-0.38,119.66-0.45,136.91c0,0.3,0.54,0.75,2.06,1.08
		c5.64,1.23,17.42-0.18,17.98-1.42c18.58-71.5,20.11-97.24,21.73-124.5c0.93-15.72,1.9-31.98,5.96-57.78L299.67,450.3z"/>
</g>
<g id="XMLID_607_">
	<g id="XMLID_603_">
		<path class="st11" d="M299.74,444.76c-0.26,0-0.49-0.2-0.52-0.46c-2.22-18.81-1.46-30.76-0.9-39.48
			c0.48-7.49,0.77-12.02-1.29-15.74c-0.14-0.25-0.05-0.57,0.2-0.71c0.25-0.14,0.57-0.05,0.71,0.2c2.21,3.99,1.91,8.63,1.42,16.31
			c-0.56,8.68-1.32,20.57,0.89,39.29c0.03,0.29-0.17,0.55-0.46,0.58C299.78,444.76,299.76,444.76,299.74,444.76z"/>
	</g>
	<g id="XMLID_599_">
		<path class="st11" d="M268.36,634.45c-0.04,0-0.09,0-0.13-0.02c-0.28-0.07-0.45-0.36-0.38-0.63
			c13.35-51.9,17.14-96.4,19.91-128.88c1.83-21.41,3.14-36.88,6.4-46.06c0.09-0.27,0.39-0.41,0.67-0.32
			c0.27,0.1,0.41,0.39,0.32,0.67c-3.21,9.06-4.53,24.47-6.35,45.8c-2.77,32.53-6.57,77.07-19.94,129.06
			C268.81,634.3,268.6,634.45,268.36,634.45z"/>
	</g>
	<g id="XMLID_593_">
		<path class="st11" d="M252.83,440.14c-0.16,0-0.32-0.07-0.42-0.21c-0.17-0.23-0.12-0.56,0.11-0.73
			c11.74-8.62,11.77-11.49,11.92-27.38c0.02-1.85,0.04-3.88,0.08-6.11c0-0.29,0.24-0.51,0.52-0.51c0.3,0.01,0.53,0.24,0.52,0.53
			c-0.04,2.23-0.06,4.25-0.08,6.11c-0.16,15.96-0.19,19.28-12.35,28.21C253.04,440.1,252.93,440.14,252.83,440.14z"/>
	</g>
	<g id="XMLID_595_">
		<path class="st11" d="M346.53,439.94c-0.02,0-1.97-0.07-1.97-0.07c-13.41-0.45-13.42-0.8-13.67-19.23
			c-0.03-2.41-0.07-5.15-0.14-8.24c-0.01-0.29,0.22-0.53,0.51-0.53c0.29,0,0.53,0.23,0.53,0.51c0.07,3.1,0.11,5.84,0.14,8.25
			c0.13,9.02,0.19,13.55,1.74,15.76c1.5,2.13,4.65,2.23,10.92,2.44l1.95,0.07c0.29,0.01,0.51,0.25,0.5,0.54
			C347.04,439.72,346.8,439.94,346.53,439.94z"/>
	</g>
	<g id="XMLID_601_">
		<path class="st11" d="M300.01,452.43c-0.02,0-0.04,0-0.07,0c-0.31-0.03-0.56-0.24-0.64-0.54c-0.67-2.52-3-4.57-5.55-4.88
			c-0.29-0.03-0.49-0.29-0.46-0.58c0.03-0.29,0.3-0.5,0.58-0.46c2.75,0.33,5.19,2.29,6.19,4.89c2.66-5,6.61-5.97,9.27-5.23
			c0.28,0.08,0.44,0.36,0.36,0.64c-0.08,0.28-0.37,0.44-0.64,0.36c-2.4-0.67-6.03,0.35-8.4,5.38
			C300.54,452.28,300.29,452.43,300.01,452.43z"/>
	</g>
</g>
<g id="XMLID_676_">
	<path class="st12" d="M268.13,289.13c1.46,30.26-2.33,122.72-33.19,132.49c-44.98,9.15-15.85-31.92-18.15-52.87
		c-1.85-16.83,9.05-31.45,8.12-41.92c-2.04-22.88,5.04-33.63,12.9-42.54c4.4-4.99,7.39-9.68,14.69-10.36
		C258.94,273.33,267.83,282.98,268.13,289.13z"/>
	<path class="st13" d="M223.78,423.43c-5.41,0-9.25-1.26-11.64-3.79c-5.44-5.77-2.51-16.86,0.59-28.6
		c2.09-7.88,4.24-16.03,3.56-22.23c-1.06-9.61,1.98-18.46,4.66-26.27c2.07-6.02,3.85-11.21,3.46-15.66
		c-2.1-23.59,5.62-34.52,13.02-42.92c0.57-0.65,1.12-1.29,1.66-1.92c3.65-4.29,6.81-8,13.36-8.61c2.69-0.25,5.93,1.14,9.12,3.91
		c4.05,3.51,6.88,8.24,7.05,11.77c0.84,17.42-0.2,48.02-4.48,74.04c-3.94,23.95-12.17,53.61-29.05,58.95
		C230.75,422.98,226.99,423.43,223.78,423.43z M253.07,274.4c-0.18,0-0.35,0.01-0.52,0.02c-6.15,0.57-9.18,4.13-12.69,8.26
		c-0.54,0.63-1.09,1.28-1.67,1.94c-7.27,8.24-14.85,18.97-12.78,42.17c0.42,4.66-1.4,9.95-3.5,16.08
		c-2.65,7.71-5.65,16.44-4.62,25.83c0.7,6.38-1.48,14.63-3.59,22.6c-2.9,10.96-5.9,22.29-0.83,27.66
		c3.54,3.75,10.73,4.47,21.97,2.18c28.83-9.13,34.59-94.45,32.79-131.98c-0.16-3.22-2.91-7.77-6.7-11.06
		C258.2,275.73,255.37,274.4,253.07,274.4z"/>
</g>
<g id="XMLID_675_">
	<path class="st12" d="M279.85,263.48c6.16,15.19,30.59,15.26,36.9,0c6.96,0.3,23,5.01,27.28,8c9.84,6.88,18.76,142.13,4.64,152.34
		c-34.4,2.6-63.14,0.62-97.84-3.4c-21.32-5.82-1.67-144.91-1.4-145.91C257.72,270.16,280.85,263.16,279.85,263.48z"/>
	<path class="st13" d="M317.8,425.51c-22.03,0-43.03-1.8-67.03-4.58c-22.06-6.01-2.19-145.18-1.83-146.54l0.06-0.21l0.19-0.1
		c5.57-2.92,25.31-9.83,30-10.89c0,0,0.51-0.17,0.51-0.17l0.02,0.07c0.01,0-0.01-0.07-0.01-0.07l0.02,0.07
		c0.24-0.04,0.39-0.04,0.44-0.01l0.25,0.18l-0.04,0.23c3.35,8.02,11.38,10.91,17.81,10.93c0.02,0,0.05,0,0.07,0
		c6.5,0,14.63-2.92,18.02-11.11l0.13-0.32l0.35,0.02c6.99,0.3,23.21,5.06,27.54,8.09c6.35,4.43,11.85,57.41,12.17,98.31
		c0.15,18.35-0.64,49.87-7.53,54.84l-0.11,0.08l-0.14,0.01C337.94,425.14,327.76,425.51,317.8,425.51z M249.87,274.84
		c-0.93,6.04-19.29,139.54,1.09,145.1c34.67,4.01,63.13,5.98,97.52,3.39c4.7-3.67,7.25-23.29,7-53.94
		c-0.35-44.47-6.28-93.68-11.74-97.5c-4.17-2.91-19.62-7.47-26.67-7.89c-3.08,7.07-10.28,11.41-18.87,11.4
		c-8.51-0.03-15.61-4.35-18.63-11.31C276.44,265.04,257.48,270.93,249.87,274.84z"/>
</g>
<g id="XMLID_698_">
	<path class="st12" d="M399.82,342.32c1.72,3.76,4.71,13.86,3.69,17.87c-0.77,3.02-6.68,21.11-19.89,26.86
		c-13.87,6.04-18.3,23.62-29.72,14.73c-6.15-7.78-10.08-24.46-10.08-24.46c-6.84-15.56,7.79-7.2,18.77-22.46
		c2.01-2.8,1.84-4.13-1.06-6.52c-26.92-22.26-17.8-76.56-17.8-76.56c15.79-1.68,35.07,30.37,38.83,45.79
		C385.18,328.36,395.53,332.95,399.82,342.32z"/>
	<path class="st13" d="M359.9,404.74c-1.91,0-3.98-0.75-6.31-2.57l-0.08-0.08c-6.15-7.78-10.01-23.97-10.17-24.66
		c-1.73-3.92-2.17-6.54-1.4-8.42c0.88-2.13,3.18-3.04,6.11-4.19c3.98-1.57,9.44-3.72,14.14-10.25c1.87-2.6,1.7-3.64-0.97-5.85
		c-26.83-22.19-18.07-76.48-17.97-77.02l0.06-0.37l0.38-0.04c16.78-1.77,35.81,31.6,39.37,46.17c1.45,5.93,5.38,10.05,9.18,14.04
		c3.02,3.17,6.15,6.44,8.06,10.63c1.61,3.51,4.81,13.95,3.72,18.2c-0.05,0.21-5.71,20.9-20.17,27.19c-5.28,2.3-9.2,6.33-12.66,9.88
		C367.41,401.25,364.02,404.74,359.9,404.74z M354.25,401.42c6.62,5.12,10.64,0.99,16.19-4.72c3.52-3.62,7.51-7.73,12.97-10.1
		c14.03-6.1,19.55-26.32,19.6-26.53c0.96-3.73-1.87-13.62-3.66-17.54c-1.84-4.03-4.91-7.24-7.87-10.35
		c-3.89-4.08-7.92-8.3-9.43-14.49c-3.89-15.95-22.89-46.5-37.91-45.44c-0.73,4.88-7.53,54.86,17.68,75.71
		c3.08,2.55,3.34,4.16,1.15,7.2c-4.87,6.77-10.49,8.99-14.59,10.6c-2.81,1.11-4.83,1.91-5.55,3.64c-0.65,1.58-0.2,4.04,1.42,7.72
		C344.34,377.37,348.26,393.79,354.25,401.42z"/>
</g>
<g id="XMLID_702_">
	<path class="st12" d="M266,269.85c-4.33-4.65-2.04-10.49,7.72-8.58c0.66,0.13,1.3-0.35,1.31-1.03c0.02-2.17-7.24-8.46-3.78-9
		c8.34-1.31,22.58,23.66,27.21,23.66c5.71,0,8.57-12.34,11.97-16.52c1.25-1.53,11.71-13.62,15.31-8.55
		c1.95,2.75-0.03,5.27,0.95,8.51c0.95,3.14,3.44-3.09,6.18-0.55c3.6,3.34,3.08,9.55,0,13.38C322.72,283.81,277.62,282.32,266,269.85
		z"/>
	<path class="st13" d="M302.45,280.46c-13.68,0-30.13-3.08-36.82-10.26c-2.16-2.32-2.81-5-1.69-7.01c1.38-2.48,4.98-3.36,9.88-2.4
		c0.18,0.04,0.37-0.01,0.51-0.13c0.08-0.06,0.2-0.2,0.2-0.42c0.01-0.69-1.15-2.24-2.18-3.6c-1.56-2.08-2.91-3.87-2.44-5.04
		c0.19-0.46,0.61-0.75,1.26-0.85c5.21-0.81,12.07,7.43,18.15,14.71c3.67,4.4,7.47,8.95,9.14,8.95c3.48,0,5.96-5.34,8.15-10.05
		c1.16-2.49,2.25-4.84,3.43-6.29c0.08-0.1,8.35-10.14,13.45-9.97c1.11,0.04,2,0.52,2.65,1.44c1.22,1.71,1.04,3.36,0.87,4.96
		c-0.12,1.17-0.25,2.38,0.15,3.69c0.15,0.5,0.29,0.55,0.29,0.55c0.2,0.05,0.81-0.43,1.19-0.73c1.12-0.88,2.81-2.22,4.56-0.59
		c3.89,3.61,3.17,10.19,0.05,14.06c-4.15,5.17-14.21,8.42-27.6,8.91C304.61,280.44,303.54,280.46,302.45,280.46z M270.25,261.41
		c-2.67,0-4.61,0.78-5.43,2.26c-0.9,1.62-0.3,3.86,1.55,5.85c6,6.45,22.13,10.51,39.25,9.89c12.91-0.47,22.95-3.66,26.86-8.53
		c2.83-3.53,3.53-9.47,0.05-12.7c-1.04-0.97-1.97-0.37-3.26,0.64c-0.76,0.6-1.42,1.11-2.1,0.9c-0.43-0.14-0.74-0.53-0.95-1.21
		c-0.46-1.5-0.31-2.88-0.18-4.09c0.16-1.54,0.3-2.88-0.69-4.28c-0.47-0.66-1.08-1-1.87-1.02c-0.03,0-0.07,0-0.1,0
		c-3.86,0-10.5,7.09-12.54,9.6c-1.1,1.35-2.17,3.65-3.3,6.08c-2.32,4.98-4.94,10.62-9.06,10.62c-2.04,0-5.09-3.54-9.91-9.31
		c-5.61-6.72-12.6-15.09-17.22-14.36c-0.19,0.03-0.43,0.1-0.49,0.24c-0.26,0.65,1.29,2.71,2.31,4.07c1.28,1.71,2.39,3.18,2.38,4.21
		c0,0.46-0.21,0.89-0.57,1.18c-0.37,0.3-0.86,0.42-1.33,0.33C272.41,261.52,271.27,261.41,270.25,261.41z"/>
</g>
<path id="XMLID_727_" class="st14" d="M217.79,424.38c5.04,0.5,11.31-0.1,13.84-1.63c-0.42,17.89-0.64,8.46,1,14.86
	c0.93,3.62,6.75,16.4,4.28,19.05c-1.87,2-4.11-3.91-5.78-7.4c-2.31-4.83-8.89,4.56-1.22,15.14c0.76,1.04,4.92,5.9,1.69,8.63
	c-3.55-2.96-6.49-6.66-8.57-10.79c2.28,7.04,1.31,11.89-0.33,11.54c-2.91-0.64-6.62-25.6-2.32-37.59
	C220.9,434.76,220.68,434.73,217.79,424.38z"/>
<polygon id="XMLID_724_" class="st14" points="347.01,394.1 335.01,398.4 329.63,385.52 342.22,379.89 "/>
<path id="XMLID_712_" class="st13" d="M216.16,421.62c6.05,2.03,14.15,1.75,18.78,0c0.77,4.73,0.23,7.08-2.82,9.94
	C230.66,432.93,213.66,437.52,216.16,421.62z"/>
<path id="XMLID_723_" class="st13" d="M338.65,397.95c0.99,1,6.74,0.6,11.91-1.55c-2.25-3.18-5.18-13.28-7.09-20.62
	c-1.19,0.51-7.67,5.7-9.36,7.06C333.06,383.7,335.53,394.79,338.65,397.95z"/>
<g id="XMLID_731_">
	<path class="st13" d="M323.45,420.95c-5.62,0-9.72-0.98-15.17-2.29c-2.02-0.48-4.32-1.03-6.92-1.58
		c-15.64-3.28-31.85-2.47-44.22-1.4c-2.29,0.2-3.01-1.03-4.62-3.73c-0.65-1.09-1.47-2.46-2.61-4.14c-0.96-1.42-0.79-3.32,0.41-4.54
		c8.48-8.59,13.23-26.62,14.49-31.95c0.35-1.46,1.73-2.42,3.23-2.22c19.96,2.65,37.92,4.52,55.46,0.66
		c0.78-0.17,1.61-0.01,2.27,0.44c0.67,0.46,1.11,1.15,1.23,1.94c2.08,13.26,6.82,25.06,14.09,35.09c1.5,2.07,0.29,4.36-1.1,7.01
		c-0.56,1.06-1.14,2.16-1.62,3.36c-0.46,1.14-1.52,1.98-2.78,2.18C330.61,420.61,326.77,420.95,323.45,420.95z M276.47,413.74
		c8.07,0,16.66,0.59,25.1,2.36c2.62,0.55,4.92,1.1,6.95,1.59c8.54,2.05,13.7,3.28,26.9,1.12c0.91-0.15,1.68-0.75,2.01-1.57
		c0.5-1.25,1.12-2.42,1.66-3.45c1.29-2.45,2.32-4.39,1.18-5.96c-7.36-10.15-12.16-22.11-14.26-35.52c-0.08-0.52-0.37-0.97-0.81-1.27
		c-0.44-0.3-0.97-0.4-1.49-0.29c-17.7,3.9-35.74,2.02-55.8-0.64c-0.99-0.13-1.89,0.5-2.12,1.46c-1.63,6.9-6.33,23.88-14.75,32.42
		c-0.86,0.88-0.99,2.25-0.29,3.27c1.16,1.71,1.98,3.08,2.64,4.19c1.64,2.74,2.08,3.38,3.67,3.25
		C262.84,414.19,269.46,413.74,276.47,413.74z"/>
</g>
<g id="XMLID_736_">
	<path class="st13" d="M299.67,277.43c-7.78,0-13.26-5.41-18.11-10.19c-1.89-1.87-3.68-3.63-5.45-4.91
		c-0.22-0.16-0.27-0.47-0.11-0.7c0.16-0.23,0.47-0.27,0.7-0.11c1.83,1.32,3.65,3.11,5.57,5.01c4.71,4.65,10.03,9.9,17.41,9.9
		c0.17,0,0.33,0,0.5-0.01c7.4-0.24,15.74-5.66,25.48-16.59c0.18-0.21,0.5-0.22,0.71-0.04c0.21,0.18,0.22,0.5,0.04,0.71
		c-9.94,11.14-18.51,16.68-26.2,16.93C300.03,277.43,299.85,277.43,299.67,277.43z"/>
</g>
<g id="XMLID_738_">
	<path class="st13" d="M375.37,356.8c-0.16,0-0.32-0.08-0.41-0.22c-3.35-4.92-6.32-6.64-9.33-5.41c-0.62,0.25-0.92-0.11-0.99-0.22
		c-0.86-1.28,3.27-8.04,6.62-11.49c0.19-0.2,0.51-0.2,0.71-0.01c0.2,0.19,0.2,0.51,0.01,0.71c-3.4,3.5-6.15,8.52-6.46,9.99
		c4.54-1.61,8.02,2.56,10.27,5.87c0.16,0.23,0.1,0.54-0.13,0.69C375.57,356.78,375.47,356.8,375.37,356.8z"/>
</g>
<g id="XMLID_783_">
	<path class="st0" d="M335.13,326.4c-17.8,53.25-72.48,15.19-76.07,0c-2.57-10.9,10.07-20.39,31.07-20.39
		C311.14,306,338.62,315.96,335.13,326.4z"/>
	<path class="st0" d="M303.32,354.27c-0.54,0-1.08-0.01-1.61-0.04c-19.67-0.89-40.77-17.91-43.09-27.73
		c-0.9-3.82-0.02-7.56,2.56-10.82c5.02-6.34,15.84-10.13,28.95-10.13c17.92,0,38.56,6.84,44.17,14.63c1.53,2.13,1.96,4.27,1.26,6.37
		C328,349.2,314.17,354.27,303.32,354.27z M290.14,306.46c-12.83,0-23.39,3.66-28.23,9.79c-2.4,3.03-3.23,6.51-2.39,10.05
		c2.03,8.58,22.4,26.13,42.24,27.03c10.74,0.48,25.18-3.81,32.95-27.07c0.6-1.8,0.22-3.66-1.13-5.54
		C328.2,313.25,307.5,306.46,290.14,306.46z"/>
</g>
<g id="XMLID_785_">
	<g id="XMLID_779_">
		<path class="st0" d="M293.8,279.79c-4.24,0-2.46-5.35-0.51-5.35C297.33,274.44,296.5,279.79,293.8,279.79z"/>
		<path class="st0" d="M293.8,280.25c-1.02,0-1.81-0.28-2.34-0.83c-0.47-0.48-0.71-1.14-0.71-1.91c0-1.6,1.14-3.53,2.55-3.53
			c1.04,0,1.89,0.33,2.46,0.94c0.5,0.54,0.77,1.28,0.77,2.09C296.53,278.57,295.49,280.25,293.8,280.25z M293.29,274.9
			c-0.76,0-1.63,1.39-1.63,2.61c0,0.37,0.08,0.88,0.45,1.27c0.36,0.37,0.93,0.55,1.69,0.55c1.12,0,1.82-1.2,1.82-2.32
			c0-0.58-0.19-1.1-0.53-1.46C294.68,275.12,294.08,274.9,293.29,274.9z"/>
	</g>
	<g id="XMLID_782_">
		<path class="st0" d="M305.99,278.94c4.24,0,2.46-5.35,0.51-5.35C302.45,273.59,303.29,278.94,305.99,278.94z"/>
		<path class="st0" d="M305.99,279.39c-1.69,0-2.73-1.68-2.73-3.23c0-0.81,0.27-1.55,0.77-2.09c0.58-0.62,1.43-0.94,2.46-0.94
			c1.41,0,2.55,1.93,2.55,3.53c0,0.77-0.25,1.43-0.71,1.91C307.79,279.12,307.01,279.39,305.99,279.39z M306.5,274.05
			c-0.79,0-1.39,0.22-1.8,0.65c-0.34,0.37-0.53,0.89-0.53,1.46c0,1.11,0.69,2.31,1.82,2.31c0.76,0,1.33-0.19,1.69-0.55
			c0.37-0.38,0.45-0.9,0.45-1.27C308.13,275.44,307.26,274.05,306.5,274.05z"/>
	</g>
	<path id="XMLID_776_" class="st8" d="M294.34,283.1c-2.72,5.9-2.07,41.58-4.2,22.9c-1.2-10.57-0.69-12.94-0.33-14.71
		c3.25-16.02,0.5-17.27,5.18-14.94C296.15,276.94,295.94,279.63,294.34,283.1z"/>
	<path id="XMLID_778_" class="st8" d="M305.45,282.41c2.72,5.9,2.07,41.58,4.2,22.9c1.2-10.57,0.69-12.94,0.33-14.71
		c-3.25-16.02-0.5-17.27-5.18-14.94C303.63,276.24,303.85,278.93,305.45,282.41z"/>
</g>
</svg>
