<?xml version="1.0" encoding="utf-8"?>
<!-- Generator: Adobe Illustrator 25.3.0, SVG Export Plug-In . SVG Version: 6.00 Build 0)  -->
<svg version="1.1" id="Layer_1" xmlns="http://www.w3.org/2000/svg" xmlns:xlink="http://www.w3.org/1999/xlink" x="0px" y="0px"
	 viewBox="0 0 595.28 841.89" style="enable-background:new 0 0 595.28 841.89;" xml:space="preserve">
<style type="text/css">
	.st0{fill:#E94750;}
	.st1{fill:#4D3932;}
	.st2{fill:#F3998C;}
	.st3{fill:#392924;}
	.st4{fill:#ED7A5C;}
	.st5{fill:#FFFFFF;}
	.st6{fill:#F3998B;}
	.st7{fill:#F2E8DE;}
	.st8{fill:#FFFFFC;}
	.st9{fill:#333D4D;}
	.st10{fill:#EF7A5D;}
	.st11{fill:#E95B4B;}
	.st12{fill:#BE3030;}
</style>
<g id="XMLID_190_">
	<path id="XMLID_449_" class="st0" d="M284.75,256.35c-3.96-2.25,28.73-1.63,25.02,0C301.15,260.13,289.37,258.97,284.75,256.35z"/>
	<path id="XMLID_1249_" class="st1" d="M253.67,284.56c2.84-4.7,8.22-8.28,8.72-13.72c0.46-5.09-3.63-9.44-4.87-14.41
		c-2.52-10.12,6.53-14.62,8.33-17.01c5.36-7.1-3.28-33.54,13.6-44.67c5.6-3.69,13.84-3.91,18.7,0.67c2.94-0.91,6.9-3.44,11.24-2.15
		c4.77,1.42,12.68,11.67,13.77,18.35c1.24,7.65-2.76,15.87,0.31,23.01c2.77,6.44,12.32,10.98,10.31,25.15
		c-0.24,1.71-3.63,8.34-4.75,9.68c-3.53,4.24,2.63,10.97,4.01,16.28L253.67,284.56z"/>
	<g id="XMLID_54_">
		<path id="XMLID_217_" class="st2" d="M330.39,280.83c-13.46-9.25-25.99-9.05-20.87-33.07l-23.17-1.38
			c-0.94,17.83,0.28,19.1-7.54,25.68c-1.72,1.45-12.7,7.46-12.7,7.46C283.53,294.31,315.36,293.09,330.39,280.83z"/>
		<path id="XMLID_188_" class="st2" d="M276.6,215.45c-4.67,35.24,26.28,55.02,37.31,26.77C333.82,191.23,280.4,186.77,276.6,215.45
			z"/>
		<g id="XMLID_182_">
			<path id="XMLID_184_" class="st2" d="M318.87,226.31c-3.52-1.02-3.76,6.21-3.78,9.8C315.05,243.18,324.41,227.92,318.87,226.31z"
				/>
		</g>
		<g id="XMLID_169_">
			<path id="XMLID_173_" class="st2" d="M275.07,225.85c3.53-1.01,3.73,6.23,3.73,9.82C278.8,242.75,269.51,227.44,275.07,225.85z"
				/>
		</g>
		<path id="XMLID_168_" class="st3" d="M286.43,229.44c-1.22,0-2.16-4.55,0.8-4.55C288.81,224.89,288.43,229.44,286.43,229.44z"/>
		<path id="XMLID_143_" class="st3" d="M307.36,229.49c1.22,0,2.19-4.54-0.77-4.55C305,224.94,305.36,229.48,307.36,229.49z"/>
		<path id="XMLID_141_" class="st1" d="M288.65,219.09c1.96,0.12,1.87,1.66,0.42,2.03c-1.94,0.5-2.34-0.2-6.5,1.2
			C277.98,223.87,283.41,218.75,288.65,219.09z"/>
		<path id="XMLID_138_" class="st1" d="M303.94,219.54c-1.97,0.04-1.94,1.58-0.51,2.01c1.91,0.58,2.64-0.01,6.44,1.48
			C314.38,224.81,309.24,219.43,303.94,219.54z"/>
		<path id="XMLID_133_" class="st4" d="M294.36,236.83c4.19,1.68,3.91-0.27,2.67-0.19c-4.15,0.27,0.01-1.49,0.15-8.22
			c0.01-0.71-0.82-0.72-0.91-0.13c-0.06,0.4-0.11,1.88-0.2,2.31C294.88,235.84,293.02,236.29,294.36,236.83z"/>
		<path id="XMLID_128_" class="st5" d="M302.35,242.93c0.39-0.11,0.69,0.33,0.44,0.64c-7.59,9.49-13.22-0.32-11.93-0.76
			C293.47,241.92,297.61,244.22,302.35,242.93z"/>
		<g id="XMLID_122_">
			<path id="XMLID_125_" class="st4" d="M275.81,229.39c0.1-0.33,0.61-0.17,0.51,0.15c-0.63,1.99-0.01,3.15,0.82,3.61
				c0.13,0.07,0.17,0.23,0.1,0.35C276.77,234.34,274.92,232.23,275.81,229.39z"/>
		</g>
		<g id="XMLID_111_">
			<path id="XMLID_112_" class="st4" d="M317.52,233.63c0.77-0.87,0.63-2.23,0.44-3.43c-0.05-0.34,0.47-0.42,0.52-0.08
				C319.19,234.64,316.82,234.42,317.52,233.63z"/>
		</g>
		<g id="XMLID_107_">
			<path id="XMLID_109_" class="st4" d="M287.11,250.54c7.06,7.64,17.9,4.92,20.9,0.59c1.18-1.68,0.1,4.1-8.9,4.71
				C289.16,256.51,285.08,248.33,287.11,250.54z"/>
		</g>
	</g>
	<g id="XMLID_374_">
		<path id="XMLID_373_" class="st6" d="M272.87,630.81c2.67,7.58,12.15,7.52,13.5-1.14l-0.11-20.94l-16.86-0.11L272.87,630.81z"/>
		<path id="XMLID_365_" class="st6" d="M318.76,630.77c2.46,7.65,11.93,7.84,13.52-0.78l0.47-20.94l-16.85-0.56L318.76,630.77z"/>
		<g id="XMLID_332_">
			<g id="XMLID_360_">
				<path class="st7" d="M247.23,651.76c-0.5-0.77-0.6-1.76-0.27-2.62c0.97-2.49,26.9-18.99,25.91-18.33
					c4.77,2.9,11.12,1.39,13.5-1.14c1.66,3.34,6.47,15.37,1.73,16.61C285.26,647.03,249.36,655.01,247.23,651.76z"/>
				<path class="st8" d="M251.1,653c-2.28,0-3.84-0.28-4.29-0.96c-0.59-0.9-0.71-2.05-0.31-3.07c0.93-2.39,20.89-15.26,25.49-18.11
					l-0.04-0.03l0.65-0.43l0.04,0.06c0.17-0.1,0.27-0.16,0.28-0.16c0,0,0.36,0.02,0.36,0.02l0.05,0.19
					c4.59,2.63,10.54,1.09,12.67-1.18l0.49-0.52l0.32,0.64c1.42,2.85,5.08,11.83,3.36,15.63c-0.4,0.88-1.06,1.45-1.95,1.68
					C287.9,646.85,261.74,653,251.1,653z M272.87,631.39c-3.2,1.99-24.67,15.94-25.45,17.93c-0.27,0.71-0.19,1.54,0.22,2.17
					c1.74,2.66,34.43-4.14,40.32-5.68c0.6-0.16,1.02-0.53,1.3-1.13c1.35-2.98-1.36-10.55-3.05-14.18
					C283.5,632.77,277.62,634.1,272.87,631.39z"/>
			</g>
			<g id="XMLID_333_">
				<g id="XMLID_357_">
					<path class="st8" d="M260.99,645.67c-1.07,0-2.3-0.35-3.22-0.79c-0.8-0.38-1.81-1.04-2.07-1.99c-0.15-0.53,0.16-1.07,0.69-1.22
						c0.53-0.14,1.07,0.16,1.22,0.68c0.06,0.13,0.45,0.52,1.34,0.88c1.16,0.47,2.22,0.53,2.54,0.39c0.5-0.22,1.08,0.01,1.3,0.51
						c0.22,0.5-0.01,1.08-0.51,1.3C261.9,645.6,261.46,645.67,260.99,645.67z"/>
				</g>
				<g id="XMLID_354_">
					<path class="st8" d="M266.29,641.97c-2.06,0-4.09-1.06-5.19-2.79c-0.3-0.46-0.16-1.07,0.3-1.37c0.46-0.3,1.07-0.16,1.37,0.3
						c0.82,1.28,2.47,2.04,4,1.85c0.54-0.06,1.04,0.32,1.1,0.86c0.07,0.54-0.32,1.04-0.86,1.1
						C266.77,641.96,266.53,641.97,266.29,641.97z"/>
				</g>
				<g id="XMLID_334_">
					<path class="st8" d="M270.97,638.39c-1.86,0-3.71-0.69-5.09-1.91c-0.41-0.36-0.45-0.99-0.08-1.4c0.36-0.41,0.99-0.45,1.4-0.08
						c1.16,1.03,2.79,1.54,4.35,1.38c0.55-0.06,1.03,0.34,1.09,0.88c0.06,0.54-0.34,1.03-0.88,1.09
						C271.49,638.38,271.23,638.39,270.97,638.39z"/>
				</g>
			</g>
		</g>
		<g id="XMLID_315_">
			<g id="XMLID_327_">
				<path class="st7" d="M292.55,651.02c-1.44-2.34,0.78-4.35,3.1-5.81c10.82-6.82,23.11-14.44,23.11-14.44
					c4.69,3.03,11.08,1.68,13.52-0.78c1.38,2.98,6.18,15.51,1.19,16.67C330.6,647.32,294.6,654.37,292.55,651.02z"/>
				<path class="st8" d="M297.19,652.36c-2.72,0-4.6-0.31-5.07-1.08c-1.3-2.12-0.21-4.3,3.26-6.49
					c10.69-6.75,22.99-14.37,23.11-14.45l0.27-0.17l0.26,0.17c4.53,2.93,10.67,1.54,12.9-0.71l0.5-0.5l0.3,0.64
					c1.34,2.88,4.74,11.94,2.92,15.68c-0.44,0.9-1.13,1.46-2.07,1.68C333.27,647.21,308.27,652.36,297.19,652.36z M292.97,650.76
					c1.68,2.74,34.23-3.16,40.39-4.59c0.64-0.15,1.1-0.52,1.4-1.15c1.45-2.97-1.01-10.47-2.65-14.22c-2.77,2.2-8.69,3.37-13.35,0.54
					c-1.84,1.14-13.02,8.08-22.84,14.28C291.97,648.12,292.34,649.75,292.97,650.76L292.97,650.76z"/>
			</g>
			<g id="XMLID_318_">
				<g id="XMLID_324_">
					<path class="st8" d="M305.82,646.35c-0.05,0-0.1,0-0.15-0.01c-1.3-0.19-4.75-0.71-5.01-3.66c-0.05-0.54,0.36-1.02,0.9-1.07
						c0.55-0.03,1.02,0.36,1.07,0.9c0.06,0.65,0.48,1.45,3.32,1.87c0.54,0.08,0.91,0.58,0.83,1.12
						C306.73,645.99,306.31,646.35,305.82,646.35z"/>
				</g>
				<g id="XMLID_320_">
					<path class="st8" d="M310.94,642.57c-2.11-0.08-4.12-1.18-5.29-2.85c-0.31-0.45-0.21-1.06,0.24-1.38
						c0.45-0.31,1.07-0.2,1.38,0.24c0.83,1.18,2.25,1.95,3.71,2.01c0.55,0.02,0.97,0.48,0.95,1.03
						C311.91,642.15,311.47,642.57,310.94,642.57z"/>
				</g>
				<g id="XMLID_319_">
					<path class="st8" d="M315.27,639.18c-1.67,0-3.68-1.05-4.42-2.02c-0.33-0.44-0.24-1.06,0.19-1.39
						c0.44-0.33,1.06-0.24,1.39,0.19c0.46,0.61,2.39,1.48,3.2,1.19c0.51-0.19,1.08,0.08,1.27,0.6c0.18,0.52-0.08,1.08-0.6,1.27
						C315.98,639.13,315.64,639.18,315.27,639.18z"/>
				</g>
			</g>
		</g>
	</g>
	<path id="XMLID_266_" class="st9" d="M294.18,619.68c-0.03,1.15-0.99,2.08-2.17,2.08c-28.57,0.14-29.42,0.91-29.53-1.92
		c-8.77-219.16-8.5-205.02-7.74-210.56c2.19-16.07,6.87-38.58,11.65-48.54c20,0.13,42.94-0.28,63.16-1.02
		c5.6,10.06,11.84,32.97,14.57,48.64c1.22,6.99-4.66,212-4.64,211.02c-0.03,1.15-0.99,2.08-2.16,2.09
		c-28.38,0.28-29.27,1.05-29.39-1.79l-7.87-187.79C299.35,426.24,294.16,620.68,294.18,619.68z"/>
	<g id="XMLID_450_">
		<g id="XMLID_453_">
			<path class="st8" d="M300.27,420.83c-0.19,0-0.38-0.11-0.46-0.3c-3.41-8.04-4.99-16.88-4.57-25.57c0.01-0.27,0.25-0.49,0.52-0.47
				c0.27,0.01,0.48,0.24,0.47,0.52c-0.41,8.54,1.15,17.24,4.5,25.14c0.11,0.25-0.01,0.54-0.26,0.65
				C300.4,420.82,300.33,420.83,300.27,420.83z"/>
		</g>
		<g id="XMLID_452_">
			<path class="st8" d="M256.37,401.52c-0.14,0-0.29-0.06-0.39-0.18c-0.17-0.21-0.14-0.52,0.07-0.7l0.74-0.6
				c6.52-5.24,9.22-7.42,13.33-33.85c0.04-0.27,0.3-0.45,0.57-0.41c0.27,0.04,0.46,0.3,0.41,0.57
				c-4.18,26.82-6.96,29.06-13.69,34.47l-0.74,0.6C256.58,401.48,256.47,401.52,256.37,401.52z"/>
		</g>
		<g id="XMLID_451_">
			<path class="st8" d="M340.7,401.39c-0.07,0-0.15-0.02-0.22-0.05c-8.56-4.31-9.87-4.97-18.79-35.71
				c-0.08-0.26,0.07-0.54,0.34-0.61c0.27-0.08,0.54,0.08,0.61,0.34c8.8,30.33,10.07,30.96,18.29,35.1c0.24,0.12,0.34,0.42,0.22,0.66
				C341.06,401.29,340.88,401.39,340.7,401.39z"/>
		</g>
	</g>
	<g id="XMLID_445_">
		<g id="XMLID_413_">
			<path id="XMLID_397_" class="st10" d="M292.19,428.17c2.44-0.2,10.46-1.27,10.78-6.89c0.42-7.35-11.17-4.54-12.77,2.39
				C289.8,425.4,290.53,428.31,292.19,428.17z"/>
			<path id="XMLID_443_" class="st6" d="M324.33,387.92l11.94,8.35c-12.89,13.89-31.65,35.13-36.43,34.37
				c-17.54-2.76-2.37-6.34,0.03-8.19c4.17-3.21-2.96-6.22-5.36-4c-1.53,1.41-0.91,4.52-3.12,5.28c-0.8,0.27-1.7-0.08-1.86-0.89
				c-0.25-1.23,2.34-2.69,0.98-3.58c-0.97-0.64-0.3-4.18,3.19-5.82C315.67,403.07,302.7,423.63,324.33,387.92z"/>
		</g>
		<g id="XMLID_391_">
			<g id="XMLID_388_">
				<path id="XMLID_393_" class="st10" d="M301.83,413.84c-0.74-1.53,2.31-2.36,2.49-0.15c0.06,0.72-0.38,1.43-1,1.84
					c1.44,0.81,2.85-1.85,4.32-1.21c2.79,1.2-4.21,14.46-12.14,10.16c-1.7-0.92-0.14-1.99,0.64-3.08
					C301.38,414.11,297.73,407.88,301.83,413.84z"/>
			</g>
			<path id="XMLID_441_" class="st6" d="M261.05,398.12l9.25-10.19l13.85,22.1c11.65,2.38,16.57,0.28,20.57,6.57
				c0.27,0.42,0.06,0.98-0.43,1.1c-2.45,0.56-4.13-1.01-4.95-1.42c-3.39-1.68-10.17,2.25-4.33,6.44c8.22,5.9,12.35-4.95,15.43-5.07
				c2.79-0.11,0.42,4.31-5.96,9.6c-3.6,2.99-3.48,0.83-9.45,1.04C291.43,428.41,295.18,429.84,261.05,398.12z"/>
			<g id="XMLID_427_">
				<path class="st10" d="M300.34,429.25c-0.8,0-1.46-0.23-2.09-0.44c-0.6-0.2-1.12-0.38-1.67-0.29c-2.88,0.46-4.62,0.31-5.17-0.45
					c-0.27-0.37-0.18-0.79-0.08-0.97c0.06-0.12,0.21-0.17,0.33-0.11c0.12,0.06,0.17,0.21,0.11,0.33c-0.01,0.01-0.11,0.25,0.04,0.46
					c0.2,0.27,1.05,0.82,4.68,0.24c0.67-0.11,1.27,0.1,1.91,0.31c2.01,0.68,4.76,1.62,12.57-8.61c0.5-0.65,0.57-1.31,0.17-1.67
					c-0.36-0.33-1.07-0.35-1.74,0.25c-8.63,7.77-13.18,6.26-14.73,5.24c-1.71-1.11-2.46-3.23-1.83-5.16
					c0.63-1.91,2.4-2.97,4.71-2.83c0.82,0.05,1.54,0.42,2.23,0.78c0.39,0.2,0.79,0.41,1.19,0.55c2.66,0.94,3.43,0.59,3.64,0.4
					c0.14-0.13,0.18-0.35,0.1-0.63c-0.36-1.31-3-3.67-6.32-4.39c-0.13-0.03-0.22-0.16-0.19-0.29c0.03-0.13,0.16-0.22,0.29-0.19
					c3.28,0.71,6.23,3.09,6.69,4.74c0.16,0.59-0.04,0.94-0.24,1.12c-0.6,0.56-2,0.46-4.14-0.29c-0.44-0.15-0.85-0.37-1.26-0.58
					c-0.68-0.35-1.32-0.69-2.03-0.73c-2.09-0.12-3.66,0.81-4.21,2.49c-0.56,1.71,0.11,3.6,1.63,4.59c3.03,1.98,8.32,0.04,14.13-5.2
					c0.89-0.8,1.88-0.73,2.41-0.25c0.45,0.42,0.69,1.28-0.12,2.34C305.55,427.66,302.46,429.25,300.34,429.25z"/>
			</g>
		</g>
	</g>
	<g id="XMLID_268_">
		<path class="st8" d="M283.15,268.64c5.82,5.75,21.33,5.75,28.91,0.6c0.6-0.41-1.87-1.14,23.8,8.81
			c3.66,20.53,5.84,71.31-6.33,81.67c-14.93,12.72-53.14,10.86-63.16,1.02c-15.03-14.78-7.07-58.04-5.2-83.85
			C261.93,275.82,282.29,267.79,283.15,268.64z"/>
		<path class="st7" d="M296.52,369.16c-12.85,0-25.2-2.87-30.49-8.07c-12.55-12.33-9.33-43.86-6.74-69.2
			c0.55-5.4,1.07-10.49,1.4-15.04l0.01-0.14l0.08-0.11c0.88-1.24,18.88-8.24,21.89-8.51c0.29-0.02,0.61-0.02,0.83,0.19
			c5.54,5.47,20.61,5.76,28.29,0.54c0.42-0.54,0.42-0.54,9.01,2.82c3.44,1.35,8.32,3.25,15.25,5.94l0.26,0.1l0.05,0.27
			c3.27,18.31,6.21,71.31-6.49,82.14C322.56,366.32,309.29,369.16,296.52,369.16z M261.66,277.11c-0.33,4.52-0.85,9.55-1.39,14.88
			c-2.56,25.12-5.75,56.39,6.45,68.39c10.3,10.12,48.13,11.19,62.49-1.04c11.55-9.84,10.16-58.43,6.21-80.93
			c-6.79-2.63-11.59-4.51-14.99-5.84c-5.35-2.09-7.43-2.9-7.98-3.02c-0.03,0.03-0.07,0.07-0.12,0.1
			c-7.96,5.41-23.59,5.08-29.46-0.58C280.8,268.87,263.38,275.85,261.66,277.11z"/>
	</g>
	<g id="XMLID_276_">
		<path class="st11" d="M236.11,302.28c-17.58,71.93-14.63,57.5,40.41,112.23c1.44,1.43,10.69-4.55,9.55-6.57l-31.15-54.86
			c6.36-24.59-4.5-50.46,13.01-70.43c2.19-2.5,14.82-14.44,14.82-14.44C249.72,277.83,242.33,276.83,236.11,302.28z"/>
		<path class="st12" d="M277.21,415.22c-0.43,0-0.79-0.11-1.04-0.35c-8.95-8.9-16.67-16.1-22.86-21.89
			c-32.47-30.31-32.47-30.31-18.12-89.01l0.44-1.8c5.58-22.82,12.16-24.66,36.63-31.49c3.14-0.88,6.58-1.84,10.36-2.93l1.97-0.57
			l-1.49,1.41c-0.13,0.12-12.64,11.95-14.79,14.4c-10.77,12.28-10.69,26.75-10.6,42.06c0.05,9.18,0.11,18.68-2.26,27.97l31.05,54.69
			c0.78,1.38-1.44,3.37-2.84,4.44C281.87,413.5,278.94,415.22,277.21,415.22z M236.11,302.28l0.48,0.12l-0.44,1.8
			c-14.21,58.13-14.21,58.13,17.83,88.05c6.2,5.79,13.92,13,22.88,21.91c0.43,0.42,3.37-0.67,6.19-2.82
			c2.22-1.7,2.76-2.84,2.58-3.16l-31.25-55.03l0.05-0.19c2.39-9.23,2.33-18.73,2.28-27.91c-0.09-15.51-0.18-30.16,10.84-42.72
			c1.75-2,9.96-9.83,13.38-13.07c-3.02,0.87-5.82,1.65-8.41,2.37c-24.03,6.71-30.49,8.51-35.93,30.77L236.11,302.28z"/>
	</g>
	<g id="XMLID_286_">
		<path class="st11" d="M358.93,302.98c17.57,71.91,13.03,52.06-39.07,113.16c-1.25,1.46-9.99-6.71-9.07-8.4l29.33-53.97
			c-6.36-24.59,4.5-50.46-13.01-70.43c-1.53-1.74-14.64-14.39-14.64-14.39C345.32,278.53,352.71,277.54,358.93,302.98z"/>
		<path class="st12" d="M319.43,416.81c-0.61,0-1.46-0.38-2.57-1.13c-2.31-1.59-7.46-6.42-6.51-8.17l29.24-53.8
			c-2.37-9.29-2.31-18.79-2.26-27.98c0.09-15.31,0.17-29.78-10.6-42.06c-1.5-1.71-14.48-14.23-14.61-14.36l-1.44-1.39l1.93,0.56
			c3.76,1.1,7.18,2.05,10.31,2.93c24.36,6.81,30.91,8.64,36.49,31.45l0.24,0.97c13.64,55.8,13.64,55.8-12.25,82.83
			c-7.13,7.45-16.01,16.72-27.16,29.8C320.04,416.7,319.77,416.81,319.43,416.81z M314.25,269.99c3.46,3.35,12,11.62,13.23,13.03
			c11.02,12.56,10.93,27.21,10.84,42.72c-0.05,9.18-0.11,18.68,2.28,27.91l0.05,0.19l-0.09,0.17l-29.33,53.97
			c-0.13,0.28,0.58,1.77,2.9,4.08c2.81,2.8,4.99,3.93,5.37,3.75c11.16-13.09,20.05-22.38,27.19-29.83
			c25.51-26.64,25.51-26.64,12-81.91l-0.24-0.97c-5.44-22.25-11.87-24.04-35.79-30.73C320.07,271.64,317.27,270.86,314.25,269.99z"
			/>
	</g>
	<g id="XMLID_448_">
		<path class="st11" d="M313.19,269.16c-6.99,6.43-25.55,7.37-31.55-0.62c6.1-23.85-1.57-4.19,27.58-12.04
			C310.12,256.25,309.93,256.94,313.19,269.16z"/>
		<path class="st12" d="M296.82,274.76c-0.96,0-1.92-0.04-2.88-0.13c-5.79-0.53-10.3-2.58-12.71-5.79l-0.14-0.19l0.06-0.23
			c0.59-2.29,1.04-4.17,1.42-5.72c1.14-4.71,1.53-6.29,2.5-6.79c0.68-0.35,1.39-0.05,2.48,0.39c2.65,1.08,8.17,3.32,21.53-0.28
			c0.14-0.04,0.46-0.12,0.77,0.06c0.55,0.32,0.74,1.07,1.8,5.25c0.47,1.84,1.1,4.33,2,7.7l0.08,0.29l-0.22,0.2
			C310.02,272.75,303.44,274.76,296.82,274.76z M282.17,268.43c2.27,2.87,6.47,4.72,11.86,5.21c7.12,0.65,14.7-1.25,18.6-4.64
			c-0.86-3.23-1.47-5.63-1.93-7.42c-0.73-2.86-1.13-4.44-1.36-4.65c-13.68,3.74-19.41,1.41-22.16,0.29
			c-0.81-0.33-1.39-0.56-1.66-0.43c-0.56,0.29-1.04,2.24-1.99,6.14C283.17,264.43,282.73,266.24,282.17,268.43z"/>
	</g>
	<path id="XMLID_1243_" class="st1" d="M327.16,240.11c-2.61-7.6,4.61-29.12-4.85-41.43c-8.6-11.19-29.7-7.05-24.08,2.08
		C323.93,242.59,307.27,221.89,327.16,240.11z"/>
	<path id="XMLID_1242_" class="st1" d="M265.85,239.42c2.75-8,1.35-31.83,8.21-40.74c8.09-10.53,23.76-6.23,24.56-3.26
		c0.29,1.87,2.29,6.2,0.7,7.28c-18.88,12.9-18.25,16.59-20.75,28.46C277.5,236.22,266.19,239.25,265.85,239.42z"/>
	<g id="XMLID_454_">
		<g id="XMLID_532_">
			<path id="XMLID_533_" class="st3" d="M298.29,195.14c0.06-0.53,0.87-0.43,0.81,0.09c-0.26,2.16-0.41,4.4,0.85,5.92
				C300.76,202.14,297.36,202.96,298.29,195.14z"/>
		</g>
		<g id="XMLID_530_">
			<path id="XMLID_531_" class="st3" d="M281.99,196.06c4.79-5.28,16.17-1.4,14.95-0.02c-0.15,0.17-0.41,0.18-0.58,0.04
				c-2.17-1.86-10.2-3.4-13.77,0.52C282.24,196.99,281.63,196.45,281.99,196.06z"/>
		</g>
		<g id="XMLID_528_">
			<path id="XMLID_529_" class="st3" d="M297.37,197.83c0.55,0.02,0.48,0.84-0.04,0.8c-1.62-0.07-3.26,0.22-4.74,0.84
				C291.5,199.92,291.59,197.57,297.37,197.83z"/>
		</g>
		<g id="XMLID_526_">
			<path id="XMLID_527_" class="st3" d="M283.48,210.17c2.8-5.14,11.13-4.69,13.5-9.63c0.23-0.48,0.97-0.13,0.74,0.34
				c-2.55,5.3-10.9,4.85-13.52,9.66C283.95,211.01,283.23,210.64,283.48,210.17z"/>
		</g>
		<g id="XMLID_524_">
			<path id="XMLID_525_" class="st3" d="M305.81,210.48c-2.33-2.92-1.14-9.26-5.27-9.61c-2.05-0.17,2.88-3.36,4.49,5.26
				c0.26,1.37,0.57,2.79,1.42,3.86C306.79,210.4,306.14,210.89,305.81,210.48z"/>
		</g>
		<g id="XMLID_522_">
			<path id="XMLID_523_" class="st3" d="M301.04,198c-0.57,0.09-1.53-1.62,3-0.4c1.03,0.28,2,0.54,2.95,0.33
				c0.52-0.12,0.71,0.66,0.18,0.78C305.02,199.18,302.97,197.7,301.04,198z"/>
		</g>
		<g id="XMLID_511_">
			<path id="XMLID_521_" class="st3" d="M301.49,194.98c3.1-1.89,6.92-2.51,10.47-1.72c0.53,0.12,0.34,0.9-0.18,0.78
				c-3.35-0.75-6.94-0.16-9.86,1.62C301.46,195.94,301.03,195.26,301.49,194.98z"/>
		</g>
		<g id="XMLID_507_">
			<path id="XMLID_520_" class="st3" d="M275.21,203.72c0.32-0.42,0.98,0.06,0.65,0.48c-2.9,3.79-4.43,8.49-4.3,13.22
				C271.64,220.19,268.33,212.7,275.21,203.72z"/>
		</g>
		<g id="XMLID_491_">
			<path id="XMLID_519_" class="st3" d="M270.95,230.89c2.67-0.6,7.41-5.21,6.82-10.64c-0.06-0.53,0.76-0.6,0.81-0.08
				c0.62,5.73-4.33,10.79-7.45,11.5C270.61,231.79,270.42,231.01,270.95,230.89z"/>
		</g>
		<g id="XMLID_488_">
			<path id="XMLID_518_" class="st3" d="M311.39,217.39c0-0.53,0.82-0.53,0.82,0c0,1.13,0.34,6.99,6.97,11.84
				c0.18,0.13,0.22,0.38,0.08,0.56C318.52,230.77,311.39,224.18,311.39,217.39z"/>
		</g>
		<g id="XMLID_485_">
			<path id="XMLID_517_" class="st3" d="M320.73,223.26c-2.22-3.75,0.46-8.25,0.7-11.9c0.29-4.38-2.83-8.84-7.11-10.15
				c-0.22-0.07-0.33-0.29-0.27-0.5c0.41-1.3,8.71,2.96,8.19,10.7c-0.25,3.69-2.82,8.05-0.81,11.44
				C321.71,223.32,321,223.72,320.73,223.26z"/>
		</g>
		<g id="XMLID_475_">
			<path id="XMLID_516_" class="st3" d="M266.34,270.22c3.17-18-15.74-17.17,5.5-30.69c0.45-0.29,0.9,0.38,0.44,0.67
				c-20.65,13.14-1.87,11.57-5.14,30.16C267.05,270.88,266.25,270.75,266.34,270.22z"/>
		</g>
		<g id="XMLID_462_">
			<path id="XMLID_515_" class="st3" d="M278.89,266.5c1.55-2.21-1.31-7.44,0.73-9.44c0.38-0.37,0.96,0.19,0.58,0.57
				c-1.61,1.58,1.14,6.81-0.63,9.33C279.26,267.39,278.59,266.94,278.89,266.5z"/>
		</g>
		<g id="XMLID_461_">
			<path id="XMLID_514_" class="st3" d="M272.49,266.35c3.98-6.36-1.91-9.02,1.84-15.54c0.27-0.46,0.98-0.07,0.71,0.39
				c-3.54,6.17,2.34,8.87-1.85,15.57C272.91,267.22,272.21,266.8,272.49,266.35z"/>
		</g>
		<g id="XMLID_458_">
			<path id="XMLID_513_" class="st3" d="M312.59,255.36c0.05-0.53,0.86-0.45,0.81,0.08c-0.3,3.15-0.85,8.03,2,11.2
				C316.62,267.98,311.38,268.12,312.59,255.36z"/>
		</g>
		<g id="XMLID_457_">
			<path id="XMLID_512_" class="st3" d="M321,268.19c-3.89-5.31,0.68-6.91-1.75-16c-0.14-0.51,0.65-0.71,0.79-0.2
				c2.48,9.28-2.01,10.77,1.62,15.74C321.98,268.15,321.32,268.62,321,268.19z"/>
		</g>
		<g id="XMLID_455_">
			<path id="XMLID_456_" class="st3" d="M327.54,257.86c6.54-10.81-3.92-18.73-6.92-18.73c-0.54,0-0.54-0.8,0-0.8
				c3.65,0,14.48,8.59,7.62,19.94c-2.2,3.64-3.53,9.65-1.82,13.01c0.1,0.2,0.02,0.44-0.18,0.54
				C324.9,272.46,323.46,264.6,327.54,257.86z"/>
		</g>
	</g>
</g>
</svg>
