<?xml version="1.0" encoding="utf-8"?>
<!-- Generator: Adobe Illustrator 25.3.0, SVG Export Plug-In . SVG Version: 6.00 Build 0)  -->
<svg version="1.1" id="Layer_1" xmlns="http://www.w3.org/2000/svg" xmlns:xlink="http://www.w3.org/1999/xlink" x="0px" y="0px"
	 viewBox="0 0 595.28 841.89" style="enable-background:new 0 0 595.28 841.89;" xml:space="preserve">
<style type="text/css">
	.st0{fill:#F5A88D;}
	.st1{fill:#392924;}
	.st2{fill:#4D3932;}
	.st3{fill:#EF7A5D;}
	.st4{fill:#FFFFFF;}
	.st5{fill:#333D4E;}
	.st6{fill:#F2E8DE;}
	.st7{fill:#73899A;}
	.st8{fill:#3E4B61;}
	.st9{fill:#834C4D;}
	.st10{fill:#FFFFFC;}
	.st11{fill:#E6D7D6;}
</style>
<g id="XMLID_832_">
	<g id="XMLID_820_">
		<path id="XMLID_926_" class="st0" d="M287.85,239.95c0.14,11.33,3.89,19.73-16.94,29.53c12.4,17.06,24.62,23.37,24.62,23.37
			s26.13-11.76,35.11-19.54c-11.05-8.04-19.07-9-18.87-19.78c0.05-2.59-0.07-13.16-0.14-13.37L287.85,239.95z"/>
		<path id="XMLID_924_" class="st0" d="M291.54,251.48c4.57,3.09,9.97,2.43,15.44,0.93c5.92-1.62,16.47-18.24,13.68-40.04
			c-3.5-27.34-42.85-27.58-41.49,8.94C279.54,231.31,283.21,245.84,291.54,251.48z"/>
		<g id="XMLID_985_">
			<path id="XMLID_1335_" class="st1" d="M305.25,201.44c-0.44-0.74,1-10.43,1.48-11.47c3.49-7.63,16.47,0.65,18.37,7.3
				c1.27,4.43,0.69,19.15-4.28,30.13c-0.39-4.56-2.55-10.33-4.05-14.65C312.52,200.5,306.43,203.41,305.25,201.44z"/>
			<path id="XMLID_1334_" class="st1" d="M309.5,195.39c1.04-3.08,1.63-4.85,0.24-7.66c-0.73-1.46-15.24-16.36-30.08,4.92
				c-5.47,7.84-8.48,13.32,0.22,35.57c1.86-2.45,0.34-6.76,1.96-9.7c3.39-6.13,11.43-6.21,21.2-10.18
				C306.2,207.07,308.43,198.57,309.5,195.39z"/>
			<g id="XMLID_1310_">
				<g id="XMLID_1327_">
					<path id="XMLID_984_" class="st2" d="M306.59,200.54c0.02-0.07,2.45-6.92,2.11-11.4c-0.12-1.57,2.81,0.02-1.36,11.67
						C307.17,201.32,306.41,201.05,306.59,200.54z"/>
				</g>
				<g id="XMLID_1325_">
					<path id="XMLID_983_" class="st2" d="M291.65,189.6c-0.83-0.29,1.34-4.28,5.22-5.28c4.27-1.1,9.62,2.74,8.91,3.54
						c-0.15,0.17-0.4,0.18-0.57,0.03c-6.94-6.19-12.11-1.21-13.05,1.46C292.09,189.56,291.85,189.67,291.65,189.6z"/>
				</g>
				<g id="XMLID_1323_">
					<path id="XMLID_982_" class="st2" d="M289.05,201.36c-0.6-0.55,3.94-5.43,8.58-5.69c3.78-0.21,5.24-4.58,7.31-2.28
						c0.36,0.4-0.24,0.93-0.6,0.54c-0.82-0.91-2.14,0.31-3.05,1.14c-3.58,3.28-4.56-1.47-11.69,6.26
						C289.47,201.5,289.21,201.51,289.05,201.36z"/>
				</g>
				<g id="XMLID_1321_">
					<path id="XMLID_981_" class="st2" d="M287.99,210.51c-0.51-0.01-0.54-0.78,0.01-0.8c4.15,0.09,13.27-3.76,14.86-6.77
						c0.25-0.47,0.96-0.09,0.71,0.38C302.06,206.17,293.27,210.61,287.99,210.51z"/>
				</g>
				<g id="XMLID_1319_">
					<path id="XMLID_980_" class="st2" d="M280.29,200.28c0.29-0.45,0.96-0.01,0.68,0.44c-1.85,2.86-2.45,6.51-1.62,9.81
						c0.21,0.13,0.24,0.41,0.14,0.58C278.38,213.05,276.81,205.66,280.29,200.28z"/>
				</g>
				<g id="XMLID_1317_">
					<path id="XMLID_979_" class="st2" d="M320.82,198.32c-1.31-2.68-4.41-4.59-6.91-5.29c-0.21-0.06-0.34-0.28-0.28-0.5
						c0.51-1.83,9.59,5.06,7.73,5.97C321.16,198.6,320.92,198.52,320.82,198.32z"/>
				</g>
				<g id="XMLID_1315_">
					<path id="XMLID_978_" class="st2" d="M315.22,198.36c-0.97-1.25-2.34-2.19-3.86-2.66c-1.26-0.38,1.14-2.15,4.49,2.16
						C316.18,198.29,315.55,198.78,315.22,198.36z"/>
				</g>
				<g id="XMLID_1313_">
					<path id="XMLID_977_" class="st2" d="M317.93,208.77c-0.11-1.69-2.86-7.5-6.21-8.24c-0.22-0.05-0.35-0.26-0.31-0.48
						c0.37-1.67,6.97,3.49,7.32,8.67C318.76,209.25,317.96,209.3,317.93,208.77z"/>
				</g>
				<g id="XMLID_1311_">
					<path id="XMLID_976_" class="st2" d="M321.7,212.71l0.4-0.04l-0.4,0.02c-0.05-0.53,1.26-7.26,1.36-7.83
						c0.1-0.53,0.89-0.37,0.79,0.15c-0.07,0.37-1.39,7.22-1.35,7.59C322.01,212.68,322.19,212.66,321.7,212.71z"/>
				</g>
			</g>
		</g>
		<path id="XMLID_921_" class="st1" d="M305.07,216.82c1.16,1.04,4.6,0.28,6.48,0.52c0.93,0.12,3.48,1.19,4.29,0.89
			c2.48-0.89-6.11-4.68-10.56-2.99C304.73,215.46,304.6,216.4,305.07,216.82z"/>
		<path id="XMLID_918_" class="st1" d="M295.02,215.1c-4.49-1.54-12.94,2.65-10.42,3.43c0.82,0.26,3.32-0.92,4.25-1.07
			c1.86-0.31,5.34,0.3,6.45-0.79C295.76,216.22,295.66,215.32,295.02,215.1z"/>
		<g id="XMLID_906_">
			<g id="XMLID_916_">
				<path id="XMLID_917_" class="st0" d="M323.12,221.97c-4.1-1.21-4.36,7.38-4.37,11.65C318.73,242.02,329.58,223.87,323.12,221.97
					z"/>
			</g>
			<g id="XMLID_913_">
				<path id="XMLID_915_" class="st3" d="M322.24,226.17c-0.12-0.39-0.71-0.21-0.59,0.18c0.72,2.36,0,3.75-0.97,4.28
					c-0.15,0.08-0.2,0.27-0.12,0.42C321.11,232.04,323.28,229.55,322.24,226.17z"/>
			</g>
			<g id="XMLID_910_">
				<path id="XMLID_911_" class="st0" d="M277.33,221.85c4.1-1.21,4.36,7.38,4.37,11.65C281.72,241.9,270.86,223.75,277.33,221.85z"
					/>
			</g>
			<g id="XMLID_907_">
				<path id="XMLID_908_" class="st3" d="M278.2,226.05c0.12-0.39,0.71-0.21,0.59,0.18c-0.72,2.36,0,3.75,0.97,4.28
					c0.15,0.08,0.2,0.27,0.12,0.42C279.33,231.92,277.17,229.43,278.2,226.05z"/>
			</g>
		</g>
		<g id="XMLID_902_">
			<path id="XMLID_905_" class="st1" d="M309.71,225.6c1.34,0,2.39-5.11-0.86-5.11C307.11,220.49,307.51,225.6,309.71,225.6z"/>
			<path id="XMLID_904_" class="st1" d="M289.75,225.8c-1.34,0-2.39-5.11,0.86-5.11C292.36,220.69,291.95,225.8,289.75,225.8z"/>
		</g>
		<g id="XMLID_900_">
			<path id="XMLID_901_" class="st3" d="M311.48,249.09c-0.17-0.13-0.41-0.1-0.54,0.07c-3.53,4.57-15.96,6.12-21.94-0.4
				c-0.34-0.38-0.91,0.15-0.57,0.52C297.25,258.91,313.69,250.79,311.48,249.09z"/>
		</g>
		<g id="XMLID_896_">
			<path id="XMLID_898_" class="st3" d="M301.98,233.92c0.14-0.57-0.83-0.62-1.43-0.75c-2.22-0.5-2.32,0.59-1.29-8.72
				c0.2-1.82,0.51-2.79-0.14-2.84c-0.61-0.04-0.45,0.68-0.68,2.75c-1.12,10.11-1.14,8.87,3.04,9.86
				C301.7,234.28,301.92,234.14,301.98,233.92z"/>
		</g>
		<path id="XMLID_895_" class="st4" d="M304.51,240.96c0.33-1-0.68-0.59-9.81,0.12C292.06,241.28,301.52,249.95,304.51,240.96z"/>
	</g>
	<g id="XMLID_831_">
		<path id="XMLID_971_" class="st0" d="M267.76,642.69c-5.27,2.66-12.25-3.79-12.25-3.79l-0.97-10.48l15.74-0.6L267.76,642.69z"/>
		<path id="XMLID_970_" class="st5" d="M228.63,663.02c-4.88,0.73-7-0.54-7.77-1.98c-1.75-3.27,0.67-1.53,34.6-23.09
			c0,0,5.26,5.24,12.61,3.11C280.25,669.79,275.02,656.05,228.63,663.02z"/>
		<g id="XMLID_969_">
			<path class="st6" d="M241.07,654.64c-0.05,0-0.1-0.01-0.15-0.02c-2.45-0.75-4.02-1.36-5.17-3.34c-0.14-0.24-0.06-0.54,0.18-0.68
				c0.24-0.14,0.54-0.06,0.68,0.18c0.93,1.61,2.12,2.12,4.6,2.88c0.26,0.08,0.41,0.36,0.33,0.62
				C241.48,654.5,241.28,654.64,241.07,654.64z"/>
		</g>
		<g id="XMLID_968_">
			<path class="st6" d="M247.81,651.52c-2.76-0.14-5.41-1.21-7.49-2.99c-0.21-0.18-0.23-0.5-0.05-0.71c0.18-0.21,0.5-0.23,0.71-0.05
				c1.91,1.64,4.35,2.62,6.86,2.75c0.28,0.01,0.49,0.25,0.47,0.53C248.3,651.31,248.08,651.52,247.81,651.52z"/>
		</g>
		<g id="XMLID_967_">
			<path class="st6" d="M253,647.89c-0.02,0-0.04,0-0.06,0c-2.58-0.32-5.51-0.67-7.88-2.28c-0.23-0.16-0.29-0.47-0.13-0.69
				c0.15-0.23,0.47-0.29,0.69-0.13c2.17,1.47,4.97,1.82,7.44,2.12c0.27,0.03,0.47,0.28,0.44,0.56
				C253.46,647.7,253.24,647.89,253,647.89z"/>
		</g>
		<path id="XMLID_965_" class="st0" d="M351.18,642.91c-4.89,3.31-12.63-2.2-12.63-2.2l-2.29-10.27l15.54-2.59L351.18,642.91z"/>
		<path id="XMLID_964_" class="st5" d="M314.95,668.04c-8.39,2.38-9.72-2.65-7.26-4.33c10.84-7.39,20.55-15.52,30.69-23.94
			c0,0,5.88,4.53,12.9,1.49C367.01,668.21,360.07,655.24,314.95,668.04z"/>
		<g id="XMLID_963_">
			<path class="st6" d="M325.49,657.83c-0.04,0-0.08,0-0.12-0.01c-2.49-0.62-4.09-1.14-5.34-3.05c-0.15-0.23-0.09-0.54,0.15-0.69
				c0.23-0.15,0.54-0.08,0.69,0.15c1.02,1.56,2.23,2,4.75,2.63c0.27,0.07,0.43,0.34,0.36,0.61
				C325.92,657.68,325.72,657.83,325.49,657.83z"/>
		</g>
		<g id="XMLID_962_">
			<path class="st6" d="M332.04,654.35c-2.73,0-5.43-0.92-7.6-2.59c-0.22-0.17-0.26-0.48-0.09-0.7c0.17-0.22,0.48-0.26,0.7-0.09
				c1.99,1.53,4.47,2.38,6.98,2.38c0.29,0,0.52,0.22,0.52,0.5C332.56,654.13,332.32,654.36,332.04,654.35z"/>
		</g>
		<g id="XMLID_961_">
			<path class="st6" d="M337.04,650.45c-2.63-0.18-5.58-0.38-8.03-1.86c-0.24-0.14-0.31-0.45-0.17-0.69
				c0.14-0.24,0.45-0.31,0.69-0.17c2.25,1.35,5.06,1.55,7.55,1.71c0.28,0.02,0.48,0.26,0.46,0.53
				C337.52,650.25,337.3,650.45,337.04,650.45z"/>
		</g>
	</g>
	<g id="XMLID_940_">
		<path class="st7" d="M338.08,381.81c15.71-0.41,18.23,253.7,18.23,253.7c-5.33,1.74-17.41,2.83-23,2.38
			c-24.5-111.99-33.59-179.49-33.59-179.49s-10.49,122.1-26.16,178.33c-8.68,2.01-22.14-2.99-22.14-2.99
			c-0.16-1-16.23-218.54,5.4-252.81L338.08,381.81z"/>
		<path class="st8" d="M336.23,638.49c-1.11,0-2.12-0.03-2.96-0.1l-0.37-0.03l-0.08-0.36c-20.79-95.05-30.58-158.71-32.99-175.26
			c-2.04,22.18-11.94,124.44-25.79,174.13l-0.08,0.29l-0.29,0.07c-8.73,2.02-21.87-2.8-22.43-3.01l-0.27-0.1l-0.05-0.29
			c-0.31-1.95-16.19-218.83,5.47-253.16l0.15-0.24l81.53,0.88c0.59-0.03,1.18,0.25,1.73,0.78c14.46,13.95,16.91,243.65,17,253.42
			l0,0.37l-0.35,0.11C351.86,637.48,342.38,638.49,336.23,638.49z M333.71,637.42c5.47,0.36,16.72-0.64,22.09-2.27
			c-0.12-10.7-2.79-238.93-16.69-252.34c-0.35-0.34-0.69-0.52-1.02-0.5c-0.02,0-80.99-0.88-80.99-0.88
			c-21.02,34.38-5.97,242.8-5.21,251.95c1.99,0.7,13.54,4.56,21.27,2.93c15.44-55.67,25.96-176.73,26.06-177.95l0.39-4.52l0.61,4.5
			C300.3,459.01,309.56,526.94,333.71,637.42z"/>
	</g>
	<g id="XMLID_952_">
		<g id="XMLID_958_">
			<path class="st8" d="M299.67,449.97c-0.25,0-0.47-0.19-0.5-0.45c-1.93-19.3-0.82-35.37,0-47.1c0.68-9.81,1.17-16.9-0.38-20.86
				c-0.1-0.26,0.03-0.55,0.28-0.65c0.26-0.1,0.55,0.03,0.65,0.28c1.63,4.17,1.13,11.35,0.44,21.29c-0.81,11.69-1.93,27.71,0,46.93
				c0.03,0.27-0.17,0.52-0.45,0.55C299.7,449.97,299.68,449.97,299.67,449.97z"/>
		</g>
		<g id="XMLID_957_">
			<path class="st8" d="M270.41,634.29c-0.03,0-0.06,0-0.08-0.01c-0.27-0.05-0.46-0.3-0.41-0.58
				c12.94-75.76,23.14-143.44,25.99-172.44c0.03-0.27,0.26-0.46,0.55-0.45c0.27,0.03,0.48,0.27,0.45,0.55
				c-2.85,29.02-13.06,96.73-26,172.51C270.86,634.12,270.65,634.29,270.41,634.29z"/>
		</g>
		<g id="XMLID_956_">
			<path class="st8" d="M250.93,411.36c-0.17,0-0.34-0.09-0.43-0.25c-0.14-0.24-0.05-0.54,0.19-0.68
				c12.65-7.24,13.01-10.08,14.98-25.86c0.23-1.84,0.48-3.85,0.78-6.07c0.04-0.27,0.29-0.47,0.56-0.43
				c0.27,0.04,0.47,0.29,0.43,0.56c-0.29,2.21-0.55,4.22-0.77,6.06c-1.97,15.82-2.39,19.12-15.47,26.6
				C251.1,411.34,251.01,411.36,250.93,411.36z"/>
		</g>
		<g id="XMLID_955_">
			<path class="st8" d="M343.92,411.77c-0.07,0-0.15-0.02-0.22-0.05c-13.5-6.7-14.11-9.97-17.01-25.65c-0.34-1.82-0.71-3.81-1.13-6
				c-0.05-0.27,0.12-0.53,0.4-0.59c0.27-0.06,0.53,0.12,0.59,0.4c0.42,2.19,0.79,4.19,1.13,6.01c2.89,15.64,3.41,18.46,16.47,24.94
				c0.25,0.12,0.35,0.42,0.23,0.67C344.28,411.67,344.11,411.77,343.92,411.77z"/>
		</g>
		<g id="XMLID_954_">
			<path class="st8" d="M299.87,455.06c-0.02,0-0.04,0-0.07,0c-0.3-0.03-0.54-0.24-0.62-0.53c-0.67-2.53-3.01-4.59-5.57-4.89
				c-0.27-0.03-0.47-0.28-0.44-0.56c0.03-0.27,0.28-0.48,0.56-0.44c2.75,0.33,5.21,2.31,6.19,4.92c2.65-5.03,6.61-6.01,9.27-5.26
				c0.27,0.07,0.42,0.35,0.35,0.62c-0.07,0.27-0.35,0.42-0.62,0.35c-2.41-0.67-6.05,0.35-8.43,5.39
				C300.38,454.9,300.14,455.06,299.87,455.06z"/>
		</g>
		<g id="XMLID_953_">
			<path class="st8" d="M298.61,430.62c-1.88,0-3.67-0.86-5.18-2.49c-3.94-4.25-8.12-16.07-5.65-48.19
				c0.02-0.28,0.27-0.48,0.54-0.46c0.28,0.02,0.48,0.26,0.46,0.54c-2.44,31.76,1.58,43.32,5.38,47.43c1.34,1.44,2.83,2.17,4.45,2.17
				c0.28,0,0.5,0.22,0.5,0.5S298.89,430.62,298.61,430.62z"/>
		</g>
	</g>
	<g id="XMLID_951_">
		<path class="st9" d="M253.32,389.02c31.07,3.03,72.86,2.61,89.33,0.64c0,0-1.83-8.04-4.57-7.85l-81.26-0.88
			C256.82,380.93,253.84,386.21,253.32,389.02z"/>
		<path class="st9" d="M304.18,391.72c-16.35,0-34.78-0.62-50.92-2.2l-0.54-0.05l0.1-0.54c0.53-2.86,3.44-8.03,3.56-8.25l0.15-0.26
			l0.29,0l81.26,0.88c2.99-0.23,4.85,7.38,5.05,8.24l0.12,0.54l-0.55,0.07C334.91,391.09,320.59,391.72,304.18,391.72z
			 M253.93,388.58c31.8,3.05,72.27,2.44,88.1,0.65c-0.74-2.94-2.35-7.04-3.91-6.92l-81-0.87
			C256.56,382.44,254.56,386.17,253.93,388.58z"/>
	</g>
	<g id="XMLID_948_">
		<path id="XMLID_950_" class="st7" d="M320,394.42c0.38,0,0.23-14.53,0.23-14.19c0-0.4-2.71-0.23-2.36-0.23
			c-0.38,0-0.23,14.53-0.23,14.19C317.64,394.59,320.35,394.42,320,394.42z"/>
		<path id="XMLID_949_" class="st7" d="M273.3,393.42c0.38,0,0.23-14.53,0.23-14.19c0-0.4-2.71-0.23-2.36-0.23
			c-0.38,0-0.23,14.53-0.23,14.19C270.95,393.59,273.66,393.42,273.3,393.42z"/>
	</g>
	<g id="XMLID_947_">
		<path class="st5" d="M304.24,393.59c-1.68,0-4.29-0.18-8.55-0.48c-2.74-0.19-6.15-0.43-10.41-0.69c-0.5-0.03-1.24-0.14-1.77-0.75
			c-0.87-1-0.76-2.58-0.42-7.29c0.09-1.27,0.2-2.76,0.31-4.52c0.03-0.42,0.07-1.19,0.7-1.74c1.06-0.93,2.87-0.8,11.59-0.2
			c2.74,0.19,6.16,0.43,10.42,0.69c0.5,0.03,1.24,0.14,1.77,0.75c0.87,1,0.76,2.58,0.42,7.29c-0.09,1.27-0.2,2.76-0.31,4.52
			c-0.03,0.42-0.07,1.19-0.69,1.74C306.74,393.39,306,393.59,304.24,393.59z M285.02,390.36c0,0,0.08,0.05,0.38,0.07
			c4.26,0.26,7.68,0.5,10.43,0.69c5.96,0.41,9.56,0.67,10.13,0.3c-0.04,0.01,0-0.09,0.02-0.36c0.11-1.77,0.22-3.27,0.31-4.54
			c0.22-3.05,0.4-5.47,0.07-5.83c0,0-0.08-0.05-0.38-0.07c-4.27-0.26-7.69-0.5-10.43-0.69c-5.96-0.41-9.56-0.66-10.13-0.3
			c0.01-0.01,0,0.09-0.02,0.36c-0.11,1.77-0.22,3.27-0.31,4.54C284.87,387.59,284.7,390,285.02,390.36L285.02,390.36z"/>
	</g>
	<g id="XMLID_931_">
		<path id="XMLID_933_" class="st3" d="M363.26,453.32c-1.65-0.28-4.28,1.12-2.2,2.49c0.68,0.45,2.49,0.6,3.21,0.22
			c0.03,1.82-4.21,1.56-4.36,3.32c-0.29,3.34,16.47,3.78,16.45-6.21c0-2.13-1.89-0.91-3.37-1.05
			C363.05,451.16,358.29,448.62,363.26,453.32z"/>
		<path id="XMLID_930_" class="st0" d="M367.4,436.39c-8.05-25.41-26.18-106.42-26.4-107.43c-0.48-2.2-0.23-3.6,3.43-4.34
			c22.83-4.66,18.01-11.98,25.55,35.82c3.61,23.09,3.15,51.43,7.21,75.74c5.31,17.62,4.16,16.94,3.18,18.58
			c-3.38,5.65-1.19,6.7-6.04,8.56c-8.59,3.28-14.2,3.18-12.61,0.55c1.75-2.91,14.63-1.01,13.18-12.14c-1.03-7.9-8.49-3.48-8.64,0.69
			c-0.04,1.06,0.67,3.66-1.43,5.75c-0.28,0.28-0.75,0.23-0.95-0.11C359.68,450.96,364.09,446.81,367.4,436.39z"/>
	</g>
	<g id="XMLID_932_">
		<path id="XMLID_939_" class="st3" d="M231.79,450.15c1.65-0.28,4.27,1.15,2.19,2.5c-0.68,0.45-2.49,0.58-3.21,0.21
			c-0.04,1.82,4.2,1.58,4.35,3.35c0.28,3.35-16.49,3.68-16.41-6.3c0.02-2.13,1.89-0.9,3.37-1.03
			C232.01,447.99,236.78,445.47,231.79,450.15z"/>
		<path id="XMLID_938_" class="st0" d="M227.74,433.19c8.19-25.36,26.77-106.28,27-107.28c0.49-2.2,0.25-3.59-3.4-4.36
			c-22.81-4.78-17.94-12.08-25.75,35.68c-3.74,23.06-3.43,51.42-7.63,75.7c-5.4,17.59-4.26,16.92-3.29,18.56
			c3.35,5.67,1.15,6.71,6,8.59c8.57,3.33,14.18,3.26,12.61,0.62c-1.74-2.92-14.62-1.09-13.11-12.21c1.07-7.89,8.51-3.44,8.64,0.74
			c0.03,1.06-0.69,3.65,1.4,5.76c0.27,0.28,0.75,0.24,0.95-0.1C235.38,447.8,230.99,443.63,227.74,433.19z"/>
	</g>
	<g id="XMLID_929_">
		<path class="st10" d="M360.15,280.22c6.94,9.37,16.12,48.6,12.43,51.61c-9.91,8.09-23.99,12.97-35.26,14.03
			c-10.95-30.44-10.11-64.2-6.41-69.92C337.67,265.49,354.54,272.64,360.15,280.22z"/>
		<path class="st6" d="M336.99,346.39l-0.13-0.36c-11.34-31.54-9.97-64.78-6.35-70.37c2.22-3.43,5.72-5.32,10.12-5.46
			c7.7-0.23,16.34,4.86,19.93,9.72c6.99,9.45,16.34,49.03,12.35,52.29c-9.08,7.41-23.02,12.96-35.53,14.14L336.99,346.39z
			 M341.16,271.19c-0.17,0-0.34,0-0.51,0.01c-4.12,0.13-7.25,1.81-9.31,5c-3.42,5.29-4.58,38.5,6.32,69.12
			c12.22-1.24,25.76-6.66,34.6-13.88c3.28-2.68-5.27-41.13-12.52-50.93C356.38,275.96,348.4,271.19,341.16,271.19z"/>
	</g>
	<g id="XMLID_946_">
		<path class="st10" d="M239.81,280.22c-6.94,9.37-16.12,48.6-12.43,51.61c9.91,8.09,23.99,12.97,35.26,14.03
			c10.95-30.44,10.11-64.2,6.41-69.92C262.29,265.49,245.42,272.64,239.81,280.22z"/>
		<path class="st6" d="M262.98,346.39l-0.39-0.04c-12.51-1.18-26.45-6.73-35.53-14.14c-3.99-3.26,5.36-42.85,12.35-52.29
			c3.6-4.86,12.22-9.96,19.93-9.72c4.4,0.14,7.9,2.02,10.12,5.46c3.62,5.59,4.99,38.83-6.35,70.37L262.98,346.39z M240.21,280.51
			c-7.25,9.8-15.8,48.25-12.52,50.93c8.84,7.22,22.38,12.64,34.6,13.88c10.91-30.62,9.75-63.83,6.32-69.12
			c-2.06-3.19-5.19-4.87-9.31-5C251.95,270.99,243.66,275.85,240.21,280.51L240.21,280.51z"/>
	</g>
	<g id="XMLID_928_">
		<path class="st10" d="M315.5,263.29c-6.55,15.89-27.49,15.66-33.76-0.34c-9.26,2.82-19.39,5.65-28.66,8.47
			c2.22,26.54-17.48,107.13,6.84,110.38c28.73,3.84,76.23,3.75,81.26-0.88c1.73-1.6,7.96-6.09,7.78-8.44
			c-6.83-89.13-8.32-90.52-5.05-101.5C343.9,270.99,333.47,268.58,315.5,263.29z"/>
		<path class="st6" d="M306.84,385.08c-15.63,0-33.5-0.97-46.99-2.78c-17.23-2.3-13.17-40.61-9.58-74.41
			c1.54-14.51,3-28.22,2.31-36.43l-0.03-0.4l0.39-0.12c4.63-1.41,9.56-2.85,14.32-4.23c4.77-1.39,9.7-2.82,14.33-4.24l0.44-0.13
			l0.17,0.43c2.83,7.22,9.09,11.75,16.34,11.81c0.05,0,0.1,0,0.15,0c7.16,0,13.41-4.39,16.34-11.48l0.17-0.42l0.43,0.13
			c17.75,5.22,28.27,7.66,28.37,7.68l0.52,0.12l-0.15,0.51c-2.43,8.17-2.18,11.3,0.96,49.64c1.02,12.46,2.41,29.54,4.11,51.68
			c0.15,1.97-2.95,4.7-6.42,7.56c-0.63,0.52-1.17,0.96-1.52,1.29C338.71,383.88,324.15,385.08,306.84,385.08z M253.61,271.79
			c0.62,8.34-0.82,21.89-2.34,36.21c-3.36,31.69-7.55,71.14,8.72,73.31c30.05,4.01,76.15,3.59,80.85-0.75
			c0.36-0.33,0.91-0.79,1.56-1.32c2.16-1.78,6.18-5.1,6.06-6.71c-1.7-22.15-3.09-39.21-4.11-51.68c-3.08-37.72-3.39-41.52-1.07-49.5
			c-2.3-0.55-12.16-2.95-27.49-7.45c-3.17,7.29-9.73,11.71-17.25,11.69c-7.52-0.07-14.03-4.66-17.09-12.02
			c-4.51,1.37-9.28,2.76-13.91,4.11C262.91,269.02,258.12,270.42,253.61,271.79z"/>
	</g>
	<path id="XMLID_818_" class="st11" d="M327.48,332.54c-19.73,3.45-49.08,7.55-59.8,0c-2.14-1.51-4.75-2.4-4.75-5.36
		c0-10.68-1.23-16.06,4.75-16.91c22.86-3.24,59.8,0,59.8,0c2.62,0,4.75,2.4,4.75,5.36C332.23,326.7,333.44,331.5,327.48,332.54z"/>
	<g id="XMLID_829_">
		<g id="XMLID_972_">
			<path class="st6" d="M275.13,382.03c-0.13,0-0.26-0.05-0.36-0.16c-4.62-4.88-7.85-10.93-9.33-17.49
				c-0.06-0.27,0.11-0.54,0.38-0.6c0.27-0.06,0.54,0.11,0.6,0.38c1.44,6.38,4.58,12.27,9.08,17.02c0.19,0.2,0.18,0.52-0.02,0.71
				C275.37,381.98,275.25,382.03,275.13,382.03z"/>
		</g>
		<g id="XMLID_973_">
			<path class="st6" d="M321.63,383.58c-0.24,0-0.45-0.17-0.49-0.42c-0.04-0.27,0.14-0.53,0.41-0.57c7.3-1.2,13.79-7.02,15.78-14.15
				c0.07-0.27,0.35-0.42,0.62-0.35c0.27,0.07,0.42,0.35,0.35,0.62c-2.12,7.61-8.78,13.59-16.58,14.87
				C321.69,383.58,321.66,383.58,321.63,383.58z"/>
		</g>
		<g id="XMLID_974_">
			<path class="st6" d="M295.65,384.23c-1.93-0.03-4.77-4.35-5.56-6.18c-0.11-0.25,0.01-0.55,0.26-0.66
				c0.26-0.11,0.55,0.01,0.66,0.26c0.97,2.24,3.58,5.56,4.64,5.58c0.06-0.01,0.14,0,0.24-0.2l5.5-11.57
				c0.12-0.25,0.42-0.35,0.67-0.24c0.25,0.12,0.36,0.42,0.24,0.67l-5.5,11.57C296.54,383.95,296.14,384.23,295.65,384.23z"/>
		</g>
		<g id="XMLID_821_">
			<path class="st6" d="M244.37,337.99c-0.07,0-0.14-0.01-0.21-0.05c-5.58-2.58-11.04-5.56-16.23-8.85
				c-0.23-0.15-0.3-0.46-0.15-0.69c0.15-0.23,0.46-0.3,0.69-0.15c5.16,3.27,10.58,6.23,16.11,8.79c0.25,0.12,0.36,0.41,0.24,0.66
				C244.74,337.88,244.56,337.99,244.37,337.99z"/>
		</g>
		<g id="XMLID_826_">
			<path class="st6" d="M349.75,339.8c-0.24,0-0.45-0.18-0.49-0.42c-0.04-0.27,0.14-0.53,0.42-0.57
				c7.62-1.21,14.85-5.26,19.86-11.13c0.18-0.21,0.5-0.24,0.7-0.06c0.21,0.18,0.24,0.49,0.06,0.7
				c-5.15,6.05-12.61,10.23-20.46,11.47C349.8,339.8,349.78,339.8,349.75,339.8z"/>
		</g>
		<g id="XMLID_827_">
			<path class="st6" d="M297.97,280.43c-0.3,0-0.61-0.01-0.92-0.02c-8.69-0.34-16.21-5.46-19.62-13.35
				c-0.11-0.25,0.01-0.55,0.26-0.66c0.25-0.11,0.55,0.01,0.66,0.26c3.26,7.53,10.44,12.42,18.74,12.75
				c8.27,0.34,15.78-3.98,19.62-11.23c0.13-0.24,0.43-0.34,0.68-0.21c0.24,0.13,0.34,0.43,0.21,0.68
				C313.72,275.98,306.25,280.43,297.97,280.43z"/>
		</g>
	</g>
</g>
</svg>
