<?xml version="1.0" encoding="utf-8"?>
<!-- Generator: Adobe Illustrator 25.3.0, SVG Export Plug-In . SVG Version: 6.00 Build 0)  -->
<svg version="1.1" id="Layer_1" xmlns="http://www.w3.org/2000/svg" xmlns:xlink="http://www.w3.org/1999/xlink" x="0px" y="0px"
	 viewBox="0 0 595.28 841.89" style="enable-background:new 0 0 595.28 841.89;" xml:space="preserve">
<style type="text/css">
	.st0{fill:#4D3933;}
	.st1{fill:#F39A8E;}
	.st2{fill:#392924;}
	.st3{fill:#58403A;}
	.st4{fill:#EF7A5D;}
	.st5{fill:#FFFFFF;}
	.st6{fill:#F3998B;}
	.st7{fill:#333D4D;}
	.st8{fill:#FFFFFC;}
	.st9{fill:#E95B4B;}
	.st10{fill:#BE3030;}
	.st11{fill:#1E2635;}
</style>
<g id="XMLID_209_">
	<path id="XMLID_335_" class="st0" d="M334.73,214.35c1.91,12.35-2.46,20.62,1.67,32.45c3.95,11.29,22.54,6.43,16.82,33.07
		c-1.8,8.37,14.47,10.14,10.88,17.87c-3.92,8.45,8.59,16.89,1.18,26.59c-0.79,1.04-2.01,1.65-3.23,2.04
		c-15.39,5.02-27.49-7.05-41.41-11.4c-19.79-6.19-43.41,3.75-51.98,0.22c-14.7-6.06-17.37-27.88-9.3-35.82
		c3.35-3.3,8.17-4.49,11.85-7.39c17.77-14.02,2.64-65.12,28.23-75.18C309.47,192.86,332.04,197.01,334.73,214.35z"/>
	<path id="XMLID_92_" class="st1" d="M330.81,291.98c-20.21-15.23-17.54-14.65-16.03-37.27l-23.17-1.44
		c2.13,25.83-10.28,24.05-24.78,32.08C280.25,300.08,311.7,305.32,330.81,291.98z"/>
	<path id="XMLID_88_" class="st1" d="M318.22,254.91c7.27-8.43,16.82-34.43,2.82-47.61c-8.56-8.06-32.11-8.78-34.7,17.52
		C282.81,260.64,302.84,272.75,318.22,254.91z"/>
	<g id="XMLID_363_">
		<path id="XMLID_321_" class="st0" d="M286.35,235.48c-1.35-6.65,0-13.38,1.35-20.02c2-9.92,9.05-5.53,5.87-0.67
			C287.36,224.27,289.06,221.15,286.35,235.48z"/>
		<path id="XMLID_317_" class="st0" d="M324.27,244.42c8.44-9.92,8.86-4.73,10.15-18.75c3.39-36.83-31.88-31.22-42.86-18.29
			c-3.78,4.46-0.63,6.56,2.66,9.39C321.62,240.41,322.17,211.95,324.27,244.42z"/>
	</g>
	<g id="XMLID_74_">
		<path id="XMLID_79_" class="st1" d="M284.95,229.63c3.62-0.64,2.98,6.98,2.55,10.74C286.68,247.79,279.25,230.63,284.95,229.63z"
			/>
	</g>
	<g id="XMLID_68_">
		<path id="XMLID_71_" class="st1" d="M328.49,234.59c-3.38-1.49-4.47,6.07-4.91,9.83C322.72,251.84,333.81,236.94,328.49,234.59z"
			/>
	</g>
	<g id="XMLID_366_">
		<path id="XMLID_66_" class="st2" d="M312.77,236.94c1.21,0.15,2.71-4.51-0.23-4.87C310.97,231.88,310.79,236.69,312.77,236.94z"/>
		<path id="XMLID_64_" class="st2" d="M291.99,234.39c-1.21-0.15-1.62-5.04,1.33-4.68C294.89,229.91,293.97,234.63,291.99,234.39z"
			/>
		<path id="XMLID_63_" class="st3" d="M312.01,227.72c-1.96-0.17-2.1,1.45-0.72,2.06c0.4,0.18,8.12,2.7,7.84,2.18
			C318.56,230.86,315.72,228.04,312.01,227.72z"/>
		<path id="XMLID_62_" class="st3" d="M295.68,225.23c1.96,0.22,1.79,1.84,0.33,2.16c-0.69,0.15-8.58,1.11-8.02,0.49
			C288.9,226.88,292.11,224.83,295.68,225.23z"/>
		<path id="XMLID_61_" class="st4" d="M301.05,243.7c4.37,1.24,3.85-0.77,2.62-0.53c-4.08,0.8-0.17-1.56-0.86-8.64
			c-0.07-0.74-0.91-0.65-0.92-0.03c-0.01,0.43,0.12,1.99,0.08,2.44C301.44,242.6,299.65,243.3,301.05,243.7z"/>
		<path id="XMLID_60_" class="st5" d="M296.25,249.66c5.69,10.9,11.82,1.12,10.13,0.83C297.78,249.02,295.55,248.32,296.25,249.66z"
			/>
	</g>
	<g id="XMLID_57_">
		<path id="XMLID_59_" class="st4" d="M327.32,238.21c-0.06-0.36-0.58-0.26-0.52,0.1c0.38,2.16-0.37,3.31-1.26,3.68
			c-0.14,0.06-0.2,0.22-0.15,0.36C325.76,243.28,327.86,241.3,327.32,238.21z"/>
	</g>
	<g id="XMLID_53_">
		<path id="XMLID_55_" class="st4" d="M285.39,237.47c-0.65-1.01-0.35-2.41-0.02-3.66c0.09-0.35-0.42-0.49-0.51-0.15
			C283.61,238.32,285.99,238.39,285.39,237.47z"/>
	</g>
	<g id="XMLID_49_">
		<path id="XMLID_50_" class="st4" d="M313.51,258.98c-7.94,7.13-18.37,2.93-20.82-1.98c-0.97-1.91-0.6,4.29,8.26,6.05
			C310.74,264.99,315.8,256.91,313.51,258.98z"/>
	</g>
	<g id="XMLID_69_">
		<g id="XMLID_381_">
			<path id="XMLID_383_" class="st4" d="M378,453.34c-1.7-0.32-1.71,2.96,0.51,2.53c0.73-0.14,2.57-1.06,2.81-1.79
				c1.17,1.21-2.33,3.64-1.32,4.93c1.92,2.45,13.12-8.23,6.79-14.95c-1.35-1.44-2,0.42-2.86,1.5
				C378.15,452.81,371.04,450.92,378,453.34z"/>
		</g>
		<path id="XMLID_385_" class="st6" d="M350.59,324.15c4.7,47.87,24.97,107.36,24.97,107.36c2.22,1.13,5.79,3.62,12.85,7.99
			c1.44,0.89,1.6,1.27,2,3.01c1.37,6.02,3.47,5.3,1.48,9.73c-3.52,7.84-7.24,11.44-7.87,8.63c-0.7-3.11,8.89-10.26,0.91-16.82
			c-5.66-4.65-7.74,3.21-5.19,6.12c0.7,0.8,3.1,2.24,2.66,5.53c-8.32-1.92-8.47-10.12-10.54-14.33c-0.45-0.92-2.02-3.15-2.43-5.41
			c-16.67-45.29-24.33-49.28-40.15-116.55c7.8-1.5,12.62-0.72,20.53-0.13c0.53,3.12,1.06,6.24,1.6,9.36L350.59,324.15z"/>
	</g>
	<g id="XMLID_199_">
		<g id="XMLID_202_">
			<path id="XMLID_208_" class="st4" d="M224.4,449.94c1.69-0.37,1.8,2.91-0.43,2.54c-0.73-0.12-2.6-0.98-2.86-1.7
				c-1.14,1.25,2.44,3.56,1.46,4.89c-1.85,2.51-13.36-7.81-7.24-14.73c1.31-1.48,2.01,0.35,2.9,1.4
				C224.24,449.41,231.28,447.29,224.4,449.94z"/>
		</g>
		<path id="XMLID_201_" class="st6" d="M247.92,319.93c-3.26,48-21.74,108.11-21.74,108.11c-2.18,1.2-5.68,3.8-12.61,8.4
			c-1.41,0.94-1.56,1.32-1.91,3.08c-1.19,6.06-3.31,5.4-1.18,9.77c3.75,7.72,7.58,11.2,8.13,8.37c0.61-3.13-9.19-9.97-1.41-16.78
			c5.52-4.83,7.83,2.96,5.37,5.95c-0.67,0.82-3.03,2.34-2.49,5.61c8.26-2.18,8.16-10.38,10.1-14.66c0.43-0.94,1.92-3.22,2.27-5.48
			c15.3-45.8,22.84-50.04,36.63-117.79c-7.84-1.24-8.44-0.78-16.33,0.05c-0.44,3.14-5.08,6.74-5.52,9.88L247.92,319.93z"/>
	</g>
	<path id="XMLID_206_" class="st6" d="M230.38,629.6c1.61,8.3,11,9.57,13.53,0.69l2.78-21.93l-16.69-2.47L230.38,629.6z"/>
	<path id="XMLID_192_" class="st6" d="M330.79,629.57c2.05,8.2,11.5,8.93,13.55-0.08l1.6-22.06l-16.8-1.51L330.79,629.57z"/>
	<path id="XMLID_378_" class="st7" d="M246.45,420.18c-18.31,203.29-23.17,206.09-18.62,206.64c18.68,2.23,19.59,2.96,20.13,0.65
		l46.86-201.47c33.57,211.32,30.99,199.86,33.32,199.95c18.65,0.75,20.36,1.5,20.35-1.24c-0.02-19.71-0.23-174.69-2.41-196.66
		c-3.5-35.24-14.43-58-17.05-57.91c-69.82,2.21-65.61,1.68-66.16,2.98C260.47,378.87,247.31,410.67,246.45,420.18z"/>
	<g id="XMLID_207_">
		<g id="XMLID_186_">
			<path class="st8" d="M339,400.97c-0.1,0-0.21-0.03-0.3-0.1l-0.52-0.38c-6.94-5.06-15.57-11.37-17.82-29.47
				c-0.03-0.28,0.16-0.53,0.44-0.57c0.27-0.03,0.53,0.16,0.57,0.44c2.19,17.66,10.63,23.82,17.41,28.77l0.52,0.38
				c0.23,0.17,0.28,0.48,0.11,0.71C339.31,400.89,339.16,400.97,339,400.97z"/>
		</g>
		<g id="XMLID_187_">
			<path class="st8" d="M253.3,402.84c-0.16,0-0.31-0.07-0.41-0.21c-0.17-0.23-0.12-0.54,0.11-0.71l0.52-0.38
				c6.78-4.95,15.21-11.11,17.41-28.77c0.04-0.28,0.29-0.47,0.57-0.44c0.28,0.03,0.48,0.29,0.44,0.57
				c-2.25,18.1-10.88,24.4-17.82,29.46l-0.52,0.38C253.51,402.8,253.4,402.84,253.3,402.84z"/>
		</g>
		<g id="XMLID_174_">
			<path class="st8" d="M300.97,412.38c-2.53,0-4.52-0.71-6.04-2.14c-4.67-4.4-3.8-14.81-2.8-26.85c0.32-3.8,0.64-7.72,0.8-11.61
				c0.01-0.28,0.26-0.48,0.53-0.49c0.28,0.01,0.5,0.25,0.49,0.53c-0.16,3.91-0.49,7.84-0.81,11.65
				c-0.94,11.29-1.83,21.96,2.48,26.02c1.72,1.62,4.19,2.17,7.55,1.69c0.28-0.04,0.54,0.15,0.58,0.43c0.04,0.28-0.15,0.54-0.43,0.58
				C302.49,412.32,301.71,412.38,300.97,412.38z"/>
		</g>
		<g id="XMLID_175_">
			<path class="st8" d="M294.87,423.12l-0.39-0.66c-0.12-0.21-0.24-0.42-0.35-0.63c-0.88-1.6-1.65-2.99-5.38-2.99
				c-0.06,0-0.12-0.01-0.18,0c-0.28,0-0.51-0.22-0.51-0.5c0-0.28,0.22-0.51,0.5-0.51c0.06,0,0.12,0,0.18,0
				c4.31,0,5.31,1.76,6.25,3.48c1.96-2.2,4.77-3.06,6.69-2.93c0.87,0.06,1.46,0.34,1.71,0.8c0.13,0.25,0.04,0.56-0.21,0.69
				c-0.25,0.13-0.56,0.04-0.69-0.21c-0.03-0.05-0.26-0.23-0.93-0.27c-1.5-0.09-4.41,0.66-6.23,3.12L294.87,423.12z"/>
		</g>
		<g id="XMLID_177_">
			<path class="st8" d="M246.41,626.07c-0.04,0-0.07,0-0.11-0.01c-0.27-0.06-0.45-0.33-0.38-0.61
				c11.68-51.7,21.51-94.83,29.41-129.49c7.33-32.14,12.62-55.36,15.52-68.48c0.06-0.27,0.34-0.45,0.61-0.39
				c0.27,0.06,0.45,0.33,0.39,0.61c-2.9,13.12-8.2,36.34-15.52,68.48c-7.9,34.65-17.73,77.78-29.41,129.48
				C246.85,625.91,246.64,626.07,246.41,626.07z"/>
		</g>
		<g id="XMLID_179_">
			<path class="st8" d="M346.67,624.52c-0.27,0-0.49-0.21-0.51-0.48c-1.04-18.2-1.2-41.07-1.38-67.55
				c-0.35-48.87-0.74-104.25-6.7-153.75c-0.03-0.28,0.17-0.53,0.44-0.57c0.27-0.04,0.53,0.17,0.57,0.44
				c5.97,49.56,6.36,104.97,6.71,153.86c0.19,26.47,0.35,49.32,1.38,67.49c0.02,0.28-0.2,0.52-0.48,0.54
				C346.69,624.52,346.68,624.52,346.67,624.52z"/>
		</g>
	</g>
	<g id="XMLID_369_">
		<path class="st9" d="M332.83,287.01c13.34,3.28,12.13,2.5,23.5,51.41c0.92,3.95-10.52,9.79-26.98,9.1
			c-9.65-23.33-18.81-41.56-12.68-53.96C318.9,289.07,330.2,286.36,332.83,287.01z"/>
		<path class="st10" d="M331.97,348.09c-0.86,0-1.74-0.02-2.63-0.06l-0.32-0.01l-0.12-0.3c-1.11-2.68-2.21-5.3-3.29-7.84
			c-8.33-19.75-14.91-35.36-9.38-46.54c2.32-4.68,13.76-7.55,16.74-6.82l0.41,0.1c12.22,3,12.22,3,21.09,41.38
			c0.73,3.17,1.52,6.6,2.39,10.31c0.21,0.91-0.11,1.92-0.92,2.9C353.04,344.67,343.84,348.09,331.97,348.09z M329.71,347.03
			c12.64,0.47,22.52-2.97,25.42-6.47c0.42-0.51,0.89-1.27,0.71-2.02c-0.87-3.72-1.66-7.15-2.39-10.32
			c-8.72-37.77-8.72-37.77-20.34-40.62l-0.41-0.1c-2.29-0.57-13.44,1.96-15.58,6.29c-5.32,10.76,1.18,26.18,9.41,45.69
			C327.58,341.93,328.64,344.45,329.71,347.03z"/>
	</g>
	<g id="XMLID_98_">
		<path class="st9" d="M273.23,283.01c-13.68,0.54-13.23-0.94-33.48,44.55c-1.97,4.43,14.22,13.18,25.56,15.51
			c13.83-20.95,26.24-37,22.54-50.39C286.52,287.83,275.93,282.91,273.23,283.01z"/>
		<path class="st10" d="M265.55,343.64l-0.34-0.07c-9.42-1.94-23.12-8.6-25.7-13.62c-0.49-0.96-0.57-1.83-0.23-2.6
			c19.56-43.92,19.86-44.34,32.67-44.81l1.25-0.05c0.04,0,0.07,0,0.11,0c3.2,0,13.65,5.05,15.03,10.04
			c3.33,12.08-6.05,26.07-17.92,43.78c-1.53,2.28-3.1,4.62-4.69,7.03L265.55,343.64z M273.25,283.52l-1.26,0.05
			c-12.07,0.44-12.3,0.44-31.78,44.2c-0.21,0.47-0.14,1.05,0.2,1.72c2.19,4.27,14.78,10.89,24.66,13.02
			c1.53-2.31,3.03-4.56,4.5-6.75c11.73-17.5,20.99-31.31,17.79-42.94c-1.28-4.63-11.56-9.3-14.04-9.3
			C273.3,283.52,273.27,283.52,273.25,283.52L273.25,283.52z"/>
	</g>
	<g id="XMLID_368_">
		<path class="st9" d="M315.64,278.23c-3.93,8.02-25.33,11.52-29.39-2.52c-14.02,4.18-19.21,7.81-19.21,7.81
			c-1.48,15.48-18.49,86.83-1.99,89.51c25.34,4.11,44.02,6.05,65.46,1.92c11.38-4.86,6.11-86,5.94-87.03
			C336.44,287.92,328.93,285.3,315.64,278.23z"/>
		<path class="st10" d="M306.34,377.74c-12.34,0-25.36-1.61-41.38-4.21c-1.67-0.27-3.09-1.21-4.21-2.78
			c-7.39-10.38-1-46.95,3.22-71.15c1.25-7.19,2.25-12.87,2.56-16.12l0.02-0.23l0.19-0.13c0.21-0.15,5.42-3.72,19.36-7.88l0.49-0.15
			l0.14,0.49c2.08,7.18,8.46,8.78,12.07,9.09c6.93,0.61,14.28-2.38,16.38-6.66l0.23-0.47l0.46,0.25
			c13.09,6.97,20.66,9.64,20.73,9.66l0.29,0.1l0.05,0.3c0.13,0.79,5.64,82.51-6.25,87.58l-0.1,0.03
			C322.36,377.04,314.5,377.74,306.34,377.74z M267.52,283.82c-0.34,3.33-1.32,8.92-2.54,15.96c-3.94,22.57-10.53,60.36-3.39,70.39
			c0.97,1.36,2.13,2.14,3.54,2.37c26.47,4.29,44.71,5.88,65.22,1.94c10.23-4.6,6.28-79.67,5.63-86.17
			c-1.52-0.56-8.68-3.31-20.12-9.38c-2.54,4.37-10.07,7.38-17.13,6.76c-6.4-0.56-11.04-3.95-12.81-9.33
			C273.94,279.96,268.56,283.16,267.52,283.82z"/>
	</g>
	<g id="XMLID_250_">
		<g id="XMLID_194_">
			<path class="st11" d="M202.08,647.94c-0.39-0.88-0.35-1.93,0.1-2.78c1.3-2.47,29.27-16.11,28.19-15.56
				c4.33,3.7,10.83,3.01,13.53,0.69c1.19,3.72,4.29,16.99-0.58,17.62C240.42,648.3,203.74,651.64,202.08,647.94z"/>
			<path class="st7" d="M214.16,650.16c-6.59,0-11.86-0.5-12.54-2.01c-0.46-1.02-0.41-2.22,0.11-3.22
				c1.22-2.31,22.87-13.07,27.78-15.4l-0.04-0.04l0.68-0.34l0.04,0.07c0.2-0.09,0.3-0.13,0.31-0.13l0.36,0.06l0.03,0.22
				c4.17,3.4,10.26,2.62,12.69,0.54l0.58-0.5l0.23,0.73c1.03,3.22,3.44,13.24,1.12,16.89c-0.51,0.81-1.23,1.28-2.12,1.4
				C243.14,648.46,226.39,650.16,214.16,650.16z M230.3,630.19c-3.55,1.68-26.61,13.2-27.67,15.21c-0.38,0.71-0.41,1.61-0.08,2.33
				c1.36,3.03,34.66,0.47,40.71-0.32c0.59-0.08,1.04-0.38,1.39-0.93c1.82-2.87,0.17-11.26-1.02-15.35
				C240.62,633.13,234.62,633.68,230.3,630.19z"/>
		</g>
		<g id="XMLID_249_">
			<g id="XMLID_225_">
				<path class="st8" d="M217.12,643.5c-1.13,0-2.49-0.55-3.5-1.21c-0.82-0.53-1.82-1.39-1.96-2.47c-0.07-0.56,0.33-1.07,0.88-1.14
					c0.58-0.07,1.07,0.32,1.14,0.88c0.03,0.14,0.36,0.61,1.2,1.11c1.07,0.65,2.09,0.86,2.41,0.77c0.54-0.17,1.1,0.14,1.27,0.68
					c0.16,0.54-0.14,1.11-0.68,1.27C217.65,643.46,217.39,643.5,217.12,643.5z"/>
			</g>
			<g id="XMLID_226_">
				<path class="st8" d="M223.05,640.39c-2.35-0.03-4.56-1.52-5.53-3.71c-0.23-0.51,0.01-1.11,0.52-1.34
					c0.51-0.23,1.11,0.01,1.34,0.52c0.64,1.45,2.15,2.47,3.67,2.49c0.56,0.01,1.01,0.47,1,1.03
					C224.06,639.94,223.6,640.39,223.05,640.39z"/>
			</g>
			<g id="XMLID_228_">
				<path class="st8" d="M228.25,637.31c-2.16-0.06-4.26-1.1-5.63-2.79c-0.35-0.44-0.29-1.08,0.15-1.43
					c0.44-0.35,1.08-0.29,1.43,0.15c1,1.23,2.53,2,4.08,2.04c0.56,0.02,1,0.48,0.99,1.05C229.25,636.87,228.8,637.31,228.25,637.31z
					"/>
			</g>
		</g>
	</g>
	<g id="XMLID_99_">
		<g id="XMLID_247_">
			<path class="st11" d="M303.27,649.32c-0.43-0.86-0.43-1.91-0.02-2.78c1.2-2.53,28.59-17.56,27.54-16.97
				c4.48,3.51,10.94,2.35,13.55-0.08c1.34,3.67,4.98,17.11,0.14,17.97C341.59,647.97,305.08,652.94,303.27,649.32z"/>
			<path class="st7" d="M311.1,651.11c-4.46,0-7.71-0.42-8.28-1.56c-0.5-1-0.51-2.2-0.02-3.22c1.13-2.39,22.34-14.22,27.13-16.78
				l-0.05-0.04l0.66-0.37l0.04,0.07c0.18-0.09,0.29-0.14,0.3-0.14l0.37,0.04l0.04,0.22c4.25,3.16,10.32,2.02,12.7-0.2l0.56-0.52
				l0.26,0.72c0.96,2.62,4.07,13.21,1.79,17.16c-0.48,0.83-1.17,1.33-2.04,1.49C344.28,648.01,323.23,651.1,311.1,651.11z
				 M330.74,630.17c-3.57,1.92-26.07,14.57-27.03,16.58c-0.35,0.73-0.34,1.62,0.01,2.33c1.48,2.96,34.65-1.07,40.66-2.13
				c0.57-0.1,1.01-0.43,1.34-1c1.79-3.1-0.39-11.89-1.63-15.62C341.13,632.52,335.15,633.41,330.74,630.17z"/>
		</g>
		<g id="XMLID_191_">
			<g id="XMLID_234_">
				<path class="st8" d="M317.95,644.21c-1.1,0-2.41-0.48-3.39-1.06c-0.83-0.49-1.87-1.31-2.05-2.38c-0.09-0.55,0.28-1.08,0.83-1.17
					c0.55-0.1,1.08,0.28,1.17,0.83c0.03,0.14,0.39,0.59,1.24,1.06c1.1,0.6,2.12,0.77,2.45,0.66c0.53-0.18,1.11,0.09,1.3,0.62
					c0.19,0.53-0.09,1.11-0.62,1.3C318.59,644.17,318.28,644.21,317.95,644.21z"/>
			</g>
			<g id="XMLID_233_">
				<path class="st8" d="M323.71,640.84c-2.27,0-4.46-1.37-5.48-3.46c-0.25-0.5-0.04-1.11,0.46-1.36c0.51-0.25,1.11-0.04,1.36,0.46
					c0.7,1.42,2.29,2.34,3.77,2.32c0.55-0.05,1.03,0.42,1.05,0.98c0.02,0.56-0.42,1.03-0.98,1.05
					C323.83,640.84,323.77,640.84,323.71,640.84z"/>
			</g>
			<g id="XMLID_229_">
				<path class="st8" d="M328.84,637.53c-2.1,0-4.19-0.94-5.6-2.54c-0.37-0.42-0.34-1.06,0.09-1.44c0.42-0.37,1.06-0.34,1.44,0.09
					c1.05,1.19,2.59,1.89,4.16,1.85c0.57,0,1.03,0.45,1.03,1c0.01,0.56-0.44,1.02-1,1.03C328.91,637.53,328.88,637.53,328.84,637.53
					z"/>
			</g>
		</g>
	</g>
	<g id="XMLID_508_">
		<g id="XMLID_325_">
			<path class="st3" d="M333.04,228.54c-0.25,0-0.47-0.19-0.5-0.44c-0.58-4.56-0.14-7.8,0.21-10.4c0.51-3.8,0.85-6.31-2.25-10.14
				c-3.86-4.77-9.75-7.73-15.76-7.9c-0.28-0.01-0.5-0.24-0.49-0.52c0.01-0.28,0.26-0.53,0.52-0.49c6.3,0.19,12.48,3.28,16.52,8.28
				c3.37,4.17,2.99,7,2.46,10.92c-0.34,2.54-0.77,5.71-0.21,10.14c0.04,0.28-0.16,0.53-0.44,0.57
				C333.08,228.54,333.06,228.54,333.04,228.54z"/>
		</g>
		<g id="XMLID_326_">
			<path class="st3" d="M315.33,224.36c-4.82,0-10.1-1.94-13.71-5.25c-3.15-2.88-4.54-6.33-3.91-9.7c0.05-0.28,0.32-0.46,0.59-0.41
				c0.28,0.05,0.46,0.32,0.41,0.59c-0.56,3.02,0.72,6.13,3.6,8.76c4.46,4.08,11.56,5.97,16.89,4.49c0.27-0.08,0.55,0.08,0.63,0.35
				c0.08,0.27-0.08,0.55-0.35,0.63C318.16,224.19,316.77,224.36,315.33,224.36z"/>
		</g>
		<g id="XMLID_328_">
			<path class="st3" d="M286.82,225.85c-0.3-0.01-0.52-0.24-0.51-0.53c0.15-4.67,1.64-9.37,4.18-13.23c0.16-0.24,0.47-0.3,0.7-0.15
				c0.23,0.15,0.3,0.47,0.15,0.7c-2.44,3.71-3.86,8.22-4.01,12.71C287.32,225.64,287.09,225.85,286.82,225.85z"/>
		</g>
		<g id="XMLID_329_">
			<path class="st3" d="M324.56,235.42c-0.24,0-0.45-0.17-0.5-0.41c-0.18-0.97-0.1-2.01-0.01-3.02c0.13-1.58,0.26-3.07-0.59-4.19
				c-0.17-0.22-0.13-0.54,0.1-0.71c0.23-0.17,0.54-0.13,0.71,0.1c1.09,1.43,0.94,3.19,0.8,4.89c-0.08,0.98-0.16,1.92,0,2.75
				c0.05,0.28-0.13,0.54-0.41,0.59C324.62,235.42,324.59,235.42,324.56,235.42z"/>
		</g>
		<g id="XMLID_330_">
			<path class="st3" d="M313.38,213.01c-0.13,0-0.27-0.05-0.37-0.16c-1.91-2.02-4.67-3.73-7.1-5.25c-3.12-1.94-5.37-3.34-5.37-4.91
				c0-0.77,0.32-1.36,0.93-1.72c2.68-1.57,10.61,1.93,13.04,3.31c0.24,0.14,0.33,0.45,0.19,0.69c-0.14,0.24-0.45,0.33-0.69,0.19
				c-3.05-1.73-10.05-4.47-12.02-3.32c-0.3,0.18-0.43,0.43-0.43,0.84c0,1.01,2.49,2.55,4.89,4.05c2.49,1.55,5.31,3.3,7.31,5.41
				c0.19,0.2,0.18,0.53-0.02,0.72C313.63,212.96,313.5,213.01,313.38,213.01z"/>
		</g>
		<g id="XMLID_331_">
			<path class="st3" d="M348.84,273.32c-0.08,0-0.17-0.02-0.24-0.06c-0.25-0.14-0.34-0.44-0.2-0.69c3.37-6.14-2.66-10.77-8.48-15.25
				c-3.54-2.72-6.88-5.29-7.9-8.1c-0.81-2.25-0.49-4.45,0.16-8.83l0.3-2.06c0.04-0.28,0.31-0.47,0.58-0.43
				c0.28,0.04,0.47,0.3,0.43,0.58c-0.11,0.74-0.21,1.43-0.3,2.07c-0.62,4.21-0.93,6.33-0.21,8.33c0.92,2.53,4.14,5.01,7.56,7.64
				c5.88,4.52,12.54,9.63,8.75,16.54C349.19,273.23,349.02,273.32,348.84,273.32z"/>
		</g>
		<g id="XMLID_352_">
			<path class="st3" d="M361.32,316.57c-0.08,0-0.15-0.02-0.22-0.05c-0.25-0.12-0.36-0.43-0.24-0.68c0.77-1.59,0.44-3.71-0.99-6.3
				c-3.52-6.38-2.73-8.56-2.04-10.47c0.39-1.09,0.73-2.02,0.17-3.75c-0.45-1.39-1.5-2.18-2.94-3.28c-1.65-1.24-3.7-2.79-5.72-5.89
				c-0.15-0.24-0.09-0.55,0.15-0.7c0.23-0.15,0.55-0.09,0.7,0.15c1.92,2.95,3.89,4.44,5.48,5.64c1.54,1.16,2.75,2.08,3.3,3.78
				c0.67,2.06,0.23,3.26-0.19,4.41c-0.65,1.8-1.33,3.66,1.97,9.64c1.6,2.9,1.94,5.33,1.02,7.24
				C361.69,316.46,361.51,316.57,361.32,316.57z"/>
		</g>
		<g id="XMLID_355_">
			<path class="st3" d="M325.37,277.12c-0.07,0-0.14-0.01-0.2-0.04c-0.26-0.11-0.38-0.41-0.26-0.67c1.07-2.46,0.48-4.3-0.27-6.63
				c-1.16-3.6-2.6-8.07,1.11-16.9c0.11-0.26,0.41-0.38,0.67-0.27c0.26,0.11,0.38,0.41,0.27,0.67c-3.56,8.48-2.18,12.76-1.08,16.2
				c0.79,2.43,1.46,4.54,0.24,7.35C325.75,277.01,325.56,277.12,325.37,277.12z"/>
		</g>
		<g id="XMLID_356_">
			<path class="st3" d="M317.2,274.92c-0.22,0-0.42-0.15-0.49-0.37c-1.34-4.68-1.11-9.76,0.66-14.29c0.1-0.26,0.4-0.39,0.66-0.29
				c0.26,0.1,0.39,0.4,0.29,0.66c-1.69,4.32-1.91,9.17-0.63,13.64c0.08,0.27-0.08,0.55-0.35,0.63
				C317.29,274.92,317.25,274.92,317.2,274.92z"/>
		</g>
		<g id="XMLID_359_">
			<path class="st3" d="M343.26,283.59c-0.26,0-0.49-0.2-0.51-0.47c-0.34-4.69-2.72-6.83-5.02-8.9c-2.51-2.26-5.11-4.6-4.74-10.05
				c0.02-0.28,0.29-0.5,0.54-0.47c0.28,0.02,0.49,0.26,0.47,0.54c-0.34,4.95,1.86,6.93,4.4,9.22c2.34,2.1,4.98,4.48,5.35,9.58
				c0.02,0.28-0.19,0.52-0.47,0.54C343.29,283.59,343.28,283.59,343.26,283.59z"/>
		</g>
		<g id="XMLID_361_">
			<path class="st3" d="M280.94,266.42c-0.32-0.02-0.53-0.27-0.51-0.55c0.11-1.45,0.57-2.97,1.1-4.73c1.08-3.56,2.43-7.99,2-15
				c-0.02-0.28,0.2-0.52,0.48-0.54c0.29-0.01,0.52,0.2,0.54,0.48c0.44,7.19-0.99,11.91-2.04,15.36c-0.52,1.7-0.96,3.17-1.06,4.51
				C281.43,266.21,281.21,266.42,280.94,266.42z"/>
		</g>
		<g id="XMLID_367_">
			<path class="st3" d="M284.05,273c-0.09,0-0.18-0.02-0.26-0.07c-0.24-0.15-0.32-0.46-0.17-0.7c2.33-3.84,3.76-8.26,4.16-12.78
				c0.02-0.28,0.28-0.48,0.55-0.46c0.28,0.02,0.49,0.27,0.46,0.55c-0.4,4.67-1.89,9.24-4.3,13.22
				C284.39,272.91,284.22,273,284.05,273z"/>
		</g>
		<g id="XMLID_506_">
			<path class="st3" d="M260.24,284.1c-0.06,0-0.11-0.01-0.17-0.03c-0.26-0.09-0.4-0.38-0.31-0.65c1.93-5.49,5.9-6.66,9.4-7.69
				c2.6-0.77,4.85-1.43,5.95-3.7c0.12-0.25,0.43-0.36,0.68-0.24c0.25,0.12,0.36,0.43,0.24,0.68c-1.3,2.68-3.86,3.43-6.58,4.23
				c-3.42,1.01-6.97,2.05-8.73,7.06C260.65,283.96,260.45,284.1,260.24,284.1z"/>
		</g>
	</g>
</g>
</svg>
